<svg xmlns="http://www.w3.org/2000/svg" viewBox="0 0 471.67 100.93"><defs><style>.cls-1{fill:#61a60e;}.cls-2{fill:#007934;}.cls-3{fill:#b4bd00;}.cls-4{fill:#231815;}</style></defs><g id="レイヤー_2" data-name="レイヤー 2"><g id="レイヤー_1-2" data-name="レイヤー 1"><path class="cls-1" d="M56.75,84.21a39.95,39.95,0,1,1,40-39.95A40,40,0,0,1,56.75,84.21Zm0-77A37.07,37.07,0,1,0,93.83,44.26,37.11,37.11,0,0,0,56.75,7.19Z"/><path class="cls-2" d="M56.75,88.82a44.41,44.41,0,1,1,44.41-44.4,44.45,44.45,0,0,1-44.41,44.4Zm0-87.54A43.13,43.13,0,1,0,99.88,44.42,43.17,43.17,0,0,0,56.75,1.28Z"/><path class="cls-3" d="M56.75,78.33A33.92,33.92,0,1,1,90.68,44.42,34,34,0,0,1,56.75,78.33Zm0-63.37A29.45,29.45,0,1,0,86.19,44.42,29.48,29.48,0,0,0,56.75,15Z"/><path class="cls-1" d="M29.07,98.05A26.06,26.06,0,1,1,55.13,72,26.08,26.08,0,0,1,29.07,98.05Zm0-50.23A24.18,24.18,0,1,0,53.25,72,24.22,24.22,0,0,0,29.07,47.82Z"/><path class="cls-2" d="M29,100.93a29,29,0,1,1,29-29,29,29,0,0,1-29,29Zm0-57.1A28.14,28.14,0,1,0,57.1,72,28.15,28.15,0,0,0,29,43.83Z"/><path class="cls-3" d="M29.07,94.22A22.13,22.13,0,1,1,51.2,72.1,22.13,22.13,0,0,1,29.07,94.22Zm0-41.33A19.21,19.21,0,1,0,48.28,72.1,19.23,19.23,0,0,0,29.07,52.89Z"/><path class="cls-4" d="M244.23,39.8h-6.66a1.45,1.45,0,0,0-1.44,1.36h0V55.51h0a1.43,1.43,0,0,0,1.42,1.37h6.68a1.43,1.43,0,0,0,1.4-1.37V41.17h0A1.42,1.42,0,0,0,244.23,39.8Zm-1.66,14.94H239.3V41.93h3.27Z"/><path class="cls-4" d="M454.58,63.44h12.89V60.33H454.58v-6.7h14.25V50.52H454.58V44.37H450v6.15h-9.41a21.62,21.62,0,0,0,2.83-5.61h-3.67a17.48,17.48,0,0,1-4.05,5h0a1.88,1.88,0,0,0-.32.31,2,2,0,0,0-.49,1.32,2.07,2.07,0,0,0,2.09,2h13v6.7H436.93v3.11H450v7.9H432.11v3.1h39.14v-3.1H454.58Z"/><path class="cls-4" d="M462.42,33h8.24v-3.1h-19.1V25.42H447v4.43H427.89V33h8.21a45.08,45.08,0,0,1,1.68,7h-7.5A2.07,2.07,0,0,0,428.2,42h0c0,.52,0,0-.32,11.39-.38,13.82-5.13,18.86-5.13,18.86V75.9c2.71-1.19,5.35-3.52,8-11,2.06-5.84,2.31-18.74,2.34-21.8h38.59V40h-11A49,49,0,0,1,462.42,33Zm-6.06,7H442.14c-.37-1.82-1.07-5.17-1.48-7h17.18C457.46,34.66,456.76,38,456.36,40Z"/><path class="cls-4" d="M415.63,34h-6.58V25.41h-4.58a.57.57,0,0,0,0,.12V34h-4.77V37.1h4.71c-.07,5.18-.06,11.21-.26,16.71-.46,12.34-4.91,18.46-4.91,18.46v3.61c2.72-1.19,4.83-3.28,7.7-10.72,1.73-4.51,2.06-18,2.1-28.06h4.11c0,5.49,0,26.57-.84,31.54s-6.54,4.57-6.54,4.57v2.53a29.48,29.48,0,0,0,6.57-.59c3.65-.72,4-2.71,4.5-5,1.11-5.69.86-34.08.86-34.08A2.07,2.07,0,0,0,415.63,34Z"/><path class="cls-4" d="M348.92,38.74V45c10.47,11.85,18,13.83,18,13.83V55.57C359.8,51.84,352.85,43.25,348.92,38.74Z"/><path class="cls-4" d="M366.24,27.47H319.79v3.1h21.3c-.82,3.13-5.63,16.36-22.1,24.89v3.42c2.07-.81,13.78-5.6,21.76-16.61V75.93h4.58V34.28c.52-1.19,1-2.42,1.42-3.71h19.49Z"/><polygon class="cls-4" points="170.68 55.8 167.18 55.8 168.23 67.54 171.74 67.54 170.68 55.8"/><polygon class="cls-4" points="183 67.54 184.06 55.8 180.55 55.8 179.49 67.54 183 67.54"/><path class="cls-4" d="M178,53.15h7.51v-3.1H178v-7H183V40H168.33v3.1h5.07v7h-7.53v3.1h7.53V70.71c-5.11.44-7.51.5-7.51.5v3.35c2.47-.09,19.6-2.36,19.6-2.36V69.47q-4.23.5-7.52.82Z"/><path class="cls-4" d="M175.67,30.28c4.28,8.2,9.08,11,9.8,11.42V38.5c-5.43-5.08-7.6-13.11-7.6-13.11h-4.4s-2.15,8-7.58,13.11v3.2C166.61,41.29,171.4,38.48,175.67,30.28Z"/><path class="cls-4" d="M202.18,40.09h9.19V37h-9.19c0-5.4,0-9.9,0-11.55h-4.65c0,1.65,0,6.15,0,11.55h-3.94a35.29,35.29,0,0,0,1.13-8.19h-4s.11,8-3.33,14.21v3.86s3-1.59,5.17-6.77h5v10H187.32v3.1h10.16c-.34,4.59-2.25,13.44-10,19.74v3a28.25,28.25,0,0,0,12.39-14,28.16,28.16,0,0,0,12.38,14v-3c-7.76-6.3-9.67-15.15-10-19.74h10v-3.1H202.18Z"/><path class="cls-4" d="M159.29,28.48a2.08,2.08,0,0,0-2.09-2.06H123.36a2.07,2.07,0,0,0-2.09,2.06V72.79a2.08,2.08,0,0,0,2.09,2.06h33.83a2.09,2.09,0,0,0,2.1-2.06V28.48Zm-4.58,43.26H125.85V52.2h28.86Zm0-22.65H125.85V29.53h28.86Z"/><path class="cls-4" d="M282.75,30.78c3-.62,5.36-1.21,6.21-1.41V25.56c-6.47,2.62-16.85,4.1-18.9,4.38v2.62a79.81,79.81,0,0,0,8.11-.93v8.49h-8.53v3.1h8a84.14,84.14,0,0,1-8,18.36v3.69c.34-.39,6.34-7.23,8.54-13.62V75.9h4.58V51.29a48.14,48.14,0,0,0,6.57,8.42V56A49.66,49.66,0,0,1,283,43.23h6.38V40.12h-6.6Z"/><path class="cls-4" d="M312.7,28.86H294.75a2.07,2.07,0,0,0-2,2h0V72.43h0a2.07,2.07,0,0,0,2.08,2h17.86a2.08,2.08,0,0,0,2.09-2h0V30.84h0A2.08,2.08,0,0,0,312.7,28.86Zm-2.53,42.46H297.28V32h12.89Z"/><path class="cls-4" d="M387.07,30.71c5-.42,6-.54,9.49-1.08V26.2a179.36,179.36,0,0,1-23.63,2.63v2.68c.47,0,4.82,0,9.74-.4V34h-11v3.11h11v3.12H376a2,2,0,0,0-2,2h0v16h0a2.07,2.07,0,0,0,2.08,2h6.61v3.15H372.15v3.11h10.52v4.7c-6.43.29-11,.34-11,.34v3.2c20.21-1,26.17-1.79,26.17-1.79V70.19c-3.71.32-7.45.56-10.79.75V66.47H397.4V63.36H387.07V60.21h6.5a2.08,2.08,0,0,0,2.08-2h0V42.31h0v-.08h0a2.06,2.06,0,0,0-2-2h-6.54V37.12H398V34H387.07Zm-4.4,26.4h-4.32V51.77h4.32Zm0-8.44h-4.32V43.35h4.32Zm8.6,8.44h-4.2V51.77h4.2Zm0-13.76v5.32h-4.2V43.35Z"/><path class="cls-4" d="M218.45,72.87V76c8.33-1.63,13.18-5.07,16.69-11.69h-5C226.85,69.89,222.05,71.7,218.45,72.87Z"/><path class="cls-4" d="M251.59,64.29h-5.17C249.94,70.91,255,74.35,263.29,76V72.87C259.7,71.7,254.89,69.89,251.59,64.29Z"/><rect class="cls-4" x="236.13" y="33.94" width="9.52" height="3.11"/><path class="cls-4" d="M262.19,29.51h0a2.07,2.07,0,0,0-2.09-2.05h-6.84v3.11h4.81v7.27h-4.8v3.1h4.8v7.31h-4.8v3.11h4.8v8.39h-6.55V29.48h0a2.07,2.07,0,0,0-2-2H232.29a2.06,2.06,0,0,0-2,2.05V59.74h-6.61V51.35h4.79V48.24h-4.79V40.93h4.79v-3.1h-4.79V30.56h4.8V27.45H221.6a2.07,2.07,0,0,0-2.08,2.05h0V59.74h-2.28v3.11h47.29V59.74h-2.34ZM248,59.74H233.82V30.42H248Z"/></g></g></svg>