<svg xmlns="http://www.w3.org/2000/svg" viewBox="0 0 107.66 14.33"><defs><style>.cls-1{fill:#938055;}</style></defs><g id="レイヤー_2" data-name="レイヤー 2"><g id="レイヤー_1-2" data-name="レイヤー 1"><path class="cls-1" d="M5.73,9A.7.7,0,0,0,5,9.43L3.73,11.36a6.18,6.18,0,0,0-.92,1.69c0,.42.58.44.88.44s.56,0,.56.16-.07.43-.18.43c-.58,0-1.19-.09-1.8-.09s-1.32.09-2.2.09C0,14.08,0,14,0,14c0-.36.05-.47.27-.48l.65,0a.91.91,0,0,0,.66-.32A16.51,16.51,0,0,0,3.08,11L8.5,2.56A8.44,8.44,0,0,1,9.56,1L10,.94l.94,11.23c.06.63.11.94.31,1.1s1.15.22,1.15.4,0,.41-.14.41c-.26,0-.81-.09-1.46-.09-.92,0-1.86.09-2.63.09C8,14.08,8,14,8,13.88s0-.38.14-.39l.67,0a.54.54,0,0,0,.54-.54c0-.18-.05-1-.07-1.17L9.11,9ZM8.79,3.47h0L5.69,8.34H9.07Z"/><path class="cls-1" d="M17.91,8.66l0,0,.84-.92A4.8,4.8,0,0,1,21.93,6c1,0,1.9.38,1.9,1.62,0,1.91-2.62,2.58-4.37,2.54a5.41,5.41,0,0,1,1,2c.27.68.54,1.15,1.09,1.15s1.14-.42,1.79-1.21l.28.33a3.52,3.52,0,0,1-2.79,1.92c-.93,0-1.33-.79-1.67-1.73s-.63-2.21-1.62-2.59c-.36,1.32-.78,2.63-1.17,3.93a.5.5,0,0,1-.47.39c-.23,0-.63-.11-.63-.39a27.62,27.62,0,0,1,.86-3.24l2.29-8a6.52,6.52,0,0,0,.18-1.21c0-.56-.63-.59-1-.66l.1-.42C18.56.29,20.07,0,20.27,0s.11,0,.11.16S20,1.55,20,1.75Zm-.16.9a10.34,10.34,0,0,0,1.67.11c1,0,3.06-.38,3.06-1.71,0-.79-.39-1-1-1a3.65,3.65,0,0,0-2.12,1Z"/><path class="cls-1" d="M31.54,6c1,0,2.05.31,2.05,1.5,0,2.09-3.44,2.68-5,2.75a8.6,8.6,0,0,0-.15,1.23A1.61,1.61,0,0,0,30,13.29a2.76,2.76,0,0,0,2.15-1,.54.54,0,0,1,.34.31,3.64,3.64,0,0,1-3.1,1.76c-1.67,0-2.36-1.2-2.36-2.72C27,9.24,28.85,6,31.54,6Zm-.07.51c-1.46,0-2.42,2.12-2.78,3.33,1.26-.11,3.64-.67,3.64-2.36C32.33,7,32.06,6.52,31.47,6.52Z"/><path class="cls-1" d="M44.77,11.9c-.47.72-2.43,2.43-3.28,2.43-.3,0-.72-.16-.72-.54,0-.74,2.27-5.35,2.27-6.3,0-.27-.25-.5-.63-.5-1.44,0-3.6,3.4-3.76,3.78s-.56,1-.71,1.44c-.39,1-.86,2.12-1.24,2.12s-.68-.12-.68-.41,1.2-3,1.37-3.42a13.55,13.55,0,0,0,.77-2.56.46.46,0,0,0-.43-.49c-.63,0-1.12,1.08-1.21,1.08s-.34-.19-.34-.3S37.37,6,38.39,6c.69,0,.81.53.81,1.1a7.85,7.85,0,0,1-.45,2.07l0,0C39.62,8.1,41.55,6,43.08,6c.73,0,1.31.4,1.31,1a8.63,8.63,0,0,1-.92,2.89,24.88,24.88,0,0,0-1,2.71c0,.12.09.21.25.21.52,0,1.46-.86,1.78-1.22Z"/><path class="cls-1" d="M52.08,6a3,3,0,0,1,3,3.12c0,2.5-2.05,5.2-4.65,5.2-1.82,0-2.75-1.55-2.75-3.26C47.63,8.71,49.55,6,52.08,6Zm-1.63,7.73c2.13,0,3.14-3.68,3.14-5.28,0-.93-.45-1.85-1.51-1.85-2,0-3.1,3.33-3.1,5C49,12.51,49.21,13.74,50.45,13.74Z"/><path class="cls-1" d="M67.59,3.65a5.59,5.59,0,0,0,.22-1.08c0-.5-.38-.55-.79-.55s-.62,0-.91,0c0-.18,0-.61.13-.63a27.35,27.35,0,0,1,4.54-.3c3.83,0,6.68,1.26,6.68,5.54,0,4.61-3.87,6.48-5.3,6.93a11.57,11.57,0,0,1-3.47.49c-1.13,0-2.14-.09-3.17-.09-1.58,0-2,.09-2.27.09-.07,0-.07-.13-.07-.31s0-.23.23-.28l.67-.18c.83-.22,1.06-.9,1.66-3ZM67.65,9c-.26.88-1,3.24-1,3.62,0,.87,1.08.87,2.24.87A6.87,6.87,0,0,0,75.6,6.36c0-3.12-2-4.54-5-4.54-.9,0-1,0-1.1.5Z"/><path class="cls-1" d="M84,3.38A2.18,2.18,0,0,0,81.59,2l.06-.52s0-.07.16-.07c.31,0,.58.09,1,.09.87,0,1.37-.09,2-.09.18,0,.6.88.87,1.37L90,11c.07.11.14.23.18.23s.09-.05.11-.12l2.25-7.89a2.27,2.27,0,0,0,.14-.76c0-.34-.29-.52-.68-.52h-.81c0-.56.11-.59.5-.59.6,0,1.08.09,1.55.09s.92-.06,1.39-.09c.25,0,.37,0,.37.12s0,.36-.12.4a1.41,1.41,0,0,1-.54.07c-.67.06-.88.7-1.24,1.93l-2.43,8.37.75,1.41a.55.55,0,0,1,.11.27c0,.1-.07.18-.22.18s-.63,0-.84,0a3.42,3.42,0,0,0-.36,0c-.15,0-.29-.18-.47-.53l-4.92-9.2c-.07-.14-.14-.25-.19-.25s-.11.11-.15.22l-1.87,6.39A19.69,19.69,0,0,0,82,13c0,.47.42.51.78.51.52,0,.63,0,.63.1a.93.93,0,0,1-.09.4.57.57,0,0,1-.38.09c-.33,0-.56-.09-1.59-.09a14.17,14.17,0,0,0-1.74.09c-.11,0-.13,0-.13-.09s0-.5.11-.5h.23c.47,0,.72,0,.92-.22a5.22,5.22,0,0,0,.94-2.11Z"/><path class="cls-1" d="M101,9a.71.71,0,0,0-.76.39L99,11.36a6.52,6.52,0,0,0-.92,1.69c0,.42.58.44.88.44s.56,0,.56.16-.07.43-.18.43c-.58,0-1.19-.09-1.8-.09s-1.31.09-2.2.09c-.07,0-.07-.05-.07-.11,0-.36.06-.47.27-.48l.65,0a1,1,0,0,0,.67-.32A17.45,17.45,0,0,0,98.37,11l5.42-8.39A8.44,8.44,0,0,1,104.85,1l.42-.05.93,11.23c.06.63.11.94.31,1.1s1.15.22,1.15.4,0,.41-.14.41c-.25,0-.81-.09-1.46-.09-.92,0-1.86.09-2.63.09-.11,0-.11-.11-.11-.2s0-.38.15-.39l.66,0a.53.53,0,0,0,.54-.54c0-.18,0-1-.07-1.17L104.4,9Zm3.06-5.57h0L101,8.34h3.39Z"/></g></g></svg>