<svg xmlns="http://www.w3.org/2000/svg" viewBox="0 0 174.53 18.83"><defs><style>.cls-1{fill:#938055;}</style></defs><g id="レイヤー_2" data-name="レイヤー 2"><g id="レイヤー_1-2" data-name="レイヤー 1"><path class="cls-1" d="M5.73,9a.7.7,0,0,0-.76.4L3.73,11.36a6.18,6.18,0,0,0-.92,1.69c0,.42.58.44.88.44s.56,0,.56.16-.07.43-.18.43c-.58,0-1.19-.09-1.8-.09s-1.32.09-2.2.09C0,14.08,0,14,0,14c0-.36.05-.47.27-.48l.65,0a.91.91,0,0,0,.66-.32A16.51,16.51,0,0,0,3.08,11L8.5,2.56A8.44,8.44,0,0,1,9.56,1L10,.94l.93,11.23c.06.63.11.94.31,1.1s1.15.22,1.15.4,0,.41-.14.41c-.26,0-.81-.09-1.46-.09-.92,0-1.86.09-2.63.09C8,14.08,8,14,8,13.88s0-.38.14-.39l.67,0a.54.54,0,0,0,.54-.54c0-.18-.05-1-.07-1.17L9.11,9ZM8.79,3.48h0L5.69,8.34H9.07Z"/><path class="cls-1" d="M17.91,8.66l0,0,.84-.92A4.8,4.8,0,0,1,21.93,6c1,0,1.9.38,1.9,1.62,0,1.91-2.62,2.58-4.37,2.54a5.41,5.41,0,0,1,1,2c.27.68.54,1.15,1.09,1.15s1.14-.42,1.79-1.21l.28.33a3.52,3.52,0,0,1-2.79,1.92c-.93,0-1.33-.79-1.67-1.73s-.63-2.21-1.62-2.59c-.36,1.32-.78,2.63-1.17,3.93a.5.5,0,0,1-.47.39c-.23,0-.63-.11-.63-.39a27.62,27.62,0,0,1,.86-3.24l2.29-8a6.52,6.52,0,0,0,.18-1.21c0-.56-.63-.59-1-.66l.09-.42C18.56.29,20.07,0,20.27,0s.11,0,.11.16S20,1.55,20,1.75Zm-.16.9a10.26,10.26,0,0,0,1.67.11c1,0,3.06-.38,3.06-1.71,0-.79-.39-1-1-1a3.65,3.65,0,0,0-2.12,1Z"/><path class="cls-1" d="M31.54,6c1,0,2.05.31,2.05,1.5,0,2.09-3.44,2.68-5,2.75a8.6,8.6,0,0,0-.15,1.23A1.61,1.61,0,0,0,30,13.29a2.76,2.76,0,0,0,2.15-1,.54.54,0,0,1,.34.31,3.64,3.64,0,0,1-3.1,1.76c-1.67,0-2.36-1.2-2.36-2.72C27,9.24,28.85,6,31.54,6Zm-.07.51c-1.46,0-2.42,2.12-2.78,3.33,1.26-.11,3.64-.67,3.64-2.36C32.33,7,32.06,6.52,31.47,6.52Z"/><path class="cls-1" d="M44.77,11.9c-.47.72-2.43,2.43-3.28,2.43-.3,0-.72-.16-.72-.54,0-.74,2.27-5.35,2.27-6.3,0-.27-.25-.5-.63-.5-1.44,0-3.6,3.4-3.76,3.78s-.56,1-.71,1.44c-.39,1-.86,2.12-1.24,2.12s-.68-.12-.68-.41,1.2-3,1.37-3.42a13.55,13.55,0,0,0,.77-2.56.46.46,0,0,0-.43-.49c-.63,0-1.12,1.08-1.21,1.08s-.34-.19-.34-.3S37.37,6,38.39,6c.69,0,.81.53.81,1.1a7.85,7.85,0,0,1-.45,2.07l0,0C39.62,8.1,41.55,6,43.08,6c.73,0,1.31.4,1.31,1a8.74,8.74,0,0,1-.92,2.9,24,24,0,0,0-1,2.7c0,.12.09.21.25.21.52,0,1.46-.86,1.78-1.22Z"/><path class="cls-1" d="M52.07,6a3,3,0,0,1,3,3.12c0,2.5-2.05,5.2-4.65,5.2-1.82,0-2.75-1.55-2.75-3.26C47.63,8.71,49.55,6,52.07,6Zm-1.62,7.73c2.13,0,3.14-3.68,3.14-5.28,0-.93-.45-1.85-1.52-1.85-2,0-3.09,3.33-3.09,5C49,12.51,49.21,13.74,50.45,13.74Z"/><path class="cls-1" d="M70.47,11.16a9.25,9.25,0,0,0-.29,1.3c0,.27.13.43.38.43.51,0,1.35-1.37,1.6-1.76l.42.21c-.87,1.44-1.87,3-3,3a.77.77,0,0,1-.72-.84,21,21,0,0,1,.72-2.83l0,0c-.72,1.21-2.38,3.71-4,3.71-1.4,0-1.6-1.13-1.6-2.27C63.92,9.44,66.42,6,69,6a3.52,3.52,0,0,1,1.46.38l.09-.09.87-3.53a5,5,0,0,0,.19-1.13c0-.7-.59-.7-1.13-.7l.07-.4C71.77.38,73,0,73.26,0s.18.05.18.14a1.11,1.11,0,0,1-.07.31c0,.14-.16.59-.31,1.12ZM70,8c0-.81-.38-1.42-1.26-1.42-1.81,0-3.37,3.89-3.37,5.42,0,.56.27,1,.92,1C67.59,13.07,70,9.11,70,8Z"/><path class="cls-1" d="M79.8,6c1,0,2,.31,2,1.5,0,2.09-3.44,2.68-5,2.75a10.29,10.29,0,0,0-.14,1.23,1.6,1.6,0,0,0,1.53,1.8,2.73,2.73,0,0,0,2.14-1,.55.55,0,0,1,.35.31,3.64,3.64,0,0,1-3.1,1.76c-1.68,0-2.36-1.2-2.36-2.72C75.24,9.24,77.11,6,79.8,6Zm-.08.51c-1.46,0-2.41,2.12-2.77,3.33,1.26-.11,3.64-.67,3.64-2.36A.85.85,0,0,0,79.72,6.52Z"/><path class="cls-1" d="M89.66,6.32a8.64,8.64,0,0,0-2.52,5.56c0,.69.3,1.19,1,1.19,1.65,0,3.81-2.88,3.81-4.52,0-1.46-.73-1.13-.73-1.56s.28-1,.81-1c.81,0,.95.67,1,1.43,0,2.32-2.79,6.89-5.42,6.89-1.17,0-1.62-1.15-1.62-2.1,0-1.57,1.37-3.7,2.37-5-.5,0-1-.08-1.56-.08S85,7.31,85,8.17c0,.4.49.42.49.81a.68.68,0,0,1-.69.63c-.41,0-.61-.32-.61-.71a4.47,4.47,0,0,1,1.71-2.76A1.14,1.14,0,0,1,86.51,6c.52,0,1,.08,1.56.08s1-.08,1.45-.08Z"/><path class="cls-1" d="M100.49,6c1,0,2.06.31,2.06,1.5,0,2.09-3.44,2.68-5,2.75a10.29,10.29,0,0,0-.14,1.23,1.6,1.6,0,0,0,1.53,1.8,2.74,2.74,0,0,0,2.14-1,.55.55,0,0,1,.35.31,3.67,3.67,0,0,1-3.1,1.76c-1.68,0-2.36-1.2-2.36-2.72C95.94,9.24,97.81,6,100.49,6Zm-.07.51C99,6.52,98,8.64,97.65,9.85c1.26-.11,3.64-.67,3.64-2.36A.85.85,0,0,0,100.42,6.52Z"/><path class="cls-1" d="M107.93,3.17a11.62,11.62,0,0,0,.3-1.44c0-.58-.59-.74-1-.81l.13-.42c.9-.1,2.48-.5,2.68-.5a.1.1,0,0,1,.11.11,8.64,8.64,0,0,1-.29,1l-2.77,9.45a9.83,9.83,0,0,0-.49,2A.41.41,0,0,0,107,13c.56,0,1.32-1,1.75-1.38h.07l.27.27v.05c-.61.86-2.14,2.41-3.26,2.41a.78.78,0,0,1-.77-.79c0-.09.11-.5.25-1.06Z"/><path class="cls-1" d="M116,6a3,3,0,0,1,3,3.12c0,2.5-2,5.2-4.64,5.2-1.82,0-2.76-1.55-2.76-3.26C111.58,8.71,113.51,6,116,6Zm-1.62,7.73c2.12,0,3.13-3.68,3.13-5.28,0-.93-.45-1.85-1.51-1.85-2,0-3.1,3.33-3.1,5C112.93,12.51,113.17,13.74,114.41,13.74Z"/><path class="cls-1" d="M124.45,14.08a2.9,2.9,0,0,1-1.2-.23c-.27.77-1.17,3.6-1.17,3.83s.23.6.86.65c.36,0,.43.05.43.13s0,.37-.09.37c-.68,0-1.31-.09-2-.09-.86,0-1.62.09-1.74.09s-.06-.25-.06-.41,0-.07.18-.09c.63-.09.9-.18,1.06-.67,1.12-3.47,2.08-6.75,3-10.28a19.83,19.83,0,0,0-2.23.88l-.13-.5a17.64,17.64,0,0,1,2.54-1.06c.45-2,.52-2.11,1.19-2.11.14,0,.48,0,.48.24a5.38,5.38,0,0,1-.36,1.58,10,10,0,0,1,2.43-.4c1.07,0,1.7,1.14,1.68,2.11C129.3,10.8,126.49,14.08,124.45,14.08Zm-.81-1.75a1,1,0,0,0,1,1.05c1.75,0,3.37-3.71,3.3-5.1a1.39,1.39,0,0,0-1.44-1.46,5.17,5.17,0,0,0-1.42.26Z"/><path class="cls-1" d="M143.61,8.93A5.93,5.93,0,0,0,144,7.69a.72.72,0,0,0-.87-.7c-.77,0-2.48,1.18-3.78,3.85L138,13.7c-.25.54-.33.63-.51.63s-.61-.12-.61-.5c0-.16.76-2.09,1.41-3.94a10.91,10.91,0,0,0,.59-2.27.61.61,0,0,0-.7-.63c-1.28,0-3.26,3.15-4.12,5.2l-.47,1.12c-.07.16-.4,1-.81,1s-.6-.27-.6-.5a27.88,27.88,0,0,1,1.28-3.21A8.32,8.32,0,0,0,134.23,8c0-.31-.15-.51-.45-.51S133,8,132.57,8.7l-.38-.22c.36-.72,1.33-2.47,2.23-2.47.63,0,.85.58.85,1.12a7.51,7.51,0,0,1-.34,1.78l0,0c.65-.9,2.51-2.94,4-2.94.72,0,1,.42,1,1.14A9.32,9.32,0,0,1,139.56,9l0,0c1.1-1.32,2.59-3,4.47-3A1.12,1.12,0,0,1,145.3,7.2,3.78,3.78,0,0,1,145,8.57l-1,2.52a8.28,8.28,0,0,0-.41,1.28.28.28,0,0,0,.28.29c.51,0,1.52-1,1.88-1.24l.29.32c-1.9,1.85-2.8,2.59-3.48,2.59a.59.59,0,0,1-.67-.59,5.51,5.51,0,0,1,.42-1.33Z"/><path class="cls-1" d="M153.23,6c1,0,2.06.31,2.06,1.5,0,2.09-3.44,2.68-5,2.75a10.29,10.29,0,0,0-.14,1.23,1.6,1.6,0,0,0,1.53,1.8,2.74,2.74,0,0,0,2.14-1c.09,0,.31.15.34.31A3.64,3.64,0,0,1,151,14.33c-1.68,0-2.36-1.2-2.36-2.72C148.68,9.24,150.55,6,153.23,6Zm-.07.51c-1.46,0-2.41,2.12-2.77,3.33,1.26-.11,3.64-.67,3.64-2.36A.85.85,0,0,0,153.16,6.52Z"/><path class="cls-1" d="M166.47,11.9c-.47.72-2.44,2.43-3.28,2.43-.31,0-.72-.16-.72-.54,0-.74,2.27-5.35,2.27-6.3a.57.57,0,0,0-.63-.5c-1.44,0-3.6,3.4-3.77,3.78s-.55,1-.7,1.44c-.39,1-.86,2.12-1.24,2.12s-.69-.12-.69-.41,1.21-3,1.37-3.42a12.9,12.9,0,0,0,.78-2.56.46.46,0,0,0-.43-.49c-.64,0-1.12,1.08-1.21,1.08s-.34-.19-.34-.3S159.07,6,160.09,6c.69,0,.81.53.81,1.1a7.85,7.85,0,0,1-.45,2.07l0,0C161.32,8.1,163.24,6,164.77,6c.74,0,1.32.4,1.32,1a8.74,8.74,0,0,1-.92,2.9,24.22,24.22,0,0,0-1,2.7c0,.12.09.21.25.21.53,0,1.46-.86,1.79-1.22Z"/><path class="cls-1" d="M169.76,6.27h1.6l.38-1.39c.09-.32.3-.58.59-.58s.6.09.6.38a8.64,8.64,0,0,1-.27,1.06l-.15.53h1.6c.24,0,.42,0,.42.27s-.07.43-.18.43h-2l-.9,3.17c-.12.45-.65,2.18-.65,2.5s.35.52.67.52c.79,0,1.55-.79,2-1.33.08,0,.22.2.33.34-.78.88-2.14,2.16-3.4,2.16-.56,0-1.07-.27-1.07-.88a26.11,26.11,0,0,1,.78-2.81l1-3.67h-1.37Z"/></g></g></svg>