<svg id="レイヤー_1" data-name="レイヤー 1" xmlns="http://www.w3.org/2000/svg" width="979.7" height="67.5" viewBox="0 0 979.7 67.5"><defs><style>.cls-1{fill:#fff;}</style></defs><path class="cls-1" d="M81.3,37.8a5.89,5.89,0,0,1-4.2,1.7,6.13,6.13,0,0,1-4.3-1.7,5.73,5.73,0,0,1-1.7-4.2,6.31,6.31,0,0,1,1.7-4.3,5.58,5.58,0,0,1,4.3-1.7,5.37,5.37,0,0,1,4.2,1.7A6.13,6.13,0,0,1,83,33.6,6.35,6.35,0,0,1,81.3,37.8Z"/><path class="cls-1" d="M143.1,5.6a7.73,7.73,0,0,0-5.4-2.2,6.57,6.57,0,0,0-4.8,2,6.27,6.27,0,0,0-2,4.9,7.1,7.1,0,0,0,2.3,5.4,7.41,7.41,0,0,0,5.4,2.3,6.72,6.72,0,0,0,4.9-2.1,6.48,6.48,0,0,0,1.9-4.8A8.06,8.06,0,0,0,143.1,5.6Zm-1.9,8.3a3.4,3.4,0,0,1-2.9,1.2,4.26,4.26,0,0,1-3.1-1.4,4.22,4.22,0,0,1-1.3-3.2A4,4,0,0,1,135,7.6a3.7,3.7,0,0,1,2.9-1.2A4.16,4.16,0,0,1,141,7.7a4.22,4.22,0,0,1,1.3,3.2A4.43,4.43,0,0,1,141.2,13.9Z"/><path class="cls-1" d="M288.2,22.9h0c-.2,0-.3,0-.4.1-.2.3-.2.5-.1,1a5,5,0,0,1-.1,2.4,17.74,17.74,0,0,1-2.7,5.7l-2.1,2.8a66,66,0,0,1-5.3,6.2,78.23,78.23,0,0,1-9.1,8h-.1c-1.2.9-1.6,1.4-1.3,1.7a.59.59,0,0,0,.5.2h0c.3,0,.7-.1.9-.1a29.72,29.72,0,0,0,3.9-1.3,38.78,38.78,0,0,0,6.8-4.2,57.48,57.48,0,0,0,9.2-8.4l.3-.3c1.2-1.4,2.2-2.7,3.2-4,1.6-2.1,1.9-3.2,1.9-3.7,0-1.2-1-2.9-2.5-4.3C289.6,23.1,288.6,22.9,288.2,22.9Z"/><path class="cls-1" d="M326.7,45a20.13,20.13,0,0,0-2.2-5.2,40.34,40.34,0,0,0-3.9-5.6,55,55,0,0,0-5.3-5.4,56.1,56.1,0,0,0-10.7-7.4c-2.3-1.3-3.6-1.6-4.1-1.1-.2.2-.2.3-.2.4,0,.4.4.8,1,1.2l.3.2s2.4,1.8,3.4,2.6a53.37,53.37,0,0,1,7.5,8.5,54.41,54.41,0,0,1,4.1,7c.6,1.3,1.2,2.4,1.7,3.6l.4.9c.5,1,1,2.1,1.5,3.1,1,1.8,1.9,2.7,3.1,2.9.2,0,.5.1.7.1a2.88,2.88,0,0,0,2.8-2A8.2,8.2,0,0,0,326.7,45Z"/><path class="cls-1" d="M110.2,22.9h0c-.2,0-.3,0-.4.1-.2.3-.2.5-.1,1a5,5,0,0,1-.1,2.4,20.12,20.12,0,0,1-2.7,5.7l-2.1,2.8a66,66,0,0,1-5.3,6.2,78.23,78.23,0,0,1-9.1,8h-.1c-1.2.9-1.6,1.4-1.3,1.7a.59.59,0,0,0,.5.2h0c.3,0,.7-.1.9-.1a29.72,29.72,0,0,0,3.9-1.3,38.78,38.78,0,0,0,6.8-4.2,57.48,57.48,0,0,0,9.2-8.4l.3-.3c1.2-1.4,2.2-2.7,3.2-4,1.6-2.1,1.9-3.2,1.9-3.7,0-1.2-1-2.9-2.5-4.3C111.6,23.1,110.6,22.9,110.2,22.9Z"/><path class="cls-1" d="M148.6,45a20.13,20.13,0,0,0-2.2-5.2,40.34,40.34,0,0,0-3.9-5.6,55,55,0,0,0-5.3-5.4,56.1,56.1,0,0,0-10.7-7.4c-2.3-1.3-3.6-1.6-4.1-1.1-.2.2-.2.3-.2.4,0,.4.4.8,1,1.2l.3.2s2.4,1.8,3.4,2.6a48.86,48.86,0,0,1,7.5,8.5,54.41,54.41,0,0,1,4.1,7c.6,1.3,1.1,2.4,1.7,3.6l.4.9c.5,1,1,2.1,1.5,3.1,1,1.8,1.9,2.7,3,2.9.2,0,.5.1.7.1a2.88,2.88,0,0,0,2.8-2A6.16,6.16,0,0,0,148.6,45Z"/><path class="cls-1" d="M58.2,12.5a1.21,1.21,0,0,1-.9.7,2.3,2.3,0,0,1-2-.3c-.8-1.1-2-2.7-3.5-4.7a9.08,9.08,0,0,0-1.7-1.7c-1.2-1-1.7-1.7-1.5-1.9a4.86,4.86,0,0,1,2.4.3,24.65,24.65,0,0,1,4.2,1.7c2.3,1.2,3.5,2.6,3.4,4.4A2.41,2.41,0,0,1,58.2,12.5ZM65,7.7a1.5,1.5,0,0,1-.9.7,2.29,2.29,0,0,1-2-.2c-.8-1-2-2.6-3.7-4.6-.4-.5-1-1-1.7-1.7C55.5.9,55,.3,55.1.1s1-.1,2.3.3a36.24,36.24,0,0,1,4.3,1.4c2.3,1,3.5,2.5,3.5,4.3A1.71,1.71,0,0,1,65,7.7Z"/><path class="cls-1" d="M39.1,5.4C41,6.2,42,7,42.3,7.8a2.35,2.35,0,0,1-.1,1.4c-.2.9-.4,1.6-.5,2.2-.2,2.4-.2,4.1-.2,4.8v5.9c1.4-.1,3.3-.2,5.8-.3a46.92,46.92,0,0,0,5.4-1.1,10.7,10.7,0,0,1,2.9-.5,5.31,5.31,0,0,1,2.8,1.7A5.11,5.11,0,0,1,60,24.7c.1.9-.1,1.4-.6,1.6a7.32,7.32,0,0,1-3.6.2c-1.2-.1-2.9-.2-5.2-.3a35.72,35.72,0,0,0-4.7,0l-4.3.1c0,1.7,0,4.2-.1,7.3A35,35,0,0,1,40,42.5a26.43,26.43,0,0,1-6.9,11.3,37.13,37.13,0,0,1-6.2,4.8,31.43,31.43,0,0,1-6,3.1c-1.2.4-1.9.4-2,.1s.2-.9,1.1-1.5,2.3-1.5,4.1-3c5.8-4.8,8.2-8.1,10.1-13.2A38.09,38.09,0,0,0,36.4,31c0-1.7,0-3.2-.1-4.6-5.6.2-10.3.5-13.4.6a46.55,46.55,0,0,1,.2,5l.2,4.6a16,16,0,0,1-.3,3.6c-.4,1.2-1,1.8-1.9,1.9-1.2.1-2.2-.8-2.9-2.6a7.77,7.77,0,0,1-.7-4.3,37.54,37.54,0,0,0,.4-7.8c-1.5.2-3.7.4-7.1.7-1.1.2-2.8.5-5.2.9a5.81,5.81,0,0,1-2.1-.5,7.81,7.81,0,0,1-2.1-1.6A5.09,5.09,0,0,1,0,24.3c0-.2,0-.3.1-.4a12.09,12.09,0,0,1,3.3.1,47.65,47.65,0,0,0,5.1-.1c3.3-.2,6.1-.4,9.1-.5-.1-1.6-.2-4.2-.4-7.8-.2-1.5-.4-2.8-.7-4.1a8.5,8.5,0,0,0-.7-2.1c-.4-.7-.5-1.1-.4-1.2.4-.5,1.1-.5,2.7.2a11.7,11.7,0,0,1,3.3,2.1c.5.7.7,2,.8,4.2,0,.1.1,2.8.2,8.3,3.2-.1,8-.3,13.7-.6.1-2.2-.1-7-.2-8.1a32.46,32.46,0,0,0-.8-5.8A10.47,10.47,0,0,0,34,5.9c-.4-.6-.5-1-.4-1.2.4-.6,1.4-.6,3-.1A18.44,18.44,0,0,1,39.1,5.4Z"/><path class="cls-1" d="M167.8,36.1c-.7,0-2.3.1-4.8.2-.6.1-1.4.2-2.2.4a2.33,2.33,0,0,1-1.4.1c-.7-.2-1.6-1.5-2.4-3.4a18.15,18.15,0,0,1-.9-2.3c-.5-1.7-.5-2.6.1-3.1.2-.1.6,0,1.2.5a9,9,0,0,0,2.7,1,33.14,33.14,0,0,0,5.8.9h22.3c2.1-.1,7.1-.2,15.7-.2l6.9-.1c3.5.1,5.3.9,5.3,2.4s-1.1,2.4-4.1,3c-1.8.4-5.3.4-10.3.4-1.6-.1-6.2,0-14.1-.1-4.8,0-9.1,0-12.1.1Z"/><path class="cls-1" d="M438.6,57.4a5.81,5.81,0,0,1-3.5-2.1c-2.3-2.3-4.6-4.3-6.6-6.2a69.36,69.36,0,0,0-6.9-5.5c-1.7-1.2-3.7-2.5-5.8-3.8a72.24,72.24,0,0,1-10.2,9,54.88,54.88,0,0,1-18.7,9c-1.8.4-2.7.4-2.9,0s.6-1,2.1-1.7a85.71,85.71,0,0,0,13.1-7.7,66.62,66.62,0,0,0,8.7-7.2,100.22,100.22,0,0,0,8.4-9.9,83.43,83.43,0,0,0,7-11.1c-.2,0-4.2.6-12.2,1.9-1.2.2-3,.5-5.5.8a8.15,8.15,0,0,0-2.2.6c-1,.2-1.7.4-1.9.4-1.7-.1-3.4-1.3-5.2-3.6-.6-.9-.8-1.4-.6-1.7s.7-.3,1.9-.2h3c1.4,0,2.6,0,3.8-.1,1.9-.2,5.1-.5,9.5-.9,2.3-.2,4.6-.5,8.4-1a3.9,3.9,0,0,0,1.6-.7c.6-.3,1.2-.7,1.5-.8.9-.1,2.3.3,4.2,2.2,1.6,1.6,2.2,2.4,2.1,3.2a2.3,2.3,0,0,1-1.2,1.8,8.65,8.65,0,0,0-2,1.5c-.5.4-2,2.5-5.8,7.6-1,1.3-2.7,3.5-5.2,6.6,1.7.6,4.7,1.8,8.7,3.7,3.8,1.8,6.4,3.1,7.9,4a47.92,47.92,0,0,1,4.9,3.7,7.66,7.66,0,0,1,2.2,5.5C441.1,56.5,440.3,57.5,438.6,57.4Z"/><path class="cls-1" d="M383.2,20.7c-2.2-2.1-4.3-3.5-5.4-3.5s-2.4,1.7-3.1,1.8c-2.2.2-4.3.3-5.8.3-3.1.2-5.2.4-6.5.5V17.2c0-.7.1-2.5.3-5.2.1-.7.3-1.5.5-2.4a2.68,2.68,0,0,0,.1-1.5c-.3-.8-1.4-1.6-3.4-2.5a17.85,17.85,0,0,0-2.6-1c-1.9-.6-2.9-.6-3.3.1-.1.2,0,.6.4,1.3a25.82,25.82,0,0,1,1.2,2.8,39.1,39.1,0,0,1,.9,6.3c0,.7.1,3.1.1,5.1-8.2.7-12.9,1-14.3,1.1-1.5-1.1-2.6-2.1-3.3-2.6-1.4-1-2.3-1.5-2.9-1.5-.4-.1-.7.2-.8.9a5.32,5.32,0,0,0,.5,2.2c.4,1.2.7,2.2,1,3.3.6,2.1,1,4.3,1.4,6.4.7,3.4,1.2,6.3,1.4,8.4a13.31,13.31,0,0,0,1,3.4c.9,1.8,2,2.6,3.3,2.6,1.8,0,2.6-1.4,2.3-4.4-.7-3.6-1.3-6.4-1.9-8.4-.6-3.1-1.1-5.3-1.4-6.6,7.1-.6,12.4-.9,16-1.2,8-.5,13.4-.7,16.1-.7a68.22,68.22,0,0,1-5.4,14,56.69,56.69,0,0,1-8.1,11.7,63.61,63.61,0,0,1-6.3,5.9,59.34,59.34,0,0,1-5.8,4.2c-1.9,1.2-2.7,2.1-2.6,2.5a.6.6,0,0,0,.6.3,11,11,0,0,0,3.2-1,37,37,0,0,0,6.3-3.1,58,58,0,0,0,7.9-5.9,52.73,52.73,0,0,0,8.9-11,99.69,99.69,0,0,0,7.5-14.5c.7-1.6,2.6-2.1,2.9-3.4C384.3,22.2,384.2,21.7,383.2,20.7Z"/><path class="cls-1" d="M271,21.1a9.28,9.28,0,0,0-2.7,2.9c-.7,1.1-1.8,2.9-3.4,5.4-1.4,2.1-3,4.7-5,7.4A81.31,81.31,0,0,1,250.2,48,64.85,64.85,0,0,1,232,59.9c-2.3.9-4.2,1.6-5.5,2s-2.1.2-2.3-.2.4-.8,1.5-1.4c6.3-3.5,13-8,17.1-11.8a82.39,82.39,0,0,0,8.1-8.6A110.7,110.7,0,0,0,258.5,29c.4-.9,2-3.6,4.6-8.5-2.3.2-8,.6-10.9,1.1a34.26,34.26,0,0,0-3.4.6,2.9,2.9,0,0,1-1.4-.9c-.6-.4-1.1-.8-1.6-1.2-3.3,3.7-5.7,6.2-7.3,7.7-1.1,1-2.7,2.3-4.8,4a33.31,33.31,0,0,1-6.1,3.5c-1.8.9-2.9,1.1-3.1.6s.2-1.1,1.4-2.1A73.27,73.27,0,0,0,238,21.5a48.88,48.88,0,0,0,4.7-7.3,19.74,19.74,0,0,0,2.1-5.5,7.07,7.07,0,0,0,.2-2.5c0-.4-.1-1.1.1-1.4.4-.4,1.2,0,1.9.5a18.57,18.57,0,0,1,2.3,1.8c1.5,1.5,2.3,2.5,2.3,2.9a4.19,4.19,0,0,1-1,1.9c-.2.3-.6.8-1,1.5-.8,1.2-1.5,2-2.9,4.2,0,0,2.4-.2,7.1-.7,2.9-.3,8.5-.6,10.2-1.1a5.69,5.69,0,0,0,1.3-.7l.9-.6c.4-.2,1-.1,1.9.4a16.69,16.69,0,0,1,2.8,2.2c1.3,1.4,1.3,1.8,1.1,2.6A1.61,1.61,0,0,1,271,21.1Z"/><g id="レイヤー_2" data-name="レイヤー 2"><g id="レイヤー_1-2" data-name="レイヤー 1-2"><path class="cls-1" d="M514.38,14.24a14.54,14.54,0,0,1,2.62.39c1.5.62,2.25,1.19,2.25,1.7a2.18,2.18,0,0,1-.31,1.08,2.16,2.16,0,0,1-1.24.7q-5.26.91-10.89,1.54-.24,3.92-.46,8.73,12.9-1.69,20.7-3.16a9,9,0,0,1,1.55-.16,15.57,15.57,0,0,1,5.81,1.35c2,1.24,2.93,2.5,2.93,3.79,0,.78-.69,1.16-2.08,1.16-1.6,0-4.31-.16-8.12-.46a56.6,56.6,0,0,0-6.1-.39q-5.88,0-10.78.15a3.81,3.81,0,0,1,.78.46q2.16,1.39,2.16,2.94a1,1,0,0,1-.31.7,14.44,14.44,0,0,0-.62,5q0,9.44,1,19.71a10.58,10.58,0,0,1-2.16,5.8c-1.34,1.75-2.43,2.62-3.25,2.62a2.5,2.5,0,0,1-2.16-1.77c-.78-1.5-2.68-3.71-5.73-6.65a.55.55,0,0,1,.47-.62h.15a19.21,19.21,0,0,0,5.72,1.47c.88,0,1.42-.92,1.62-2.78A134.52,134.52,0,0,0,508.37,44a83.35,83.35,0,0,0-.46-8.42,13.9,13.9,0,0,0-.77-4.09c-.1-.32-.18-.54-.22-.7-3.41.16-6.45.41-9.13.77a9.92,9.92,0,0,1,1.86.46c1.18.37,1.77,1,1.77,1.78a4.12,4.12,0,0,0-.62,2q-.54,9.66-2.24,14.45a27.69,27.69,0,0,1-4.66,9.42,27.65,27.65,0,0,1-7.65,5.34,13.88,13.88,0,0,1-3.56,1.16.3.3,0,0,1-.31-.26v-.06a53.12,53.12,0,0,0,8.58-9,24.06,24.06,0,0,0,3.71-9.27,48.06,48.06,0,0,0,1-10.36,12.33,12.33,0,0,0-1.39-4.89.89.89,0,0,1-.08-.32,109.41,109.41,0,0,0-11.75,2.32,8.43,8.43,0,0,1-3.09.62,10.81,10.81,0,0,1-4.56-1.16c-1.36-.77-2.07-1.29-2.07-1.58a.54.54,0,0,1,.47-.62h.14q5.79,0,25.05-2.32l3.7-.46c.06-3.26.11-6.18.15-8.74a47.11,47.11,0,0,1-5,.39c-3.29,0-5.47-.43-6.49-1.32-.72-.5-1.08-.9-1.08-1.15s.2-.31.62-.31q7.11-.32,12-.93A98.27,98.27,0,0,0,502,6.39a10.28,10.28,0,0,0-1.48-2.62,4.21,4.21,0,0,1-.62-1.7c0-.78.49-1.16,1.47-1.16a8,8,0,0,1,4.26,1.23c2,.83,3,1.63,3,2.4-.05.46-.1,1-.16,1.47-.51,1.34-1,4.66-1.39,10q3.18-.71,5.8-1.47A3.21,3.21,0,0,1,514.38,14.24Zm-29.3,26.51c.27,0,.47.29.62.84a8.7,8.7,0,0,1,1,3.41,14.53,14.53,0,0,1-1.77,6.57,8.89,8.89,0,0,1-2.48,3.78,3,3,0,0,1-2.09,1.17,2,2,0,0,1-1.77-1.24,6.74,6.74,0,0,1-.31-2.09,8.35,8.35,0,0,1,.46-2.62Q483.61,44,484,42.06C484.09,41.19,484.46,40.75,485.08,40.75Zm32.39,0a10,10,0,0,1,2.17.38c1.9.88,3.83,1.88,5.79,3a17.43,17.43,0,0,1,4.89,4.56,8.93,8.93,0,0,1,1,4.18,5.63,5.63,0,0,1-.54,2.31,1.79,1.79,0,0,1-1.54,1,2,2,0,0,1-1.24-.32A40.89,40.89,0,0,1,524,51a68.93,68.93,0,0,0-5.18-7.5c-1.09-1.13-1.63-1.95-1.63-2.47a.28.28,0,0,1,.3-.25Z"/><path class="cls-1" d="M571.8,31.4c.36,0,.54.2.54.62a2.4,2.4,0,0,1-.62,1.08q-2.4,2.79-7.49,7.84c-1.8,1.86-4,4.26-6.49,7.19-.32.56-.57.85-.78.85-.77,0-2.06-.67-3.87-2-1.44-1.34-2.16-2.29-2.16-2.86s.31-.85,1-.85a8.39,8.39,0,0,0,2.54-1.08A148.3,148.3,0,0,0,569.07,33,8.73,8.73,0,0,1,571.8,31.4Zm-13.89-9.67a11.45,11.45,0,0,1,2.47.32,20,20,0,0,1,5.37,1.77,3,3,0,0,1,1.54,2.79,3.57,3.57,0,0,1-.85,2.23,2.55,2.55,0,0,1-1.86,1.09,2.51,2.51,0,0,1-1.77-.85,30.94,30.94,0,0,1-5-6,1.9,1.9,0,0,1-.46-.69C557.37,22,557.58,21.73,557.91,21.73ZM573.58,8.44a12.51,12.51,0,0,1,3.4,1c2,1,2.94,2,2.94,2.63a1.78,1.78,0,0,1-.24.77q-1.2,3.64-1.2,14.25V54.36a12.4,12.4,0,0,1-1.78,5.1c-1.39,2-2.53,3.08-3.4,3.08q-8.12-9.27-8.11-9.65v-.32c3.24,1.39,5.36,2.09,6.33,2.09,1.13,0,1.83-1.14,2.09-3.4q.84-4.78.92-20.1,0-6.33-.61-17.54c0-.61-.62-.93-1.86-.93a27.57,27.57,0,0,0-3.39.32,48.75,48.75,0,0,0-7.74,1.77,3,3,0,0,1-1.62-.78c-.52-.3-.77-.63-.77-1s.17-.62.54-.62a10.09,10.09,0,0,0,2.78-.39c2.73-.57,5.43-1.21,8.12-2a10,10,0,0,0,2.94-1.31A1.16,1.16,0,0,1,573.58,8.44Zm26.28,21.19c.2,0,.3.2.3.61,0,.21-.2.54-.61,1q-2.25,2.88-6.86,7.84c-1.7,1.86-3.68,4.22-6,7.11-.31.57-.57.85-.78.85q-1.08,0-3.48-1.86c-1.29-1.24-2-2.11-2-2.63a.81.81,0,0,1,.68-.92h.24a6.09,6.09,0,0,0,2.32-1.08A127.33,127.33,0,0,0,597.29,31,7.15,7.15,0,0,1,599.86,29.63ZM602,6.05a11.87,11.87,0,0,1,3.71,1.16c2.16,1.19,3.25,2.22,3.25,3.09a1.82,1.82,0,0,1-.24.78q-1.23,3.87-1.23,15.14V55q0,2-2.09,5.64c-1.6,2.26-2.94,3.4-4,3.4q-9.66-10.43-9.66-10.77v-.38q5.81,2.09,7.57,2.08,2.09,0,2.56-3.55,1-5,1.08-20.79,0-6.81-.93-18.86c0-.57-.59-.85-1.78-.85-1,0-2.39.08-4.25.24A80.49,80.49,0,0,0,586.6,13a4.05,4.05,0,0,1-2-1c-.67-.46-1-.92-1-1.39a.55.55,0,0,1,.47-.62h.16a17,17,0,0,0,3.4-.38c3.34-.57,6.67-1.24,10-2a12.79,12.79,0,0,0,3.55-1.23A1.84,1.84,0,0,1,602,6.05ZM584.21,20a17.59,17.59,0,0,1,2.62.23,21.43,21.43,0,0,1,5.72,1.7,2.74,2.74,0,0,1,1.6,2.56,3.84,3.84,0,0,1-.85,2.32,2.87,2.87,0,0,1-1.86,1,3.29,3.29,0,0,1-2-.78,32.35,32.35,0,0,1-5.41-5.8c-.31-.3-.47-.51-.47-.61.05-.4.26-.6.62-.6Z"/><path class="cls-1" d="M676.21,14.08c.78,0,2.17.84,4.17,2.48,1.86,1.8,2.86,3.14,3,4,0,.77-.57,1.51-1.7,2.24A25.45,25.45,0,0,0,677,29.93a100,100,0,0,1-7.66,13.71,40.35,40.35,0,0,1-9.66,9.5,85.85,85.85,0,0,1-12,6.73,91.39,91.39,0,0,0,14.92-15.34,81.2,81.2,0,0,0,7.93-12.9q4.26-8.8,4.48-11.21c-.15-1-.87-1.54-2.16-1.54q-4.41,0-15.46,2.85-12,3-16,3a8.86,8.86,0,0,1-4-1.16c-1.75-.77-2.64-1.72-2.64-2.86a.86.86,0,0,1,1-1,8.64,8.64,0,0,1,2,.4,17.18,17.18,0,0,0,2.48.22A132.78,132.78,0,0,0,660,18.14q10.2-1.79,13.72-3.25A7.55,7.55,0,0,1,676.21,14.08Z"/><path class="cls-1" d="M713.63,21.27a9.37,9.37,0,0,1,2.71.62,10.36,10.36,0,0,0,3,.63A84.43,84.43,0,0,0,728,21.11c2.37-.35,5.58-1,9.66-1.85q10-3.07,10.82-3.09,2.09,0,5.8,2.48c2.26,1.54,3.55,2.93,3.86,4.09a2,2,0,0,1-1,1.63,11.74,11.74,0,0,0-2.4,3.32,34.51,34.51,0,0,0-3.24,7.88,26.48,26.48,0,0,0-1.32,6,3.44,3.44,0,0,0,.54,1.95,3.07,3.07,0,0,1,1.08,1.83c0,.83-1.62,1.34-4.9,1.54q-21.54,1.55-22.52,3.64c-.62,1.39-1.22,2.13-1.78,2.24-1.4,0-2.86-1.63-4.4-4.9-.78-1.64-1.17-4.77-1.17-9.35A37.2,37.2,0,0,0,715.29,27c-.52-1.59-1-2.52-1.55-2.78a2.48,2.48,0,0,1-1.31-2C712.38,21.58,712.79,21.27,713.63,21.27Zm10.51,24q6-1.15,18.16-2.78A3.3,3.3,0,0,0,745,39.59l3.26-16.11c0-.78-.65-1.16-2-1.16s-4.79.41-10.67,1.23a68.76,68.76,0,0,0-8.42,1.63,12.88,12.88,0,0,1-3.41.77,8.42,8.42,0,0,1-3.86-.77Z"/><path class="cls-1" d="M794.38,10.46a51.17,51.17,0,0,1,15.07,7.83q4.71,3.74,4.55,6c-.1,2.32-1.18,3.44-3.24,3.4-1.44-.05-3.32-1.72-5.64-5A97.64,97.64,0,0,0,794.38,10.46Zm44.28,4.79A104,104,0,0,1,829.08,33a104.66,104.66,0,0,1-13.14,15.22Q805.13,58.61,804,58.61c-1.12,0-2.59-.76-4.4-2.25s-2.85-2.78-2.85-3.87,1-1.48,3-1.54q3.33-.15,9-4.18a106.15,106.15,0,0,0,12.06-10.56,232,232,0,0,0,17.77-21Z"/><path class="cls-1" d="M882.17,5.43a9.42,9.42,0,0,1,4.89,1.78c1.76,1.13,2.74,2.27,2.94,3.4a2.25,2.25,0,0,1-.69,1.54c-.57.66-.85,2.64-.85,6v6.4q10.51,2.1,16,6.27c2.94,2.33,4.46,4.46,4.55,6.42.11,1.59-.69,2.39-2.39,2.39s-4.64-2.11-9.11-6.34a42.35,42.35,0,0,0-9-6.64V46.47a35.41,35.41,0,0,0,.31,6.26,30.27,30.27,0,0,1,.31,4.25,11.92,11.92,0,0,1-1.32,4.63c-.62,1.3-1.23,2-1.85,2.17-1.14-.26-2.14-1.52-3-3.78a17,17,0,0,1-.85-4.9,29.94,29.94,0,0,1,.55-4.72c.35-2.26.57-3.86.62-4.79q.69-9.35.69-12.91,0-8.1-.69-18.23A13.33,13.33,0,0,0,882,9.55a11,11,0,0,1-.93-3.12C881.11,5.77,881.44,5.43,882.17,5.43Z"/></g></g></svg>