<svg xmlns="http://www.w3.org/2000/svg" viewBox="0 0 150.66 45.91"><defs><style>.cls-1{fill:#03004c;}.cls-2{fill:#fff;}.cls-3{fill:#231815;}</style></defs><g id="レイヤー_2" data-name="レイヤー 2"><g id="レイヤー_1-2" data-name="レイヤー 1"><rect class="cls-1" width="150.66" height="31.22"/><path class="cls-2" d="M22.55,17.49c0-3,.05-6.61.1-8.55h0c-.41,3-1.52,10.26-2.35,15.34H18.05c-.62-4.49-1.76-12.21-2.17-15.35h-.05c.05,2,.14,6,.14,8.92v6.43H13.84V6.93H17.3c.8,4.71,1.68,10.25,1.91,12.59h0c.28-2.34,1.38-8.15,2.18-12.59h3.36V24.28H22.55Z"/><path class="cls-2" d="M34.48,19.26l-.7,5H31.41L34.23,6.93h3.3l2.93,17.35H38l-.78-5ZM37,17.12c-.48-3.31-.89-6.18-1.07-8h-.09c-.07,1.39-.63,5.18-1,8Z"/><path class="cls-2" d="M49.45,16.38v7.9H47.12V6.93h3.42c2.63,0,4.07,1.08,4.07,4.1v.72c0,2.53-1,3.33-1.77,3.63,1,.45,1.6,1.22,1.6,3.56a46.85,46.85,0,0,0,.17,5.34H52.35a39.62,39.62,0,0,1-.18-5.18c0-2.17-.29-2.72-1.91-2.72Zm0-1.94h.83c1.51,0,2-.71,2-2.59v-.67c0-1.44-.35-2.31-2-2.31h-.87Z"/><path class="cls-2" d="M61.74,6.93H64V15h0c.69-1.68,2.34-5.6,3.36-8.06H70l-3.22,6.8,3.46,10.55H67.7l-2.5-8.12L64,18.54v5.74H61.74Z"/><path class="cls-2" d="M82.15,24.44V7.08h2.72c.79,2.77,3,11.56,3.24,12.69h0C88,17.55,88,15.11,88,12.27V7.08h2.16V24.44H87.55c-.71-2.58-3.09-12.11-3.33-13.11h0c.13,2.1.14,4.62.14,7.75v5.36Z"/><path class="cls-2" d="M105.47,16.31h-3.84v6H106l-.3,2.14H99.3V7.08h6.39V9.24h-4.06v4.93h3.84Z"/><path class="cls-2" d="M119.7,24.44l-1.91-6.65h0l-2,6.65h-2.41l3.08-8.9-2.93-8.46h2.56l1.78,6h0l1.78-6h2.43l-2.93,8.13,3.12,9.23Z"/><path class="cls-2" d="M131.48,9.24h-2.8V7.08h7.92V9.24h-2.8v15.2h-2.32Z"/><path class="cls-3" d="M30.67,41.31A19,19,0,0,1,32.44,43c.37-.32.83-.73,1.15-1.07A12.51,12.51,0,0,0,35,40l.07-.1-5,0c-.46,0-.71,0-1,0v-.68a6.7,6.7,0,0,0,1,0h5.07a1.07,1.07,0,0,0,.48-.06l.37.43a2,2,0,0,0-.35.46,13.22,13.22,0,0,1-2.87,3.26A17.78,17.78,0,0,1,34.11,45l-.53.44A16.36,16.36,0,0,0,30.2,41.7Z"/><path class="cls-3" d="M39.36,41.66a5.62,5.62,0,0,0,1.08.05h5a6.35,6.35,0,0,0,1.05,0v.7c-.28,0-.48,0-1.06,0h-5c-.64,0-.82,0-1.08,0Z"/><path class="cls-3" d="M53.43,38.46a1.4,1.4,0,0,0-.19.35c-.23.47-.31.62-.4.78a22.4,22.4,0,0,1,2.62-.07.88.88,0,0,0,.45-.06l.38.36c-.08.11-.08.11-.18.43a9.11,9.11,0,0,1-1.74,3.26,8.38,8.38,0,0,1-3,2.17,1.34,1.34,0,0,0-.43-.51A7.36,7.36,0,0,0,54,43a8,8,0,0,0,1.5-2.91l-2.93.06a8.32,8.32,0,0,1-2.07,2.25,1.43,1.43,0,0,0-.49-.45,6.45,6.45,0,0,0,2.18-2.38,4.11,4.11,0,0,0,.55-1.26Z"/><path class="cls-3" d="M63.36,45.8a4.81,4.81,0,0,0,0-.73V42.62a.31.31,0,0,1,0-.1,11.51,11.51,0,0,1-2.94,1.27,1.66,1.66,0,0,0-.32-.57,11.71,11.71,0,0,0,2.51-.9,9.79,9.79,0,0,0,2.92-2.14l-.5,0-3.31,0a6.51,6.51,0,0,0-.85,0V39.6a4,4,0,0,0,.85.06h1.61v-.78a4.58,4.58,0,0,0,0-.59h.69a3.15,3.15,0,0,0,0,.58v.79h1.82a.82.82,0,0,0,.38-.06l.32.39a1.66,1.66,0,0,0-.23.23,9.61,9.61,0,0,1-2,1.8,19,19,0,0,1,3.17,1.51l-.35.57a19,19,0,0,0-2.87-1.52L64,42.45a1.78,1.78,0,0,1,0,.44v2.16a5.11,5.11,0,0,0,0,.75Z"/><path class="cls-3" d="M74.27,38.46a2.73,2.73,0,0,0-.19.35,6.8,6.8,0,0,1-.4.78,23.1,23.1,0,0,1,2.63-.07.88.88,0,0,0,.45-.06l.37.36c-.08.11-.08.11-.17.43a9.26,9.26,0,0,1-1.74,3.26,8.47,8.47,0,0,1-3,2.17,1.28,1.28,0,0,0-.44-.51A7.33,7.33,0,0,0,74.83,43a7.8,7.8,0,0,0,1.49-2.91l-2.92.06a8.36,8.36,0,0,1-2.08,2.25,1.34,1.34,0,0,0-.49-.45A6.29,6.29,0,0,0,73,39.54a3.87,3.87,0,0,0,.55-1.26Z"/><path class="cls-3" d="M87.62,45.43a15.55,15.55,0,0,0-2.78-2.68,9.43,9.43,0,0,1-1.65,1.55,10.41,10.41,0,0,1-1.71,1,2.1,2.1,0,0,0-.42-.57,6.86,6.86,0,0,0,1.76-1,9.33,9.33,0,0,0,3.1-3.91c0-.06,0-.07,0-.11a.11.11,0,0,0,0-.06h-.21l-2.9,0a6.42,6.42,0,0,0-.89.07l0-.7a4.66,4.66,0,0,0,.69,0h.22l3.1,0a1.72,1.72,0,0,0,.56-.07l.36.37a1.49,1.49,0,0,0-.24.43,11.13,11.13,0,0,1-1.43,2.43,22.19,22.19,0,0,1,2.89,2.6Z"/><path class="cls-3" d="M93.29,45.62a6.18,6.18,0,0,0,0-.91V39.32a5.87,5.87,0,0,0,0-.89H94a6.22,6.22,0,0,0,0,.9V41a21.37,21.37,0,0,1,3.86,1.83l-.37.64a18.25,18.25,0,0,0-3.24-1.72,1,1,0,0,1-.27-.14h0a3.78,3.78,0,0,1,0,.51V44.7a6.65,6.65,0,0,0,0,.92Z"/><path class="cls-3" d="M102.94,44a4.11,4.11,0,0,1-1,1.86l-.46-.29a3.64,3.64,0,0,0,.93-1.74Zm6.44-1.61h-6.13V43h5.58l.32,0a1.22,1.22,0,0,1,0,.17c-.12,1.61-.24,2.23-.47,2.45s-.38.22-.81.22l-.78,0a1.22,1.22,0,0,0-.15-.49c.43,0,.84,0,1,0s.23,0,.3-.08.26-.64.35-1.87h-5.86V38.61h2.12a7.3,7.3,0,0,0,.32-.75l.75.17a.18.18,0,0,1-.17.08c-.08.15-.18.33-.29.5h2.73v2.71h-4.9v.62h6.13Zm-1.79-3.32h-4.34v.67h4.34Zm-4.34,1.81h4.34v-.73h-4.34Zm.58,4.74a5.61,5.61,0,0,0-.2-1.56l.49-.07a5.6,5.6,0,0,1,.23,1.55Zm1.65-.2a5.15,5.15,0,0,0-.43-1.4l.46-.11a5.58,5.58,0,0,1,.47,1.37Zm1.37-1.68a4.89,4.89,0,0,1,.68,1.11l-.44.2a4.63,4.63,0,0,0-.65-1.14Z"/><path class="cls-3" d="M116.07,38c0,.07-.07.1-.17.11a10.82,10.82,0,0,1,1.49,1.35l-.41.37a11.06,11.06,0,0,0-1.33-1.29,10.76,10.76,0,0,1-1.25,1.66h1v-.83l.66,0c0,.06-.05.1-.16.11v.68H117V43H114.8v1.69l1.38-.32c-.21-.28-.44-.56-.66-.8l.44-.24a8.33,8.33,0,0,1,1.41,1.91l-.48.28a5.14,5.14,0,0,0-.41-.73c-.9.25-1.82.49-2.42.63a.16.16,0,0,1-.1.13l-.28-.62.6-.13V40.33l-.26.25a1.88,1.88,0,0,0-.42-.38,7.65,7.65,0,0,0,1.78-2.3Zm.38,2.65H114.8v.71h1.65Zm-1.65,1.9h1.65v-.74H114.8Zm6.55-4.21v6.78c0,.76-.41.8-1.87.78a2.25,2.25,0,0,0-.24-.56h.85c.65,0,.7,0,.7-.23V38.87H117.4v-.53Zm-1.16,1.35v.5h-2.75v-.5Zm-.26,4.05H118.2v.69h-.49V41h2.22Zm-.5-2.24H118.2v1.74h1.23Z"/></g></g></svg>