<svg xmlns="http://www.w3.org/2000/svg" viewBox="0 0 166.08 60.98"><defs><style>.cls-1{fill:#333;}</style></defs><g id="レイヤー_2" data-name="レイヤー 2"><g id="レイヤー_1-2" data-name="レイヤー 1"><path class="cls-1" d="M12.05,35.76a12,12,0,0,0,.06,1.46h-.68a9.31,9.31,0,0,0-1-1.46l-9-11.55c-.3-.37-.57-.74-.89-1.11V35.76a12,12,0,0,0,.06,1.46H0a12,12,0,0,0,.06-1.46V24.21A11.72,11.72,0,0,0,0,22.76H.94c.32.48.68,1,1.07,1.45l9.55,12.25V24.21a10.06,10.06,0,0,0-.07-1.45h.62a11.72,11.72,0,0,0-.06,1.45Z"/><path class="cls-1" d="M42.78,35.76c.19.48.43,1,.68,1.46h-.68a10.13,10.13,0,0,0-.51-1.46L40.5,31.45H33.66l-1.77,4.31a11.57,11.57,0,0,0-.52,1.46h-.68a14.6,14.6,0,0,0,.68-1.46l4.77-11.55a14.3,14.3,0,0,0,.55-1.45h.77A14.4,14.4,0,0,0,38,24.21ZM40.3,31l-3.22-7.82L33.83,31Z"/><path class="cls-1" d="M74.24,34.87a13.81,13.81,0,0,0,.07,1.45,16.91,16.91,0,0,1-5.92,1.09c-4.51,0-7.2-2.81-7.2-7.51,0-4.37,2.82-7.34,7-7.34a7.49,7.49,0,0,1,4.3,1.11,7.81,7.81,0,0,1,1.69,1.53l-.5.35A5.29,5.29,0,0,0,72.19,24a6.79,6.79,0,0,0-4-1.07c-3.88,0-6.47,2.74-6.47,6.93,0,4.5,2.44,7.1,6.71,7.1a17.79,17.79,0,0,0,5.36-.93V31H70.23c-.54,0-1,0-1.63.05v-.52c.66,0,1.09.06,1.63.06h2.45c.54,0,1,0,1.63-.06,0,.64-.07,1-.07,1.48Z"/><path class="cls-1" d="M108,29.92c0,4.6-2.76,7.49-7.14,7.49s-7.13-2.81-7.13-7.36,2.75-7.51,7.13-7.51S108,25.36,108,29.92Zm-.49,0c0-4.33-2.48-7-6.65-7s-6.64,2.68-6.64,7.1,2.48,7,6.64,7S107.52,34.34,107.52,29.92Z"/><path class="cls-1" d="M131.8,31.39v4.37a12,12,0,0,0,.06,1.46h-.62a10.27,10.27,0,0,0,.07-1.46V31.35l-4.75-7.14a16.33,16.33,0,0,0-1-1.45h.72c.26.48.58,1,.9,1.45l4.42,6.7,4.15-6.7c.3-.48.6-1,.85-1.45h.73a14.1,14.1,0,0,0-1,1.45Z"/><path class="cls-1" d="M165.29,35.76a14.6,14.6,0,0,0,.68,1.46h-.68a10.13,10.13,0,0,0-.51-1.46L163,31.45h-6.83l-1.78,4.31a13.31,13.31,0,0,0-.51,1.46h-.68c.25-.49.49-1,.68-1.46l4.76-11.55a12.34,12.34,0,0,0,.56-1.45H160a14.3,14.3,0,0,0,.55,1.45ZM162.81,31l-3.23-7.82L156.34,31Z"/><path class="cls-1" d="M8.31,14.27a14.26,14.26,0,0,0,1.6-.06v.52a14.26,14.26,0,0,0-1.6-.06H1.65A15.07,15.07,0,0,0,0,14.73a11.72,11.72,0,0,0,.06-1.45V1.71A11.88,11.88,0,0,0,0,.25H.62A11.88,11.88,0,0,0,.56,1.71V14.27Z"/><path class="cls-1" d="M15.12.21a11.88,11.88,0,0,0-.06,1.46V13.22a11.72,11.72,0,0,0,.06,1.45H14.5a10.06,10.06,0,0,0,.07-1.45V1.67A10.2,10.2,0,0,0,14.5.21Z"/><path class="cls-1" d="M21.87.62V7.49H28a14.26,14.26,0,0,0,1.6-.06V8A14.26,14.26,0,0,0,28,7.9H21.87v5.32a11.72,11.72,0,0,0,.06,1.45h-.62a10.06,10.06,0,0,0,.07-1.45V1.61A10.06,10.06,0,0,0,21.31.16c.54,0,1.12,0,1.65,0h5.72c.54,0,1.07,0,1.61,0V.68A14.44,14.44,0,0,0,28.68.62Z"/><path class="cls-1" d="M42.8,14.27a14.17,14.17,0,0,0,1.6-.06v.52a14.17,14.17,0,0,0-1.6-.06H36.73a15,15,0,0,0-1.64.06,11.72,11.72,0,0,0,.06-1.45V1.63A12.21,12.21,0,0,0,35.09.16c.53,0,1.11,0,1.64,0h5.75c.54,0,1.07,0,1.6,0V.68a14.17,14.17,0,0,0-1.6-.06H35.65V7.24h6.1a14.44,14.44,0,0,0,1.61-.06v.53a14.44,14.44,0,0,0-1.61-.06h-6.1v6.62Z"/><path class="cls-1" d="M67.19.21a14.11,14.11,0,0,0-.06,1.48V9.57c0,3.22-2.31,5.22-6,5.22S55,12.77,55,9.57V1.69A11.47,11.47,0,0,0,55,.21h.62a14.11,14.11,0,0,0-.06,1.48V9.55c0,3,2.11,4.83,5.57,4.83s5.54-1.82,5.54-4.83V1.69A11.47,11.47,0,0,0,66.57.21Z"/><path class="cls-1" d="M78.23.21C81.16.21,83,1.71,83,4.1c0,2.56-2,4.13-5.41,4.13H73.73v5a11.72,11.72,0,0,0,.06,1.45h-.62a11.72,11.72,0,0,0,.06-1.45V1.61A13.35,13.35,0,0,0,73.17.16c.36,0,.7,0,1.3,0Zm-.64,7.61c3.12,0,4.91-1.32,4.91-3.71,0-2.17-1.68-3.49-4.37-3.49h-4.4v7.2Z"/><path class="cls-1" d="M92.9,11.92A6.29,6.29,0,0,0,94,13.18a6.24,6.24,0,0,0,3.89,1.24c2.67,0,4.36-1.34,4.36-3.43,0-1.79-1.16-2.74-4.27-3.54-3.32-.83-4.58-1.9-4.58-3.82,0-2.15,1.8-3.57,4.6-3.57a6.07,6.07,0,0,1,2.54.52,7.54,7.54,0,0,1,1.79,1.19l-.42.38A5.09,5.09,0,0,0,100.27.93,5.21,5.21,0,0,0,98,.45c-2.52,0-4.11,1.22-4.11,3.18,0,1.77,1,2.56,4.41,3.47C101.51,8,102.71,9,102.71,11c0,2.31-1.95,3.84-4.87,3.84a6.49,6.49,0,0,1-4.17-1.34,5.86,5.86,0,0,1-1.17-1.26Z"/><path class="cls-1" d="M117.79,13.22a13.5,13.5,0,0,0,.68,1.45h-.68a9.35,9.35,0,0,0-.52-1.45L115.5,8.91h-6.83l-1.78,4.31a13.92,13.92,0,0,0-.51,1.45h-.68a15.75,15.75,0,0,0,.68-1.45l4.76-11.55A12.48,12.48,0,0,0,111.7.21h.77A14.46,14.46,0,0,0,113,1.67ZM115.31,8.5,112.08.68,108.84,8.5Z"/><path class="cls-1" d="M130.73,14.27a14.26,14.26,0,0,0,1.6-.06v.52a14.26,14.26,0,0,0-1.6-.06h-6.67a15,15,0,0,0-1.64.06,11.72,11.72,0,0,0,.06-1.45V1.71a11.88,11.88,0,0,0-.06-1.46H123A10.2,10.2,0,0,0,123,1.71V14.27Z"/><path class="cls-1" d="M148.84,7.38c0,4.6-2.75,7.49-7.13,7.49s-7.14-2.82-7.14-7.36S137.33,0,141.71,0,148.84,2.81,148.84,7.38Zm-.49,0c0-4.33-2.48-7-6.64-7s-6.65,2.68-6.65,7.1,2.48,7,6.65,7S148.35,11.8,148.35,7.38Z"/><path class="cls-1" d="M166,13.22a10.06,10.06,0,0,0,.07,1.45h-.69a9,9,0,0,0-1-1.45l-9-11.55c-.3-.37-.58-.74-.9-1.11V13.22a11.72,11.72,0,0,0,.06,1.45H154a10.06,10.06,0,0,0,.07-1.45V1.67A10.2,10.2,0,0,0,154,.21h.94c.32.49.69,1,1.07,1.46l9.55,12.25V1.67a11.88,11.88,0,0,0-.06-1.46h.62A10.2,10.2,0,0,0,166,1.67Z"/><path class="cls-1" d="M12.71,53.25v7.69h-.45V52.8h2.91v.45Z"/><path class="cls-1" d="M25.75,56.46A6.53,6.53,0,0,1,21,60.76l-.37-.41a5.84,5.84,0,0,0,4.71-4.22H19.14v-.45H25a2.5,2.5,0,0,0,.72-.09l.33.28A3.66,3.66,0,0,0,25.75,56.46ZM20.13,54v-.45h4.94V54Z"/><path class="cls-1" d="M36.43,53.52a.37.37,0,0,1-.15,0,13.8,13.8,0,0,1-2.34,2.16v5h-.49V56A15.46,15.46,0,0,1,30,57.64c0-.06-.26-.32-.34-.41a12.63,12.63,0,0,0,3.59-1.67A9.65,9.65,0,0,0,36,53l.51.34a.17.17,0,0,1,.07.12S36.53,53.52,36.43,53.52Z"/><path class="cls-1" d="M47,55.28a8.49,8.49,0,0,1-5,5.29,1,1,0,0,0-.36-.39c3-1.19,4.3-3,5.24-6h-6v-.45h5.69a1.23,1.23,0,0,0,.6-.1l.36.35C47.38,54.14,47,55.09,47,55.28Z"/><path class="cls-1" d="M58.57,54.68a9.48,9.48,0,0,1-2.83,2.72,1.64,1.64,0,0,0-.35-.37,7.24,7.24,0,0,0,2.68-2.51H51.52v-.45h6.53a1.49,1.49,0,0,0,.47-.07l.34.3A1.82,1.82,0,0,0,58.57,54.68Zm-3.28,1.08c-.1,2-.4,3.63-2.79,5a2.7,2.7,0,0,0-.41-.33c2.19-1.1,2.78-2.72,2.67-5l.53.07c.18,0,.18.08.18.11S55.42,55.7,55.29,55.76Z"/><path class="cls-1" d="M63.57,57.32a6.67,6.67,0,0,0-.87-1.84l.38-.18a7.78,7.78,0,0,1,.9,1.85A2.09,2.09,0,0,0,63.57,57.32Zm4.93-2a6.57,6.57,0,0,1-4.43,5.1l-.27-.38a6.28,6.28,0,0,0,2.85-1.81A6.43,6.43,0,0,0,68.11,55l.41.13c.07,0,.16.05.16.14S68.55,55.33,68.5,55.34Zm-3,1.52A6.59,6.59,0,0,0,64.67,55l.4-.16a7.4,7.4,0,0,1,.85,1.86A1.42,1.42,0,0,0,65.5,56.86Z"/><path class="cls-1" d="M79.32,55.17a8.5,8.5,0,0,1-5.07,5.51,1.66,1.66,0,0,0-.36-.39A7.89,7.89,0,0,0,79,54.66H73v-.45H78.6a1.15,1.15,0,0,0,.63-.1l.39.35A3.34,3.34,0,0,0,79.32,55.17Zm.47-1.08a.76.76,0,1,1,.76-.76A.76.76,0,0,1,79.79,54.09Zm0-1.23a.48.48,0,0,0-.47.47.47.47,0,0,0,.47.47.47.47,0,1,0,0-.94Z"/><path class="cls-1" d="M89.08,55.5v.37c0,1.63-.09,3.63-3.15,4.79a1.21,1.21,0,0,0-.34-.41c3-1,3-2.74,3-4.75H85.85v2.43h-.48V55.5H83.56v-.45h1.81v-1.9l.43,0c.12,0,.18,0,.18.11s0,.06-.13.13v1.63h2.74v-2l.49,0c.07,0,.15,0,.15.08s-.1.13-.15.15v1.68h1.8v.45Z"/><path class="cls-1" d="M95.66,59.5v.56h-.49V54.18H101v5.88h-.49V59.5Zm4.85-.45V54.63H95.66v4.42Z"/><path class="cls-1" d="M106.08,60.24c0,.14,0,.2-.1.2s-.11-.06-.14-.1l-.33-.5a10.62,10.62,0,0,0,4.23-2A9.86,9.86,0,0,0,112.21,55l.3.46A11.4,11.4,0,0,1,106.08,60.24Zm2-4.67a9.9,9.9,0,0,0-2.58-1.76l.27-.39a12.25,12.25,0,0,1,2.62,1.72A1.8,1.8,0,0,0,108.1,55.57Z"/><path class="cls-1" d="M122.92,60.87v-.59h-3.77v.61h-.48V58a13.32,13.32,0,0,1-2.51,1.21,1.08,1.08,0,0,0-.35-.45,10.58,10.58,0,0,0,3.75-2,9.36,9.36,0,0,0-1.51-1.42,11.76,11.76,0,0,1-1.48,1.26,1.37,1.37,0,0,0-.39-.36,8.49,8.49,0,0,0,3.13-3.47l.44.18c.09,0,.15.07.15.13s-.11.09-.26.11-.16.31-.35.61h2.5l.41.28a9.69,9.69,0,0,1-2.51,3.18h3.72v3.6ZM119,54.26c-.26.35-.48.59-.62.75a11.47,11.47,0,0,1,1.54,1.45,8.69,8.69,0,0,0,1.68-2.2Zm3.94,3.46h-3.77v2.11h3.77Z"/><path class="cls-1" d="M130.93,55.09v1.85h2.36v3.92h-.48v-.68h-4.35v.68H128V56.94h2.46V55.09h-3.8v-.45h3.8V52.85l.46,0c.11,0,.25,0,.25.13s-.07.1-.22.17v1.46h3.7v.45Zm1.88,2.3h-4.35v2.33h4.35Z"/><path class="cls-1" d="M139.09,55c0,2.8-.09,4.38-.9,5.88a1.88,1.88,0,0,0-.48-.22c.75-1.26.93-2.28.93-5.54v-1.9h6.51V55Zm5.6-1.36h-5.6v.94h5.6Zm-1.19,2.5A11.88,11.88,0,0,1,145.24,58a.9.9,0,0,0-.37.32c-.28-.36-.37-.46-.57-.7,0,0-1.08.11-1.77.15.08,0,.14.05.14.11s-.19.12-.24.13v.68h2.27v.42h-2.27v1.06h3.1v.42h-6.3v-.42H142V59.06h-2.29v-.42H142v-.88c-.69,0-1.37.07-2.07.08,0,.1-.07.2-.16.2s-.1,0-.12-.15l-.11-.51h1.07a7.2,7.2,0,0,0,.72-1.2h-2v-.42h6.25v.42Zm-.33.28.31-.28h-1.9l.13,0c.12,0,.19.07.19.13s-.07.09-.27.12a9.66,9.66,0,0,1-.57.91c1,0,1.94-.08,2.91-.16C143.59,56.83,143.39,56.65,143.17,56.46Z"/><path class="cls-1" d="M149.14,61v-.45h2.46V52.84h.45V61Z"/></g></g></svg>