<svg xmlns="http://www.w3.org/2000/svg" viewBox="0 0 37.03 31.11"><defs><style>.cls-1{fill:#fff;}</style></defs><g id="レイヤー_2" data-name="レイヤー 2"><g id="レイヤー_1-2" data-name="レイヤー 1"><circle class="cls-1" cx="12.92" cy="3.28" r="3.28"/><path class="cls-1" d="M12.92,7.86h0a3.88,3.88,0,0,1,3.88,3.88V13a0,0,0,0,1,0,0H9a0,0,0,0,1,0,0V11.74A3.88,3.88,0,0,1,12.92,7.86Z"/><circle class="cls-1" cx="24.47" cy="3.28" r="3.28"/><path class="cls-1" d="M24.47,7.86h0a3.88,3.88,0,0,1,3.88,3.88V13a0,0,0,0,1,0,0H20.59a0,0,0,0,1,0,0V11.74a3.88,3.88,0,0,1,3.88-3.88Z"/><path class="cls-1" d="M37,30.74,31.39,14.58a.28.28,0,0,0-.27-.19H5.91a.27.27,0,0,0-.26.19L0,30.74a.27.27,0,0,0,.26.37H14.64V30a3.88,3.88,0,0,1,7.76,0v1.14H36.75A.28.28,0,0,0,37,30.74Zm-18.5-5.95a3.28,3.28,0,1,1,3.28-3.28A3.28,3.28,0,0,1,18.52,24.79Z"/></g></g></svg>