<svg xmlns="http://www.w3.org/2000/svg" viewBox="0 0 249.58 96.13"><defs><style>.cls-1,.cls-2,.cls-3{fill:none;stroke:#4c5d76;}.cls-2,.cls-3{stroke-linecap:round;stroke-linejoin:round;}.cls-2{stroke-width:1.5px;}.cls-3{stroke-width:2px;}.cls-4{fill:#4c5d76;}</style></defs><g id="レイヤー_2" data-name="レイヤー 2"><g id="レイヤー_1-2" data-name="レイヤー 1"><path class="cls-1" d="M27.38,55.37H10.1V66.1H26.66v8.07H10.1v13.1H27.38v8.07H.74v-48H27.38Z"/><path class="cls-1" d="M41.34,47.31,54.16,79.57,67,47.31H77.2l-20.3,48H51.28l-20.16-48Z"/><path class="cls-1" d="M109.46,55.37H92.18V66.1h16.56v8.07H92.18v13.1h17.28v8.07H82.81v-48h26.65Z"/><path class="cls-1" d="M118.53,95.34v-48H125l29.23,32v-32h9.36v48h-6.48L127.89,63.22V95.34Z"/><path class="cls-1" d="M189.66,55.37v40H180.3v-40H169.5V47.31h31v8.06Z"/><path class="cls-2" d="M10.82,74.17c.23.39,13.94-8.09,14-8.06s-7.69,7.44-7.34,8c0,0,8.87-5.88,9.2-5.31l-3.19,5.3a30.89,30.89,0,0,0,3.2-1.85"/><path class="cls-2" d="M10.82,55.37c.38.67,13.77-8.39,14-8.06s-7.77,8-7.77,8l10.35-6c.24.43-4.48,6-4.48,6,.16.28,4.41-2.72,4.49-2.59"/><path class="cls-2" d="M.77,47.77s.73-.47.75-.43L.77,51.09c0,.1,6.34-4.05,6.51-3.76s-6.56,7-6.51,7.06L13,47.33S.43,57.76.77,58.35c0,0,18.55-12,19.1-11C20.55,48.5.13,60.14.77,61.25c.13.22,9-6,9.3-5.37S.77,64.61.77,64.61l9.31-5.38c.38.66-9.31,8.57-9.31,8.57s9.23-5.53,9.32-5.38L.77,71.74l9.71-5.61S.3,74.88.77,75.69C1,76,17,65.59,17.35,66.12c0,0-17.1,11.78-16.58,12.68.88,1.52,21.26-13.91,22-12.69.39.67-22,16.13-22,16.13l9.3-5.37c.36.62-9.3,9-9.3,9l9.31-5.38c.26.45-9.31,9-9.31,9,.19.33,9.28-5.45,9.32-5.39S.35,92.28.77,93c.08.14,9.85-5.69,9.85-5.69.09.16-7.44,8-7.44,8,.44.75,13.54-8.74,13.94-8s-8.76,7.5-8.45,8c0,0,13.75-8.38,13.94-8s-8.72,8-8.71,8c.1.17,13.45-7.76,13.45-7.76.09.17-8.37,7.76-8.37,7.76.11.19,8.38-4.84,8.38-4.84.11.19-2.81,4.52-2.63,4.83a27.74,27.74,0,0,1,2.64-1.52"/><path class="cls-2" d="M66.75,47.9c0,.05,1-.58,1-.56a56.52,56.52,0,0,1-2.81,5.19l9-5.19c.48.83-10.72,9.56-10.72,9.56.47.82,12.92-8,13.14-7.58L61.62,60.84l13-7.51c.65,1.14-15.32,11.6-14.91,12.31.27.46,12.54-7.93,12.84-7.42.66,1.14-15.51,11.45-14.88,12.54l12.67-7.31c.17.29-14.4,11.69-14.4,11.69.14.24,12.52-7.23,12.52-7.23.38.67-14.09,11.18-14.09,11.18.36.61,12.39-7.15,12.39-7.15"/><path class="cls-2" d="M31.31,47.69s.59-.38.61-.35l.51,3c0,.08,5.12-3.26,5.25-3S33.51,53,33.54,53L41.7,48.3s-7,7.53-6.82,7.9c0,0,7.87-5.08,8.1-4.68s-7.39,6.54-7.12,7c.11.2,7.76-5.17,8.06-4.65S37,61.24,37,61.24l8-4.63c.3.52-6.93,7.2-6.93,7.2s7.88-4.73,8-4.6L39.41,67l7.9-4.57s-6.92,7.15-6.57,7.75c.09.16,7.71-4.78,7.85-4.53,0,0-7,6.61-6.8,7s7.55-4.94,7.8-4.5c.14.24-6.63,7.27-6.63,7.27L50.71,71c.27.47-6.54,7.37-6.54,7.37l7.7-4.44c.2.34-6.48,7.35-6.48,7.35.16.28,7.62-4.46,7.65-4.41s-6.76,6.72-6.45,7.26c.16.27,19.9-11.49,19.9-11.49.2.34-18.64,14.49-18.64,14.49.52.91,16.08-10.37,16.55-9.55.65,1.12-16,11.19-15.48,12.1,0,0,13.53-8.25,13.71-7.92S49.92,92,49.94,92.07s11-6.36,11-6.36c.11.19-10,8.71-10,8.71.11.19,8.39-4.84,8.39-4.84.14.25-4.43,5.33-4.2,5.73A26,26,0,0,1,57.47,94"/><path class="cls-2" d="M92.9,74.17c.23.39,13.94-8.09,14-8.06s-7.69,7.44-7.34,8c0,0,8.87-5.88,9.2-5.31l-3.2,5.3a30,30,0,0,0,3.21-1.85"/><path class="cls-2" d="M92.9,55.37c.38.67,13.77-8.39,14-8.06s-7.77,8-7.77,8l10.34-6c.25.43-4.48,6-4.48,6,.16.28,4.42-2.72,4.5-2.59"/><path class="cls-2" d="M82.84,47.77s.74-.47.76-.43l-.76,3.75c.06.1,6.35-4.05,6.52-3.76s-6.56,7-6.52,7.06l12.23-7.06s-12.56,10.43-12.23,11c0,0,18.55-12,19.11-11,.68,1.18-19.75,12.82-19.11,13.93.13.22,9-6,9.31-5.37s-9.31,8.73-9.31,8.73l9.32-5.38c.38.66-9.32,8.57-9.32,8.57s9.24-5.53,9.32-5.38l-9.32,9.32,9.71-5.61s-10.17,8.75-9.71,9.56c.2.34,16.28-10.1,16.59-9.57,0,0-17.11,11.78-16.59,12.68.88,1.52,21.27-13.91,22-12.69.39.67-22,16.13-22,16.13l9.31-5.37c.36.62-9.31,9-9.31,9l9.32-5.38c.26.45-9.32,9-9.32,9,.2.33,9.29-5.45,9.33-5.39S82.43,92.28,82.84,93c.08.14,9.86-5.69,9.86-5.69.09.16-7.44,8-7.44,8,.44.76,13.54-8.74,13.93-8s-8.76,7.5-8.44,8c0,0,13.74-8.38,13.94-8s-8.72,8-8.71,8c.1.17,13.45-7.76,13.45-7.76.09.17-8.38,7.76-8.38,7.76.11.19,8.39-4.84,8.39-4.84.11.19-2.81,4.52-2.63,4.83a28.77,28.77,0,0,1,2.64-1.53"/><path class="cls-2" d="M154.24,47.77s.75-.43.75-.43a36.37,36.37,0,0,0-.75,4.24s7.13-4.72,7.39-4.26L154.25,55c.21.37,9.32-5.39,9.32-5.39s-9.76,7.89-9.32,8.65c.2.34,9.32-5.39,9.32-5.39s-9.51,8.39-9.32,8.73,9.24-5.53,9.33-5.38-9.7,8.11-9.32,8.77c0,0,9.25-5.51,9.32-5.39l-9.32,8.94c.29.51,9.07-5.82,9.32-5.38.1.17-9.48,8.42-9.32,8.7l9.32-5.38c0,.07-9.66,8.07-9.31,8.67l9.31-5.38c.28.48-9.31,8.45-9.31,8.45s9.23-5.53,9.32-5.38"/><path class="cls-2" d="M128.11,63.43c.21.36,7.47-4.55,7.57-4.37s-5.44,6.71-5.44,6.71l7.57-4.38c.29.5-5.55,6.59-5.55,6.59.27.47,7.45-4.59,7.57-4.38L134.07,70l7.57-4.38c.3.51-5.55,6.48-5.37,6.8s7.41-4.68,7.59-4.38c.29.51-5.51,6.48-5.23,7l7.59-4.38c.08.14-5.58,6.59-5.58,6.59.09.15,7.59-4.38,7.59-4.38.19.32-5.76,6.39-5.76,6.39.21.37,7.59-4.39,7.59-4.39s-6,5.93-5.77,6.38c0,.06,7.59-4.38,7.59-4.38.28.49-5.44,6.72-5.41,6.79s7.44-4.66,7.6-4.39l-5.58,6.61c.49.84,14.9-9.06,15.1-8.72s-13,11.05-13,11.05c.44.76,12.54-8.23,13-7.49l-11.23,9.4c.27.48,11.23-6.49,11.23-6.49s-9.74,7.88-9.34,8.57c.22.39,9.35-5.4,9.35-5.4l-7.13,7.84s6.85-4.6,7.13-4.11c0,0-2.09,4.7-2,4.84a13.33,13.33,0,0,0,2-1.16"/><path class="cls-2" d="M118.56,47.77s.73-.47.75-.43l-.75,3.75c0,.1,6.29-4,6.45-3.73s-6.5,7-6.45,7L127,49.52s-8.67,8.39-8.42,8.83c0,0,10.48-6.78,10.79-6.24.41.71-11.18,8.47-10.79,9.14.17.3,12.05-8,12.52-7.24s-12.52,10.6-12.52,10.6l14.53-8.39c.56,1-14.53,11.58-14.53,11.58S134.84,58,135,58.3L118.56,71.74l9.3-5.37s-9.76,8.54-9.3,9.32c.1.19,9.13-5.67,9.3-5.37,0,0-9.62,7.93-9.3,8.48s9-5.9,9.31-5.38c.18.32-9.31,8.82-9.31,8.82l9.31-5.38c.36.62-9.31,9-9.31,9l9.31-5.38c.26.45-9.31,9-9.31,9,.19.33,9.28-5.45,9.32-5.38s-9.74,8.2-9.32,8.91c.07.13,9.32-5.38,9.32-5.38.09.15-6.9,7.72-6.9,7.72.22.38,6.7-4.33,6.9-4s-1.51,3.77-1.39,4c0,0,1.38-.84,1.4-.8"/><path class="cls-2" d="M190.39,55.37c.27.48,9.91-6,10.05-5.8s-3.85,5.79-3.85,5.79l3.86-2.23"/><path class="cls-2" d="M169.53,47.77s.73-.47.75-.43l-.75,3.75c.06.1,6.35-4,6.51-3.76s-6.55,7-6.51,7.06l12.23-7.06s-7.28,7.65-7.06,8c0,0,13.53-8.74,13.93-8s-9.2,7.47-8.88,8c.19.33,13.39-8.93,13.91-8S180.3,58.39,180.3,58.39l19.19-11.08c.72,1.25-19.18,14.27-19.18,14.27s9.24-5.54,9.32-5.39l-9.32,9.33,9.33-5.39s-9.78,8.55-9.33,9.34c.11.19,9.16-5.68,9.33-5.39,0,0-9.64,8-9.33,8.49s9-5.9,9.33-5.38c.18.31-9.32,8.82-9.32,8.82l9.32-5.38c.36.62-9.32,9-9.32,9l9.33-5.39c.26.46-9.33,9-9.33,9,.2.33,9.29-5.45,9.33-5.39s-9.74,8.21-9.32,8.92c.07.13,9.32-5.38,9.32-5.38.11.19-9.32,9.12-9.32,9.12.29.51,9.06-5.85,9.32-5.39.42.72-9.66,8-9.32,8.55,0,0,9.2-5.61,9.33-5.39s-7,7-7,7.06,7-4,7-4-1.91,4-1.91,4,1.91-1.1,1.91-1.1"/><line class="cls-3" x1="229.14" y1="10.89" x2="221.34" y2="20.64"/><line class="cls-3" x1="199.36" y1="1" x2="199.65" y2="13.49"/><line class="cls-3" x1="170.19" y1="12.57" x2="178.43" y2="21.95"/><line class="cls-3" x1="241.04" y1="68.66" x2="230.08" y2="62.67"/><line class="cls-3" x1="245.6" y1="37.61" x2="233.36" y2="40.06"/><line class="cls-3" x1="214.09" y1="7.5" x2="210.94" y2="16.83"/><line class="cls-3" x1="184.53" y1="7.93" x2="188.11" y2="17.1"/><line class="cls-3" x1="243.93" y1="53.53" x2="234.2" y2="52.04"/><line class="cls-3" x1="237.39" y1="24.78" x2="228.98" y2="29.9"/><circle class="cls-4" cx="215.45" cy="3.52" r="1.11"/><circle class="cls-4" cx="240.99" cy="22.94" r="1.11"/><circle class="cls-4" cx="248.48" cy="54.24" r="1.11"/><circle class="cls-4" cx="182.59" cy="4.53" r="1.11"/></g></g></svg>