<svg xmlns="http://www.w3.org/2000/svg" viewBox="0 0 847.08 70.51"><defs><style>.cls-1,.cls-2{fill:none;stroke:#4c5d76;}.cls-2{stroke-linecap:round;stroke-linejoin:round;stroke-width:1.5px;}</style></defs><g id="レイヤー_2" data-name="レイヤー 2"><g id="レイヤー_1-2" data-name="レイヤー 1"><path class="cls-1" d="M24.47,53.27H17.41L.7,5.24h9.94L21.37,37.93,33.11,4.81h5.18L49.38,37.93,60.9,5.24h9.94l-17.79,48H46L35.48,22.81Z"/><path class="cls-1" d="M75.15.78h8.79V26.12a11.45,11.45,0,0,1,9.65-5c2.73,0,6.76.8,9.21,3.82,2.16,2.66,2.45,5.76,2.45,8.78V53.27H96.47v-17c0-1.73-.08-4.47-1.66-6.12a5.63,5.63,0,0,0-4.1-1.59,6,6,0,0,0-5.41,2.74,10.76,10.76,0,0,0-1.36,6.05V53.27H75.15Z"/><path class="cls-1" d="M137.51,22.09h8.78V53.27h-8.78v-4a11.21,11.21,0,0,1-9.58,5c-9.58,0-15.91-7.49-15.91-16.64s6.26-16.56,15.48-16.56a11.33,11.33,0,0,1,10,5ZM121.09,37.64a8.64,8.64,0,1,0,17.28,0,8.64,8.64,0,1,0-17.28,0Z"/><path class="cls-1" d="M163.42,29.58V53.27h-8.78V29.58h-3.46V22.09h3.46V11.43h8.78V22.09h6.05v7.49Z"/><path class="cls-1" d="M195.25,3.66A5.26,5.26,0,1,1,190,8.91,5.28,5.28,0,0,1,195.25,3.66Zm4.39,18.43V53.27h-8.79V22.09Z"/><path class="cls-1" d="M225,29.51a7.25,7.25,0,0,0-5.11-2.09c-2.09,0-3.38,1-3.38,2.52,0,.79.36,2,2.81,2.81l2.08.65c2.45.79,6.12,2,7.92,4.46a9,9,0,0,1,1.59,5.19A10.39,10.39,0,0,1,227.43,51a13.1,13.1,0,0,1-9.36,3.31A15.77,15.77,0,0,1,206,49.09l4.61-5.32a9.69,9.69,0,0,0,6.92,3.6c2.44,0,4.32-1.23,4.32-3.39,0-1.94-1.59-2.73-2.74-3.17l-2-.72a16.81,16.81,0,0,1-6.69-3.74,8.37,8.37,0,0,1-2.38-6,9.25,9.25,0,0,1,3.24-7c2.45-1.95,5.62-2.24,8.14-2.24a15.52,15.52,0,0,1,9.93,3.32Z"/><path class="cls-1" d="M277.33,31.6a10.14,10.14,0,0,0-7.2-2.74c-5.84,0-8.79,4.25-8.79,8.78a8.68,8.68,0,0,0,9.07,8.86,10.18,10.18,0,0,0,6.92-2.73v8.56a17.75,17.75,0,0,1-8.07,2,17.57,17.57,0,0,1-12-4.54,16,16,0,0,1-5-12A16.08,16.08,0,0,1,268.9,21.08,18.55,18.55,0,0,1,277.33,23Z"/><path class="cls-1" d="M312.82,25.48a16.79,16.79,0,0,1,0,24.41c-2.66,2.44-6.69,4.39-12.6,4.39s-9.94-2-12.6-4.39a16.79,16.79,0,0,1,0-24.41c2.66-2.45,6.7-4.4,12.6-4.4S310.16,23,312.82,25.48ZM309,37.72a8.79,8.79,0,1,0-8.79,8.78A8.7,8.7,0,0,0,309,37.72Z"/><path class="cls-1" d="M324.84,22.09h8.79v3.53a11.47,11.47,0,0,1,9.29-4.54c6.55,0,9.07,4.11,9.86,5.69a11.48,11.48,0,0,1,10-5.69c4.83,0,7.2,2.24,8.43,3.82,2,2.66,2.16,5.33,2.16,8.78V53.27h-8.79v-17c0-3.68-.79-5.33-1.44-6.12a4.43,4.43,0,0,0-3.6-1.59,5.14,5.14,0,0,0-4.82,2.74c-1.16,1.87-1.23,4.39-1.23,6.05V53.27h-8.78v-17c0-3.68-.8-5.33-1.44-6.12a4.43,4.43,0,0,0-3.6-1.59,5.16,5.16,0,0,0-4.83,2.74c-1.15,1.87-1.22,4.39-1.22,6.05V53.27h-8.79Z"/><path class="cls-1" d="M390.51,69.76h-8.79V22.09h8.79v4a11.87,11.87,0,0,1,10.15-5,14.9,14.9,0,0,1,10.66,4.18c2.3,2.3,4.68,6.19,4.68,12.38,0,7.06-3.1,10.88-4.9,12.61a15.27,15.27,0,0,1-10.58,4,11.82,11.82,0,0,1-10-5ZM392.6,31a8.24,8.24,0,0,0-3,6.69,8.87,8.87,0,0,0,2.88,6.77,8.56,8.56,0,0,0,5.77,2.09,8.32,8.32,0,0,0,5.9-2.23,9.16,9.16,0,0,0,2.74-6.63,9.39,9.39,0,0,0-2.67-6.55,9.17,9.17,0,0,0-6-2.23A7.94,7.94,0,0,0,392.6,31Z"/><path class="cls-1" d="M446.67,22.09h8.78V53.27h-8.78v-4a11.21,11.21,0,0,1-9.58,5c-9.58,0-15.91-7.49-15.91-16.64s6.26-16.56,15.48-16.56a11.31,11.31,0,0,1,10,5ZM430.25,37.64a8.64,8.64,0,1,0,17.28,0,8.64,8.64,0,1,0-17.28,0Z"/><path class="cls-1" d="M487.28,31.6a10.14,10.14,0,0,0-7.2-2.74c-5.84,0-8.79,4.25-8.79,8.78a8.68,8.68,0,0,0,9.07,8.86,10.18,10.18,0,0,0,6.92-2.73v8.56a17.75,17.75,0,0,1-8.07,2,17.54,17.54,0,0,1-12-4.54,16,16,0,0,1-5-12,16.08,16.08,0,0,1,16.63-16.71A18.55,18.55,0,0,1,487.28,23Z"/><path class="cls-1" d="M502.68,29.58V53.27H493.9V29.58h-3.46V22.09h3.46V11.43h8.78V22.09h6.05v7.49Z"/><path class="cls-1" d="M554,22.09h8.78V53.27H554v-4a11.21,11.21,0,0,1-9.58,5c-9.58,0-15.91-7.49-15.91-16.64S534.79,21.08,544,21.08a11.31,11.31,0,0,1,10,5ZM537.6,37.64a8.64,8.64,0,1,0,17.28,0,8.64,8.64,0,1,0-17.28,0Z"/><path class="cls-1" d="M579.94,69.76h-8.79V22.09h8.79v4a11.86,11.86,0,0,1,10.15-5,14.9,14.9,0,0,1,10.66,4.18c2.3,2.3,4.68,6.19,4.68,12.38,0,7.06-3.1,10.88-4.9,12.61a15.31,15.31,0,0,1-10.59,4,11.8,11.8,0,0,1-10-5ZM582,31a8.26,8.26,0,0,0-2.95,6.69A8.83,8.83,0,0,0,582,44.41a8.53,8.53,0,0,0,5.76,2.09,8.34,8.34,0,0,0,5.91-2.23,9.15,9.15,0,0,0,2.73-6.63,9.38,9.38,0,0,0-2.66-6.55,9.2,9.2,0,0,0-6-2.23A8,8,0,0,0,582,31Z"/><path class="cls-1" d="M636.1,22.09h8.78V53.27H636.1v-4a11.21,11.21,0,0,1-9.58,5c-9.58,0-15.91-7.49-15.91-16.64s6.26-16.56,15.48-16.56a11.33,11.33,0,0,1,10,5ZM619.68,37.64a8.64,8.64,0,1,0,17.28,0,8.64,8.64,0,1,0-17.28,0Z"/><path class="cls-1" d="M653.23,22.09H662v4.68a10.54,10.54,0,0,1,3.89-4.32,9.61,9.61,0,0,1,5.19-1.37,10.8,10.8,0,0,1,3.74.72L673.68,30a6.61,6.61,0,0,0-4.11-1.15,7.18,7.18,0,0,0-5.83,2.52c-1.65,2.09-1.73,4.75-1.73,6.91v15h-8.78Z"/><path class="cls-1" d="M687.93,29.58V53.27h-8.78V29.58h-3.46V22.09h3.46V11.43h8.78V22.09H694v7.49Z"/><path class="cls-1" d="M698.59,22.09h8.78v3.53a11.47,11.47,0,0,1,9.29-4.54c6.55,0,9.07,4.11,9.87,5.69a11.46,11.46,0,0,1,10-5.69c4.82,0,7.2,2.24,8.42,3.82,2,2.66,2.16,5.33,2.16,8.78V53.27h-8.78v-17c0-3.68-.8-5.33-1.45-6.12a4.41,4.41,0,0,0-3.59-1.59,5.16,5.16,0,0,0-4.83,2.74c-1.15,1.87-1.22,4.39-1.22,6.05V53.27h-8.79v-17c0-3.68-.79-5.33-1.44-6.12a4.42,4.42,0,0,0-3.6-1.59,5.15,5.15,0,0,0-4.82,2.74c-1.16,1.87-1.23,4.39-1.23,6.05V53.27h-8.78Z"/><path class="cls-1" d="M786.07,44.56c-.94,2.3-4.46,9.72-15.34,9.72-5,0-8.85-1.44-12-4.39-3.46-3.24-4.9-7.28-4.9-12.17a16.56,16.56,0,0,1,4.76-12.24,16,16,0,0,1,11.73-4.4c6.34,0,10,2.52,12.17,5.12,3.31,4,3.75,8.85,3.75,12.24v.72H763a9.15,9.15,0,0,0,1.51,5.25,7.4,7.4,0,0,0,6.26,3A8,8,0,0,0,778,43.26Zm-8.06-11a7.49,7.49,0,0,0-14.77,0Z"/><path class="cls-1" d="M793.05,22.09h8.79v4a11.43,11.43,0,0,1,9.64-5c2.74,0,6.77.8,9.22,3.82,2.16,2.66,2.45,5.76,2.45,8.78V53.27h-8.79v-17c0-1.73-.07-4.47-1.65-6.12a5.64,5.64,0,0,0-4.11-1.59,6,6,0,0,0-5.4,2.74,10.76,10.76,0,0,0-1.36,6.05V53.27h-8.79Z"/><path class="cls-1" d="M840.28,29.58V53.27H831.5V29.58H828V22.09h3.46V11.43h8.78V22.09h6.05v7.49Z"/><path class="cls-2" d="M60.71,5.82s.93-.58.95-.55S59.06,9.71,59.23,10s8.15-4.94,8.25-4.77c.32.55-9.84,9.17-9.81,9.23L70,7.33c.23.41-14.26,11.54-14.05,11.9s11.95-7.6,12.26-7.08c0,0-14.19,10.82-13.81,11.49.15.25,12.16-7,12.16-7l-13.9,12s11.94-7.13,12-7L51.41,32.25c.44.77,11.7-7.36,12-6.9C63.52,25.6,50.1,36,50.1,36L62,29.11"/><path class="cls-2" d="M35.61,23.08c.13.23,7.12-4.64,7.35-4.24L36.5,25.66l7.33-4.23c.15.27-6.5,6.84-6.33,7.13.06.1,7.06-4.63,7.3-4.22l-6.27,7.2,7.27-4.2s-6.43,7-6.16,7.42c0,.06,7.24-4.19,7.24-4.19.3.52-6.28,7-6.28,7l7.23-4.17c.09.16-6.11,7.42-6.11,7.42.12.2,7.2-4.15,7.2-4.15C49.13,37,42.8,44,42.83,44c.38.65,17.34-10,17.34-10S43.53,46.45,43.89,47.07l14.55-8.4L44.73,49.52c.05.08,12.23-7.29,12.33-7.12,0,0-11.57,9.6-11.33,10,.35.59,9.36-6.19,9.7-5.6.1.18-4.76,6.13-4.59,6.43l2.81-1.62"/><path class="cls-2" d="M32.91,5.38a6.84,6.84,0,0,0,1-.54l-2.73,5.58S38.66,6,38.68,6.06c.11.19-9.47,7.9-9,8.62.2.35,9.92-5.91,10-5.78l-11.49,10c.5.86,12.3-7.41,12.43-7.18,0,0-14.38,10-13.79,11l14.65-8.46C42,15.24,25,27.65,25,27.65l17.49-10.1c.73,1.28-19.27,14.54-19.14,14.76,0,0,10.86-6.37,10.9-6.29s-13,10-12.49,10.79c0,0,10.49-6.92,10.86-6.27"/><path class="cls-2" d="M.87,5.63s.63-.36.63-.36S2,8.76,2,8.76C2,8.91,7.81,4.86,8,5.26c0,0-5.11,6.26-5.11,6.26.27.47,8.2-4.73,8.2-4.73.33.57-7.57,6.86-7.3,7.32C3.9,14.26,12,9.4,12,9.4L4.81,17s8.09-4.71,8.11-4.68c.21.37-7.15,7.45-7.15,7.45l8.07-4.66s-7.23,7.28-7,7.6c0,0,7.73-5.12,8-4.63L7.75,25.42c.2.33,7.79-4.92,8-4.6s-7.29,6.83-7,7.25c0,.06,7.7-4.95,7.92-4.57,0,0-7.27,6.68-7.06,7,0,0,7.64-5,7.88-4.55l-6.85,7.53L18.41,29,11.7,36.76l7.78-4.5c.2.36-6.73,7.52-6.73,7.52s7.43-5,7.73-4.47-6.73,7.51-6.6,7.73c.35.61,18-10.4,18-10.4s-17.13,13-17.13,13C15,46,30.51,36.5,30.51,36.5S15.9,48.87,15.93,48.92s12.63-7.59,12.76-7.37c0,0-11.79,10.35-11.63,10.64.26.44,9.75-5.83,9.84-5.68S22,53.16,22,53.25s3.05-1.9,3.11-1.8"/><path class="cls-2" d="M89.24,28.67c.31.53,10.59-6.12,10.59-6.12l-5.46,7.16s8.36-4.86,8.37-4.83S95.66,31.59,96,32.17c.16.29,8.18-4.88,8.25-4.77l-7.77,7.83c.34.59,8.44-5.09,8.53-4.93,0,0-8.9,7.31-8.51,8l8.72-5c.33.57-8.72,9-8.72,9l8.73-5c.37.65-8.8,8.63-8.73,8.75s8.7-5.1,8.73-5-9.09,8-8.73,8.62c0,0,8.43-5.57,8.74-5.05,0,0-9,8-8.74,8.48l8.74-5.05L102,53.25s3.16-2,3.22-1.86"/><path class="cls-2" d="M75.18,1.24A4.42,4.42,0,0,0,75.94.8C76,.91,75.18,5,75.18,5c.1.17,7-4.69,7.31-4.22,0,0-7.31,7.53-7.31,7.53.29.5,8.73-5,8.73-5,.38.67-9,7.62-8.73,8.15.09.16,8.73-5,8.73-5l-8.73,8.45s8.71-5.07,8.73-5c.25.43-8.73,8.36-8.73,8.36l8.73-5s-9,8.19-8.73,8.56c0,0,8.42-5.56,8.73-5L75.18,25c.21.36,8.52-5.4,8.73-5s-9,7.71-8.73,8.22c0,.06,8.48-5.46,8.73-5,0,0-9,7.57-8.73,8,0,.08,16.78-10.91,17.31-10L75.18,34.73l22.56-13L75.18,38.62l9.18-5.31c.27.46-9.18,8.93-9.18,8.93s8.39-5.62,8.73-5S75,45.89,75.18,46.16s8.73-5,8.73-5-8.73,8.1-8.73,8.1c.14.25,8.74-5,8.74-5s-8.76,9-8.74,9,8.66-5.2,8.75-5-2.05,5-2,5.08,2-1.19,2-1.16"/><path class="cls-2" d="M137.57,49.49c.05.1,8.54-5.3,8.7-5s-9.1,7.69-8.7,8.37c.2.36,8.6-5.22,8.71-5S143,53.21,143,53.23l3.26-1.88"/><path class="cls-2" d="M137.51,22.58s.73-.47.76-.43l-.71,3.5,6.13-3.54"/><path class="cls-2" d="M127.7,29c.24.42,8.24-4.75,8.24-4.75l-2.36,5.37s12.62-7.35,12.65-7.31c.12.21-10.53,8.42-10.07,9.21.2.36,10-6,10.08-5.82L137.71,34c.34.59,8.44-5.09,8.53-4.93,0,0-8.23,7-7.86,7.6l7.87-4.54c.32.55-8.36,8.74-8.36,8.74L146.26,36"/><path class="cls-2" d="M117.19,25.1c.23.4,5.7-3.29,5.7-3.29.19.33-9.68,9.35-9.68,9.35.23.4,16.32-10.89,17-9.79,0,.06-17.91,13.65-17.91,13.65.7,1.22,21.48-12.4,21.48-12.4.86,1.48-22.33,14.41-21.65,15.61.11.19,10.85-6.27,10.85-6.27l-10.48,9.47s8.63-5,8.65-5c.23.4-7.82,7.84-7.82,7.84l8-4.6s-6.77,7-6.59,7.34c0,0,7.45-4.94,7.73-4.47l-6,6.77c.19.33,7.74-4.9,7.93-4.58s-6,6.15-5.77,6.52c0,.06,8.47-5.45,8.71-5,0,0-6.36,6.2-6.17,6.53,0,.05,11.21-7.29,11.56-6.68L125.16,54,146.27,41.8l-15.2,12,4.86-2.8"/><path class="cls-2" d="M164.15,29.58c.09.16,5.15-3.36,5.31-3.07"/><path class="cls-2" d="M151.18,22.55a5.19,5.19,0,0,0,.76-.44l-.74,4.44s12.19-7.1,12.22-7c.13.23-12.1,9.19-11.59,10.07.27.46,12.82-7.63,12.92-7.46l-10.11,9.18c.59,1,14.65-8.81,14.81-8.54,0,0-15.43,10.53-14.8,11.61l14.81-8.55c.51.88-14.81,12.46-14.81,12.46l8.75-5.05c.38.65-8.81,8.64-8.74,8.76s8.71-5.11,8.74-5-9.1,8-8.74,8.62c0,0,8.44-5.57,8.75-5,0,0-9,8-8.75,8.48l8.75-5-8.74,8.58c0,.05,8.58-5.35,8.75-5s-3.94,5.79-3.94,5.79,3.88-2.37,3.94-2.27"/><path class="cls-2" d="M154.67,11.9a4.33,4.33,0,0,0,.75-.44c.06.11-.75,4.2-.75,4.2.1.17,7-4.69,7.31-4.22,0,0-7.31,7.53-7.31,7.53.29.49,8.73-5,8.73-5"/><path class="cls-2" d="M190.88,22.55a5.13,5.13,0,0,0,.76-.43l-.76,4.44s7.72-4.49,7.74-4.46-8.1,7.21-7.74,7.85c.18.31,8.66-5.16,8.73-5l-8.73,8.38c.35.61,8.64-5.2,8.73-5,0,0-9.12,7.42-8.73,8.11l8.74-5.05c.33.57-8.74,9-8.74,9l8.74-5c.38.65-8.8,8.64-8.74,8.75s8.71-5.1,8.75-5-9.1,8-8.75,8.62c0,0,8.45-5.57,8.75-5.05,0,0-9,8-8.75,8.48l8.75-5.05-6.57,7.32s6.45-4,6.58-3.79-.76,3.77-.76,3.77.75-.45.76-.43"/><path class="cls-2" d="M191.15,5.69c.14.24,3.38-1.95,3.38-1.95.11.19-4.38,6.29-4.38,6.29.11.2,8.28-5.52,8.6-5,0,0-7.23,7.49-7.23,7.49.28.5,8.75-5.05,8.75-5.05.28.49-6.19,6.16-6,6.55.06.11,5.85-3.37,5.85-3.37"/><path class="cls-2" d="M209.83,44.64s1-.63,1-.57l-4.28,5.56L213,45.92c.12.19-4.07,5.53-3.95,5.75s7.29-4.77,7.53-4.35l-4.2,6,18.48-10.67S217,53.4,217.47,54.23c.06.12,12.71-7.34,12.71-7.34"/><path class="cls-2" d="M219.23,27.43c.23.39,7.77-4.49,7.77-4.49l-3,5.74s3.24-1.89,3.25-1.87"/><path class="cls-2" d="M210.42,24.15c.18.31,4.38-2.53,4.38-2.53.14.25-6.71,7.63-6.71,7.63.19.32,13.3-8.87,13.82-8,0,0-13.65,11.19-13.65,11.19.57,1,17.52-10.12,17.52-10.12.67,1.16-17,11.69-16.46,12.62.08.13,7.28-4.21,7.28-4.21l-5.24,6.45s7.75-4.52,7.77-4.49c.17.29-5,6.19-5,6.19l8.66-5s-5.16,6.17-5,6.42c0,0,8.2-5.42,8.5-4.9l-5.39,6.41c.19.33,7.68-4.86,7.87-4.54s-7.25,6.8-7,7.23c0,.06,8.19-5.27,8.43-4.87"/><path class="cls-2" d="M267.74,29.09c.28.48,9.56-5.51,9.56-5.51L274,29.49s3.3-1.92,3.31-1.91-.51,3.41-.39,3.62c0,0,.38-.23.39-.23"/><path class="cls-2" d="M257.49,25.32c.24.41,5.88-3.39,5.88-3.39.19.34-10,9.51-10,9.51.24.41,17-11.36,17.7-10.22,0,.07-18.65,14.08-18.65,14.08.75,1.3,22.8-13.17,22.8-13.17.91,1.58-23.67,15.11-22.94,16.36.11.19,10.52-6.07,10.52-6.07l-10.12,9.26s8.62-5,8.64-5c.23.4-7.75,7.8-7.75,7.8l8-4.6s-6.67,7-6.5,7.28c0,0,7.46-4.93,7.73-4.46l-5.87,6.7c.19.33,7.74-4.9,7.93-4.58s-5.86,6.08-5.65,6.44c0,.07,8.49-5.46,8.73-5,0,0-6.28,6.16-6.09,6.49,0,.05,11.13-7.24,11.48-6.63L265.93,54l11.37-6.57-4.57,6.52,4.58-2.64"/><path class="cls-2" d="M298.25,29c.31.53,10.59-6.12,10.59-6.12l-4.76,6.76s8.07-4.7,8.09-4.67-5.78,6.07-5.5,6.56c.16.27,7.58-4.52,7.64-4.41l-6,6.83c.3.53,7.58-4.57,7.66-4.43s-7.27,6.51-6.95,7.08L317,32c.32.56-8.52,8.84-8.52,8.84l9.34-5.4"/><path class="cls-2" d="M287.63,25.55c.24.41,5.93-3.43,5.93-3.43.2.34-10.06,9.57-10.06,9.57.25.43,17.51-11.68,18.19-10.5,0,.07-19.13,14.36-19.13,14.36.77,1.34,23.61-13.64,23.61-13.64.94,1.62-24.46,15.51-23.72,16.81.11.19,10.4-6,10.4-6l-9.92,9.14s8.46-4.92,8.48-4.89c.22.39-7.52,7.66-7.52,7.66l7.81-4.51s-6.46,6.87-6.29,7.16c0,0,7.34-4.85,7.6-4.38l-5.7,6.6c.18.32,7.63-4.83,7.81-4.51s-5.72,6-5.51,6.37c0,.06,8.42-5.42,8.66-5,0,0-6.15,6.1-6,6.42.07.12,24.92-16.21,25.71-14.85l-21.52,16,21-12.15L303,54.06,315.24,47"/><path class="cls-2" d="M358.5,28.62c.06.11,10.09-6.26,10.27-5.93.11.18-6.44,6.37-6.14,6.89.2.35,8.3-5,8.41-4.86.24.42-6.89,7.48-6.87,7.52l8.39-4.84c.15.25-8.08,8.15-7.95,8.38s8.44-5.36,8.65-5c0,0-8.9,8.05-8.64,8.5.11.18,8.73-5,8.73-5l-8.73,9s8.66-5.16,8.73-5l-8.73,8c.32.55,8.55-5.38,8.74-5s-8.74,8-8.74,8l8.74-5s-8.91,8.67-8.74,9c0,0,8.57-5.37,8.75-5,0,0-3.23,5-3.06,5.26,0,0,3.06-1.77,3.06-1.77"/><path class="cls-2" d="M354.74,24.36c.08.15,4.77-3.11,4.93-2.85"/><path class="cls-2" d="M338.62,28.62c.3.52,10.35-6,10.35-6L343.18,30s8.49-4.95,8.51-4.92-7.63,7-7.28,7.6S364.14,20.92,364.3,21.2L344.74,35.83c.94,1.62,23.15-13.94,23.4-13.51,0,0-24.34,14.92-23.39,16.57l9-5.22c.34.58-9,9.13-9,9.13l8.72-5c.38.65-8.79,8.63-8.72,8.75s8.7-5.11,8.73-5.05-9.09,8-8.73,8.62c0,0,8.43-5.57,8.74-5,0,0-8.54,7.8-8.3,8.22l8.3-4.8-2.15,4.78s2.12-1.32,2.16-1.25"/><path class="cls-2" d="M324.87,22.55c0,.06.76-.43.76-.43s-.76,4.19-.76,4.19c.1.18,7-4.69,7.31-4.21,0,0-7.31,7.52-7.31,7.52.29.5,8.73-5,8.73-5,.38.66-9,7.61-8.73,8.15.21.35,19.92-11.5,19.92-11.5L324.87,36.16s11.54-6.72,11.56-6.68c.32.56-11.56,10-11.56,10l8.92-5.15s-9.14,8.29-8.92,8.68c0,0,8.42-5.57,8.73-5l-8.73,8.35c.21.36,8.53-5.4,8.74-5s-9,7.72-8.74,8.22c0,.07,8.5-5.46,8.74-5,0,0-9,7.58-8.74,8,0,0,8.48-5.51,8.75-5l-3.91,5.83L333.62,51"/><path class="cls-2" d="M396.34,29c.19.34,10.72-7,11.07-6.4l-6.22,6.69L410,24.19c.15.25-5.93,6.53-5.77,6.8.06.11,7.74-5.07,8-4.62L406,33.52,414,29s-7.29,7.41-7,7.91c0,.07,8.25-4.76,8.25-4.76.38.66-8.62,8.33-8.62,8.33l9.21-5.32"/><path class="cls-2" d="M390.68,49.36c.16.27,5.33-3.07,5.33-3.07l-2.8,5.62s22.65-13.19,22.7-13.11c.22.38-20.47,13.32-19.65,14.74.39.68,19-11.31,19.13-11L400.88,54.21c.52.89,12.68-7.63,12.81-7.4"/><path class="cls-2" d="M381.78,22.58c0,.06.76-.43.76-.43s-.76,4.19-.76,4.19c.1.18,7.08-4.72,7.35-4.24,0,0-7.35,7.55-7.35,7.55.29.5,8.67-5,8.67-5,.38.66-9,7.59-8.67,8.12.21.36,20.06-11.59,20.06-11.59l-20.06,15S406.15,22,406.2,22.09c.63,1.09-24.42,17.42-24.42,17.42L390,34.77s-8.41,7.91-8.21,8.27c0,0,7.56-5,7.84-4.53l-7.84,7.84c.21.35,8.34-5.28,8.54-4.93s-8.82,7.62-8.54,8.11c.05.08,9.73-6.26,10-5.77,0,0-10.29,8.26-10,8.74,0,0,11.79-7.67,12.16-7l-12.16,10.6,8.67-5L381.78,60l8.68-5c.26.43-8.68,8.64-8.68,8.64s8.36-5.6,8.7-5-8.85,8.66-8.7,8.94,8.71-5,8.71-5-7.29,7.27-7.29,7.27c.12.2,7.3-4.21,7.3-4.21s-.76,4.15-.75,4.16.75-.45.76-.43"/><path class="cls-2" d="M446.73,49.49c0,.1,8.55-5.3,8.71-5s-9.1,7.69-8.71,8.37c.21.36,8.6-5.22,8.71-5s-3.27,5.41-3.25,5.43l3.26-1.88"/><path class="cls-2" d="M446.67,22.58s.73-.47.76-.43l-.71,3.5,6.13-3.54"/><path class="cls-2" d="M436.87,29c.24.42,8.23-4.75,8.23-4.75l-2.36,5.37s12.63-7.35,12.65-7.31c.13.21-10.53,8.42-10.07,9.21.2.36,10-6,10.08-5.82L446.87,34c.34.59,8.45-5.09,8.54-4.93,0,0-8.23,7-7.87,7.6l7.87-4.54c.32.55-8.36,8.74-8.36,8.74L455.42,36"/><path class="cls-2" d="M426.35,25.1c.23.4,5.7-3.29,5.7-3.29.19.33-9.68,9.35-9.68,9.35.23.4,16.32-10.89,17-9.79,0,.06-17.91,13.65-17.91,13.65.71,1.22,21.48-12.4,21.48-12.4.86,1.48-22.33,14.41-21.65,15.61.12.19,10.85-6.27,10.85-6.27l-10.48,9.47s8.63-5,8.65-5c.23.4-7.82,7.84-7.82,7.84l8-4.6s-6.77,7-6.59,7.34c0,0,7.45-4.94,7.73-4.47l-6,6.77c.19.33,7.74-4.9,7.93-4.58s-6,6.15-5.77,6.52c0,.06,8.47-5.45,8.71-5,0,0-6.35,6.2-6.17,6.53,0,.05,11.21-7.29,11.57-6.68L434.32,54,455.43,41.8l-15.19,12L445.1,51"/><path class="cls-2" d="M477.69,29.09c.28.48,9.56-5.51,9.56-5.51l-3.31,5.91s3.3-1.92,3.31-1.91-.51,3.41-.39,3.62c0,0,.38-.23.39-.23"/><path class="cls-2" d="M467.44,25.32c.24.41,5.88-3.39,5.88-3.39.19.34-10,9.51-10,9.51.24.41,17-11.36,17.7-10.22,0,.07-18.65,14.08-18.65,14.08.75,1.3,22.8-13.17,22.8-13.17.91,1.58-23.67,15.11-22.94,16.36.11.19,10.52-6.07,10.52-6.07l-10.12,9.26s8.62-5,8.64-5c.23.4-7.75,7.8-7.75,7.8l8-4.6s-6.67,7-6.5,7.28c0,0,7.45-4.93,7.73-4.46l-5.87,6.7c.19.33,7.74-4.9,7.93-4.58s-5.86,6.08-5.65,6.44c0,.07,8.49-5.46,8.73-5,0,0-6.28,6.16-6.09,6.49,0,.05,11.13-7.24,11.48-6.63L475.88,54l11.37-6.57-4.57,6.52,4.58-2.64"/><path class="cls-2" d="M503.41,29.58c.09.16,5.14-3.36,5.31-3.07"/><path class="cls-2" d="M490.44,22.55a5.77,5.77,0,0,0,.76-.44l-.74,4.44s12.19-7.1,12.21-7c.14.23-12.09,9.19-11.58,10.07.27.46,12.82-7.63,12.92-7.46L493.9,31.29c.59,1,14.65-8.81,14.8-8.54,0,0-15.42,10.53-14.8,11.61l14.82-8.55c.51.88-14.81,12.46-14.81,12.46l8.75-5.05c.37.65-8.81,8.64-8.75,8.76s8.72-5.11,8.75-5-9.1,8-8.74,8.62c0,0,8.44-5.57,8.75-5,0,0-9,8-8.75,8.48l8.75-5s-8.75,8.57-8.74,8.58,8.57-5.35,8.74-5-3.93,5.79-3.93,5.79,3.88-2.37,3.94-2.27"/><path class="cls-2" d="M493.93,11.9a4.33,4.33,0,0,0,.75-.44c.06.11-.75,4.2-.75,4.2.1.17,7-4.69,7.3-4.22,0,0-7.3,7.53-7.3,7.53.28.49,8.73-5,8.73-5"/><path class="cls-2" d="M554.08,49.49c0,.1,8.55-5.3,8.71-5s-9.1,7.69-8.71,8.37c.21.36,8.6-5.22,8.71-5s-3.27,5.41-3.25,5.43l3.26-1.88"/><path class="cls-2" d="M554,22.58s.73-.47.76-.43l-.71,3.5,6.13-3.54"/><path class="cls-2" d="M544.22,29c.23.42,8.23-4.75,8.23-4.75l-2.36,5.37s12.63-7.35,12.65-7.31c.13.21-10.53,8.42-10.07,9.21.2.36,10-6,10.08-5.82L554.22,34c.34.59,8.45-5.09,8.54-4.93,0,0-8.23,7-7.87,7.6l7.87-4.54c.32.55-8.36,8.74-8.36,8.74L562.77,36"/><path class="cls-2" d="M533.7,25.1c.23.4,5.7-3.29,5.7-3.29.19.33-9.68,9.35-9.68,9.35.23.4,16.32-10.89,17-9.79,0,.06-17.91,13.65-17.91,13.65.71,1.22,21.48-12.4,21.48-12.4.86,1.48-22.33,14.41-21.65,15.61.12.19,10.85-6.27,10.85-6.27L529,41.43s8.63-5,8.65-5c.23.4-7.82,7.84-7.82,7.84l8-4.6s-6.77,7-6.59,7.34c0,0,7.45-4.94,7.73-4.47l-6,6.77c.19.33,7.74-4.9,7.93-4.58s-6,6.15-5.77,6.52c0,.06,8.47-5.45,8.71-5,0,0-6.35,6.2-6.17,6.53,0,.05,11.21-7.29,11.57-6.68L541.67,54,562.78,41.8l-15.19,12,4.86-2.8"/><path class="cls-2" d="M585.76,29c.2.34,10.73-7,11.08-6.4l-6.23,6.69,8.83-5.09c.14.25-5.94,6.53-5.78,6.8.07.11,7.75-5.07,8-4.62l-6.2,7.15L603.38,29s-7.29,7.41-7,7.91c0,.07,8.25-4.76,8.25-4.76.38.66-8.63,8.33-8.63,8.33l9.22-5.32"/><path class="cls-2" d="M580.11,49.36c.15.27,5.32-3.07,5.32-3.07l-2.79,5.62s22.65-13.19,22.7-13.11c.21.38-20.47,13.32-19.65,14.74.39.68,19-11.31,19.12-11l-14.5,11.72c.52.89,12.68-7.63,12.81-7.4"/><path class="cls-2" d="M571.21,22.58c0,.06.76-.43.76-.43s-.76,4.19-.76,4.19c.1.18,7.08-4.72,7.35-4.24,0,0-7.35,7.55-7.35,7.55.29.5,8.67-5,8.67-5,.38.66-9,7.59-8.67,8.12.21.36,20.06-11.59,20.06-11.59l-20.06,15s24.36-14.2,24.42-14.1c.63,1.09-24.42,17.42-24.42,17.42l8.2-4.74S571,42.68,571.21,43c0,0,7.56-5,7.84-4.53l-7.84,7.84c.21.35,8.34-5.28,8.54-4.93s-8.83,7.62-8.54,8.11c0,.08,9.73-6.26,10-5.77,0,0-10.29,8.26-10,8.74,0,0,11.79-7.67,12.16-7l-12.16,10.6,8.67-5L571.21,60l8.68-5c.25.43-8.68,8.64-8.68,8.64s8.36-5.6,8.69-5-8.85,8.66-8.69,8.94,8.7-5,8.7-5-7.28,7.27-7.28,7.27c.11.21,7.29-4.21,7.29-4.21s-.75,4.15-.74,4.16.75-.45.75-.43"/><path class="cls-2" d="M636.16,49.49c.05.1,8.54-5.3,8.7-5s-9.1,7.69-8.7,8.37c.2.36,8.6-5.22,8.71-5s-3.27,5.41-3.25,5.43l3.26-1.88"/><path class="cls-2" d="M636.1,22.58s.73-.47.75-.43l-.7,3.5,6.13-3.54"/><path class="cls-2" d="M626.29,29c.24.42,8.24-4.75,8.24-4.75l-2.36,5.37s12.62-7.35,12.65-7.31c.12.21-10.53,8.42-10.07,9.21.2.36,10-6,10.08-5.82L636.3,34c.34.59,8.44-5.09,8.53-4.93,0,0-8.23,7-7.86,7.6l7.87-4.54c.32.55-8.36,8.74-8.36,8.74L644.85,36"/><path class="cls-2" d="M615.78,25.1c.23.4,5.7-3.29,5.7-3.29.19.33-9.68,9.35-9.68,9.35.23.4,16.32-10.89,17-9.79,0,.06-17.91,13.65-17.91,13.65.7,1.22,21.48-12.4,21.48-12.4C633.19,24.1,610,37,610.68,38.23c.11.19,10.85-6.27,10.85-6.27l-10.48,9.47s8.63-5,8.65-5c.23.4-7.82,7.84-7.82,7.84l8-4.6s-6.77,7-6.59,7.34c0,0,7.45-4.94,7.72-4.47l-6,6.77c.19.33,7.74-4.9,7.93-4.58s-6,6.15-5.77,6.52c0,.06,8.47-5.45,8.71-5,0,0-6.36,6.2-6.17,6.53,0,.05,11.21-7.29,11.56-6.68L623.75,54,644.86,41.8l-15.2,12,4.86-2.8"/><path class="cls-2" d="M667.63,29c.12.21,6.49-4.22,6.7-3.86l-1.85,4.16,1.38-.79"/><path class="cls-2" d="M664,24c.14.23,4.53-2.61,4.53-2.61"/><path class="cls-2" d="M653.26,22.55c0,.06.75-.43.75-.43s-.75,4.19-.75,4.19c.1.17,7-4.69,7.31-4.21,0,0-7.31,7.52-7.31,7.52.29.5,8.72-5,8.72-5,.39.66-9,7.61-8.72,8.15.2.35,19.78-11.42,19.78-11.42L653.26,36.16s21.2-12.35,21.25-12.27c.55.95-21.25,15.59-21.25,15.59l9.09-5.25S653,42.62,653.26,43c0,0,8.42-5.57,8.73-5l-8.73,8.35c.21.36,8.52-5.4,8.73-5s-9,7.72-8.73,8.22c0,.07,8.49-5.46,8.74-5,0,0-9,7.58-8.74,8,0,0,8.47-5.51,8.74-5l-3.9,5.83L662,51"/><path class="cls-2" d="M688.66,29.58c.09.16,5.14-3.36,5.31-3.07"/><path class="cls-2" d="M675.69,22.55a5.19,5.19,0,0,0,.76-.44l-.74,4.44s12.19-7.1,12.22-7c.13.23-12.1,9.19-11.59,10.07.27.46,12.82-7.63,12.92-7.46l-10.11,9.18c.59,1,14.65-8.81,14.8-8.54,0,0-15.42,10.53-14.8,11.61L694,25.81c.51.88-14.81,12.46-14.81,12.46l8.75-5.05c.37.65-8.81,8.64-8.75,8.76s8.72-5.11,8.75-5-9.1,8-8.74,8.62c0,0,8.44-5.57,8.75-5,0,0-9,8-8.75,8.48l8.75-5-8.74,8.58c0,.05,8.58-5.35,8.75-5S684,53.25,684,53.25s3.88-2.37,3.94-2.27"/><path class="cls-2" d="M679.18,11.9a4.33,4.33,0,0,0,.75-.44c.06.11-.75,4.2-.75,4.2.1.17,7-4.69,7.3-4.22,0,0-7.3,7.53-7.3,7.53.29.49,8.73-5,8.73-5"/><path class="cls-2" d="M732.24,28.62c.07.11,10.09-6.26,10.28-5.93.11.18-6.45,6.37-6.15,6.89.21.35,8.3-5,8.41-4.86.24.42-6.89,7.48-6.86,7.52l8.39-4.84c.15.25-8.08,8.15-7.95,8.38s8.43-5.36,8.65-5c0,0-8.9,8.05-8.64,8.5.1.18,8.72-5,8.72-5l-8.72,9s8.66-5.16,8.73-5l-8.73,8c.32.55,8.54-5.38,8.73-5s-8.73,8-8.73,8l8.74-5s-8.92,8.67-8.74,9c0,0,8.56-5.37,8.74-5,0,0-3.23,5-3.06,5.26,0,0,3.07-1.77,3.07-1.77"/><path class="cls-2" d="M728.48,24.36c.09.15,4.78-3.11,4.93-2.85"/><path class="cls-2" d="M712.37,28.62c.3.52,10.34-6,10.34-6L716.92,30s8.49-4.95,8.51-4.92-7.63,7-7.28,7.6S737.88,20.92,738,21.2L718.48,35.83c.94,1.62,23.15-13.94,23.4-13.51,0,0-24.34,14.92-23.39,16.57l9-5.22c.34.58-9,9.13-9,9.13l8.73-5c.37.65-8.8,8.63-8.73,8.75s8.7-5.11,8.73-5.05-9.08,8-8.73,8.62c0,0,8.44-5.57,8.74-5,0,0-8.54,7.8-8.3,8.22l8.31-4.8-2.16,4.78s2.12-1.32,2.16-1.25"/><path class="cls-2" d="M698.62,22.55c0,.06.75-.43.75-.43s-.75,4.19-.75,4.19c.1.17,7-4.69,7.3-4.21,0,0-7.3,7.52-7.3,7.52.28.5,8.72-5,8.72-5,.39.66-9,7.61-8.72,8.15.2.35,19.91-11.5,19.91-11.5L698.62,36.16s11.53-6.72,11.56-6.68c.32.56-11.56,10-11.56,10l8.92-5.15s-9.14,8.29-8.92,8.68c0,0,8.42-5.57,8.72-5l-8.72,8.35c.21.36,8.52-5.4,8.73-5s-9,7.72-8.73,8.22c0,.07,8.49-5.46,8.74-5,0,0-9,7.58-8.74,8,0,0,8.47-5.51,8.74-5l-3.9,5.83L707.37,51"/><path class="cls-2" d="M769.14,27.36c.15.26,8.13-5.3,8.39-4.85l-3.86,5.33,6.54-3.78c.11.2-4,5.5-3.87,5.71s5.95-3.89,6.15-3.55l-4.68,6.27,6.39-3.69"/><path class="cls-2" d="M763.65,39.16c.28.48,9.67-5.58,9.67-5.58l-2.7,5.56s14.42-8.4,14.45-8.35-9,7.64-8.55,8.33c.19.33,9.25-5.51,9.32-5.38l-3.51,5.37c.16.26,3.82-2.3,3.86-2.23"/><path class="cls-2" d="M759,25.2c.22.39,5.65-3.27,5.65-3.27.19.33-9.66,9.34-9.66,9.34.23.41,16.73-11.16,17.38-10,0,.06-18.29,13.87-18.29,13.87.74,1.28,22.47-13,22.47-13,.9,1.55-23.34,14.94-22.62,16.18.09.16,9.38-5.42,9.38-5.42l-9.05,8.65s13.73-8,13.76-7.95c.35.61-13,10.81-13,10.81l7.83-4.53s-6.59,6.94-6.42,7.24c0,0,6.88-4.55,7.13-4.11l-5.29,6.36c.16.29,6.73-4.26,6.9-4s-4.88,5.57-4.7,5.89c0,0,7.2-4.63,7.41-4.28,0,0-5,5.49-4.84,5.76,0,.07,15.54-10.11,16-9.26L767.24,54l16.82-9.71L773.9,54,784,48.18"/><path class="cls-2" d="M807.14,28.67c.31.53,10.59-6.12,10.59-6.12l-5.46,7.16s8.35-4.86,8.37-4.83-7.08,6.71-6.75,7.29c.17.29,8.19-4.88,8.26-4.77l-7.77,7.83c.34.59,8.44-5.09,8.53-4.93,0,0-8.9,7.31-8.52,8l8.72-5c.33.57-8.72,9-8.72,9l8.73-5c.38.65-8.79,8.63-8.73,8.75s8.71-5.1,8.74-5-9.09,8-8.74,8.62c0,0,8.44-5.57,8.75-5.05,0,0-9,8-8.75,8.48l8.75-5.05-3.21,5.38s3.15-2,3.22-1.86"/><path class="cls-2" d="M793.08,22.55c0,.06.76-.43.76-.43s-.76,4.19-.76,4.19c.1.17,7-4.69,7.31-4.21,0,0-7.31,7.52-7.31,7.52.29.5,8.73-5,8.73-5,.38.66-9,7.61-8.73,8.15.21.35,20-11.54,20-11.54l-20,15s24-14,24.06-13.89c.62,1.07-24.06,17.21-24.06,17.21L802,34.32s-9.16,8.3-8.94,8.69c0,0,8.42-5.57,8.73-5l-8.73,8.35c.21.36,8.53-5.4,8.73-5s-9,7.72-8.73,8.22c0,.07,8.5-5.46,8.74-5,0,0-9,7.58-8.74,8,0,0,8.48-5.51,8.74-5l-3.9,5.83L801.83,51"/><path class="cls-2" d="M841,29.58c.09.16,5.14-3.36,5.31-3.07"/><path class="cls-2" d="M828,22.55a5.19,5.19,0,0,0,.76-.44l-.74,4.44s12.19-7.1,12.22-7c.13.23-12.1,9.19-11.59,10.07.27.46,12.82-7.63,12.92-7.46L831.5,31.29c.59,1,14.65-8.81,14.8-8.54,0,0-15.42,10.53-14.79,11.61l14.81-8.55c.51.88-14.81,12.46-14.81,12.46l8.75-5.05c.38.65-8.81,8.64-8.75,8.76s8.72-5.11,8.75-5-9.1,8-8.74,8.62c0,0,8.44-5.57,8.75-5,0,0-9,8-8.75,8.48l8.75-5-8.74,8.58c0,.05,8.58-5.35,8.75-5s-3.94,5.79-3.94,5.79,3.88-2.37,3.94-2.27"/><path class="cls-2" d="M831.53,11.9a4.33,4.33,0,0,0,.75-.44c.06.11-.75,4.2-.75,4.2.1.17,7-4.69,7.3-4.22,0,0-7.3,7.53-7.3,7.53.29.49,8.73-5,8.73-5"/></g></g></svg>