<svg xmlns="http://www.w3.org/2000/svg" viewBox="0 0 341.26 95.16"><defs><style>.cls-1,.cls-2,.cls-3{fill:none;stroke:#4c5d76;}.cls-2,.cls-3{stroke-linecap:round;stroke-linejoin:round;}.cls-2{stroke-width:1.5px;}.cls-3{stroke-width:2px;}.cls-4{fill:#4c5d76;}</style></defs><g id="レイヤー_2" data-name="レイヤー 2"><g id="レイヤー_1-2" data-name="レイヤー 1"><path class="cls-1" d="M37.87,91.67A24.91,24.91,0,0,1,26,94.47c-8.43,0-13.54-2.88-17.57-6.69A23.93,23.93,0,0,1,.71,69.42c0-8.72,3.6-15,7.71-18.8,4.82-4.53,10.8-6.33,17.64-6.33a24.1,24.1,0,0,1,11.81,3V58.18a15.45,15.45,0,0,0-11.59-5.4c-9.65,0-15.92,7.92-15.92,16.78C10.36,80.22,18.57,86,26.64,86a14.56,14.56,0,0,0,11.23-5.26Z"/><path class="cls-1" d="M95.47,69.42c0,14.61-10.51,25-25.63,25S44.2,84,44.2,69.42,54.71,44.29,69.84,44.29,95.47,54.8,95.47,69.42Zm-9.65,0c0-9.73-6.62-16.64-16-16.64s-16,6.91-16,16.64S60.47,86,69.84,86,85.82,79.14,85.82,69.42Z"/><path class="cls-1" d="M113.46,45.37v40H128.3v8.06H104.1v-48Z"/><path class="cls-1" d="M144.14,45.37V75.54a10.47,10.47,0,0,0,2.3,7.13,10.46,10.46,0,0,0,15.27,0,10.47,10.47,0,0,0,2.3-7.13V45.37h9.36V74.74c0,4.54-.72,9.15-3.6,12.82-3.46,4.54-9.5,6.91-15.7,6.91s-12.24-2.37-15.69-6.91c-2.88-3.67-3.6-8.28-3.6-12.82V45.37Z"/><path class="cls-1" d="M190.79,45.37h6.77L210.3,75.9l13.33-30.53h6.76l8.07,48H229L224.63,63.8,211.74,93.39h-3.16L196.26,63.8l-4.89,29.59h-9.51Z"/><path class="cls-1" d="M247,93.39v-48h6.48l29.24,32v-32H292v48h-6.48L256.31,61.28V93.39Z"/><path class="cls-2" d="M21.49,53.46c.47.81,13.21-7.63,13.21-7.63.13.22-6.32,6.68-6.06,7.13.12.21,8.86-5.9,9.2-5.31,0,0-4.93,6.54-4.83,6.72,0,0,4.69-3,4.83-2.79S35.8,56,36,56.29c0,.08,1.8-1.19,1.87-1.07"/><path class="cls-2" d="M9.26,49.91s7-4.07,7-4L4,56.33c.77,1.32,20.76-12,20.76-12,.89,1.53-23.68,15.71-22.9,17.07.41.71,28.79-16.85,28.89-16.67C31.25,45.6,1,65.31,1,65.31L15.6,56.89c.21.36-15.28,11-14.84,11.77s11.08-6.4,11.08-6.4L.9,72.5,10.52,67,1.33,75.29s8.9-5.41,9-5.2l-8.1,8.44c.21.36,8.52-4.91,8.52-4.91S3.24,80.88,3.48,81.3c.09.16,8-5.07,8.23-4.76,0,0-7.15,6.51-6.9,7,0,0,7.93-5,8.12-4.69,0,0-6.16,7.17-6.11,7.26s8.08-4.9,8.18-4.72l-5.94,7c.08.15,8.52-4.92,8.52-4.92s-5.83,7-5.83,7c.29.49,9.08-5.79,9.32-5.38l-6,7.22c.25.43,10.69-6.7,10.92-6.3,0,0-7.21,7.53-7.16,7.62.42.73,18.67-11.6,19-11L23.71,94.37s13.64-9,14.14-8.17l-9,8.1c.29.5,9-5.18,9-5.18"/><path class="cls-2" d="M64.85,53.44c.48.84,13.57-7.84,13.57-7.84.13.23-6.57,6.81-6.3,7.27.13.23,9.66-6.43,10-5.79,0,0-5.54,6.88-5.43,7.07,0,0,8.54-5.5,8.78-5.07s-6,6.38-5.69,6.92c.18.31,8-5.31,8.27-4.77.15.25-5.9,7-5.74,7.3.33.56,8.09-4.67,8.09-4.67S83.92,61,83.92,61,92,56.18,92.05,56.3l-7,7.28c.12.21,8.3-4.79,8.3-4.79s-7.86,7.85-7.54,8.4l8.71-5c.28.5-8.88,8.3-8.65,8.71,0,.06,9.32-5.38,9.32-5.38s-10.08,9.18-10,9.31,10.15-6.13,10.27-5.93c.4.7-13.17,10.42-12.79,11.07.27.47,12.2-8,12.61-7.29"/><path class="cls-2" d="M52.7,50.22S59.93,46,60,46L47.42,56.65C48.21,58,68.7,44.37,68.7,44.37c.9,1.56-24.18,16-23.38,17.35.41.72,29.3-17.16,29.41-17,.51.88-30.22,20.86-30.22,20.86l13.35-7.71c.19.33-14,10.34-13.59,11S55,62.76,55,62.76l-10.49,10L53.9,67.3l-9,8.22s8.78-5.34,8.9-5.14l-8,8.37c.21.35,8.43-4.87,8.43-4.87s-7.45,7.23-7.21,7.64c.09.16,8-5,8.18-4.72,0,0-7.14,6.5-6.88,6.94,0,0,7.9-5,8.08-4.67,0,0-6.13,7.16-6.08,7.25s8-4.88,8.14-4.71l-5.85,6.93c.08.15,8.45-4.88,8.45-4.88s-5.62,6.92-5.62,6.92c.28.49,9-5.71,9.19-5.3L59,92.34c.25.43,10.69-6.71,10.92-6.3,0,0-7.1,7.47-7.05,7.56.7,1.22,31.42-19.53,32-18.49L67.74,94.34s24.9-16.47,25.81-14.9L72.93,94.26c.6,1,18.44-10.65,18.44-10.65"/><path class="cls-2" d="M104.13,45.83l.76-.44-.76,3.82c.25.42,6.65-3.84,6.65-3.84.31.55-6.93,7.21-6.65,7.69.13.23,9.27-5.43,9.31-5.37.17.31-9.31,8.78-9.31,8.78l9.31-5.37c.14.24-9.6,8.06-9.31,8.57s9.31-5.38,9.31-5.38l-9.31,9.3,9.31-5.37-9.31,8.41s9.2-5.58,9.32-5.37l-9.32,9.15c.23.38,9.32-5.38,9.32-5.38.1.16-9.61,8.34-9.32,8.85.11.18,9.12-5.74,9.32-5.38,0,0-9.64,7.78-9.32,8.35,0,0,9.11-5.75,9.32-5.39,0,0-9.39,9-9.32,9.12s9.21-5.58,9.33-5.38l-9.33,8.92c.1.17,9.33-5.38,9.33-5.38s-9.33,9.06-9.33,9.06c.29.5,9.1-5.79,9.33-5.38l-9.33,9.13c.25.42,10.51-6.59,10.74-6.19,0,0-7.93,7.93-7.87,8,.3.53,13.67-8.5,13.93-8l-7.71,8s13.45-8.9,13.94-8l-8.88,8c.32.56,10-5.78,10-5.78s-4.62,5.36-4.38,5.77l4.39-2.53"/><path class="cls-2" d="M164,45.83a5.08,5.08,0,0,0,.75-.44c.06.1-.86,3.87-.75,4.06s6.81-4.53,7.07-4.08c0,0-7.19,7.79-7.06,8,0,0,9.06-5.83,9.32-5.38.4.69-9.77,8.24-9.32,9,.21.35,9-6,9.32-5.38.21.37-9.54,9-9.31,9.37.37.64,9.31-5.38,9.31-5.38S164,64.38,164,64.38s9.24-5.51,9.31-5.38L164,67.59c.13.23,9.31-5.37,9.31-5.37S163.67,71,164,71.63l9.3-5.37c.31.53-9.55,8.66-9.3,9.09,0,.06,9.3-5.37,9.3-5.37s-9.84,9-9.77,9.17,9.66-5.83,9.77-5.64"/><path class="cls-2" d="M134.81,45.83l.75-.44-.75,3.82c.24.42,6.64-3.84,6.64-3.84.31.55-6.92,7.21-6.64,7.69.13.23,9.26-5.42,9.3-5.37.17.31-9.3,8.78-9.3,8.78l9.3-5.37c.13.24-9.6,8.06-9.3,8.57s9.3-5.37,9.3-5.37l-9.3,9.29,9.3-5.37-9.3,8.41s9.18-5.58,9.3-5.37l-9.3,9.15c.22.38,9.3-5.37,9.3-5.37.09.16-9.59,8.33-9.3,8.84.1.18,9.09-5.73,9.3-5.37,0,0-9.57,7.74-9.25,8.3,0,0,9-5.7,9.25-5.33,0,0-8.9,8.71-8.84,8.83s8.73-5.29,8.84-5.1l-8,8.16c.08.15,8.32-4.8,8.32-4.8s-6.93,7.68-6.93,7.68c.25.43,7.9-5,8.1-4.68l-6.09,7.27c.19.32,8.15-5.11,8.33-4.81,0,0-5.92,6.8-5.87,6.88.2.35,9-5.58,9.14-5.28l-6,7s12.05-8,12.49-7.21l-9.31,8.29C149.13,95.13,173,79.48,173,79.48S152,93,152.78,94.41l19.3-11.15S159.86,93.39,160,93.68l8.85-5.11"/><path class="cls-2" d="M224.71,64.09c.1.18,8-4.64,8-4.64s-7.73,7.2-7.63,7.37l8.09-4.67-7.7,7.39,8.15-4.71-7.75,7.42,8.2-4.74c.29.51-7.82,7.66-7.76,7.77s8.09-5.07,8.26-4.78-7.8,7.91-7.8,7.91,8-5.35,8.33-4.81c0,0-8,7.79-7.85,8.11l8.4-4.84c.26.45-7.94,8-7.94,8s8.39-5,8.46-4.89-8.18,7.48-8,7.71c0,0,8.39-5.14,8.52-4.92.29.49-8.43,7.48-8,8.15l8.59-5c.07.11-6.68,7.43-6.68,7.43s7.23-4.18,7.23-4.18a38.41,38.41,0,0,0-1.32,4.16c.06.1,1.81-1.11,1.84-1.07"/><path class="cls-2" d="M223.37,46a7.77,7.77,0,0,0,1-.58s-3.38,5.55-3.26,5.76c0,0,9.3-5.4,9.31-5.38L218.78,56.51l12.27-7.08s-14.65,12-14.52,12.25c0,0,15.06-8.83,15.11-8.73.47.81-17.47,13.16-17.23,13.59,0,0,17.17-11.35,17.79-10.27.22.38-20.09,15.56-20.09,15.56s11.75-7.41,12-6.94"/><path class="cls-2" d="M196.4,64c.25.44,7.19-4.15,7.19-4.15.12.21-6.23,6.63-6,7.07.1.17,6.93-4.61,7.2-4.15,0,0-6,7.13-5.88,7.33,0,0,7-4.51,7.2-4.16s-6.3,6.53-6,7.09c.16.27,6.94-4.62,7.21-4.16.15.26-6,7.1-5.87,7.38.29.5,7.21-4.16,7.21-4.16S202.62,79,202.62,79s7.15-4.26,7.21-4.16L203.7,81.6c.25.43,17.57-10.14,17.57-10.14s-16.8,12.38-16.21,13.4l13.87-8c.39.68-12.94,10.46-12.63,11,0,.07,10.47-6,10.47-6s-9.35,8.76-9.28,8.88,7.14-4.31,7.23-4.17c.21.36-5.69,6.52-5.49,6.85.07.13,3.24-2.13,3.35-1.94"/><path class="cls-2" d="M190.73,45.88l.84-.49L190,49.67c.28.47,7.43-4.29,7.43-4.29.37.63-8.56,8-8.23,8.6.13.24,9.56-5.59,9.59-5.53.19.33-10.3,9.36-10.3,9.36L200,51.19c.17.3-12.48,9.56-12.12,10.19S201,53.77,201,53.77l-14,12,15.33-8.85-16,12.26s16.77-10.19,17-9.81l-17.77,14c.24.42,10-5.77,10-5.77.11.19-11,9.1-10.72,9.66.12.2,9.87-6.2,10.09-5.82,0,0-11.07,8.51-10.7,9.15,0,0,9.93-6.27,10.16-5.87,0,0-11,9.91-10.94,10s10.13-6.14,10.26-5.93l-11,9.9c.11.18,10.36-6,10.36-6S182,92.9,182,92.9c.33.56,10.19-6.49,10.46-6l-4.78,6.51c.09.16,4-2.52,4.09-2.37"/><path class="cls-2" d="M282.67,45.83a8.15,8.15,0,0,0,.75-.44s-.83,4.17-.75,4.31,7.48-4.35,7.49-4.33l-7.49,8.34L292,48.33s-9.41,9.09-9.32,9.25c0,0,9.28-5.45,9.32-5.39.28.48-9.47,8.77-9.32,9,0,0,9-5.94,9.32-5.38.12.2-9.32,9.34-9.32,9.34s9.11-5.75,9.32-5.38-9.69,8.13-9.31,8.78,9-5.88,9.32-5.38c0,0-9.35,8.48-9.32,8.53.2.35,9.32-5.38,9.32-5.38s-9.52,9-9.32,9.34L292,70.3"/><path class="cls-2" d="M256.54,61.49c.27.46,7.57-4.38,7.57-4.38.12.21-5.65,6.34-5.41,6.75.1.18,7.3-4.85,7.58-4.37,0,0-5.33,6.77-5.23,6.95,0,0,7.36-4.74,7.58-4.37s-5.71,6.23-5.41,6.76c.17.28,7.3-4.87,7.58-4.38.14.24-5.34,6.73-5.2,7,.31.53,7.59-4.37,7.59-4.37s-5.58,6.58-5.58,6.58,7.53-4.49,7.59-4.38l-5.67,6.49c.11.19,7.59-4.38,7.59-4.38s-5.42,6.61-5.17,7L279.54,74c.2.35-5.54,6.53-5.38,6.82,0,.05,7.6-4.39,7.6-4.39s-5.54,6.62-5.49,6.7,15.56-9.4,15.74-9.09c.43.74-13.93,10.83-13.54,11.5.29.51,13.1-8.59,13.55-7.82L280.55,87.86s11.29-6.92,11.47-6.62c0,0-10.08,7.9-9.69,8.58S292,84.23,292,84.23c.11.18-7.67,7.81-7.67,7.81.3.51,7.63-4.51,7.67-4.43.23.39-4,5.7-3.95,5.76s3.84-2.48,3.95-2.28"/><path class="cls-2" d="M247,45.83l.75-.44L247,49.21c.24.41,6.5-3.75,6.5-3.75.3.53-6.77,7.13-6.5,7.6.12.22,8.77-5.13,8.8-5.08.17.29-8.8,8.49-8.8,8.49l10.84-6.25c.15.27-11.17,8.87-10.84,9.45s12.74-7.36,12.74-7.36L247,63.59l15.09-8.71L247,66.63s9.18-5.58,9.3-5.37L247,70.41c.22.38,9.3-5.38,9.3-5.38.1.17-9.59,8.34-9.3,8.85.11.18,9.1-5.73,9.31-5.38,0,0-9.64,7.78-9.31,8.35,0,0,9.1-5.75,9.31-5.38,0,0-9.38,9-9.31,9.11s9.2-5.58,9.31-5.38L247,84.12c.1.17,9.32-5.38,9.32-5.38S247,87.8,247,87.8c.29.5,9.08-5.79,9.32-5.38L247,91.55c.21.37,9.13-5.72,9.32-5.38,0,0-6.5,7.13-6.45,7.21.15.25,6.34-3.93,6.46-3.72l-.75,3.71a5.08,5.08,0,0,1,.75-.44"/><line class="cls-3" x1="320.82" y1="10.89" x2="313.02" y2="20.64"/><line class="cls-3" x1="291.04" y1="1" x2="291.32" y2="13.49"/><line class="cls-3" x1="261.87" y1="12.57" x2="270.11" y2="21.95"/><line class="cls-3" x1="332.72" y1="68.66" x2="321.76" y2="62.67"/><line class="cls-3" x1="337.28" y1="37.61" x2="325.04" y2="40.06"/><line class="cls-3" x1="305.77" y1="7.5" x2="302.62" y2="16.83"/><line class="cls-3" x1="276.21" y1="7.93" x2="279.79" y2="17.1"/><line class="cls-3" x1="335.61" y1="53.53" x2="325.88" y2="52.04"/><line class="cls-3" x1="329.07" y1="24.78" x2="320.66" y2="29.9"/><circle class="cls-4" cx="307.13" cy="3.52" r="1.11"/><circle class="cls-4" cx="332.67" cy="22.94" r="1.11"/><circle class="cls-4" cx="340.16" cy="54.24" r="1.11"/><circle class="cls-4" cx="274.27" cy="4.53" r="1.11"/></g></g></svg>