<svg xmlns="http://www.w3.org/2000/svg" viewBox="0 0 588.73 100.49"><defs><style>.cls-1,.cls-2,.cls-3{fill:none;stroke:#4c5d76;}.cls-2,.cls-3{stroke-linecap:round;stroke-linejoin:round;}.cls-2{stroke-width:1.5px;}.cls-3{stroke-width:2px;}.cls-4{fill:#4c5d76;}</style></defs><g id="レイヤー_2" data-name="レイヤー 2"><g id="レイヤー_1-2" data-name="レイヤー 1"><path class="cls-1" d="M27.3,61.59a9.39,9.39,0,0,0-7.85-4.1c-5,0-6.63,3.17-6.63,5.61a4,4,0,0,0,1.51,3.24c1.16,1.08,2.74,1.66,5.76,2.74,3.75,1.3,7.28,2.59,9.73,4.82A13.09,13.09,0,0,1,33.92,84c0,9.36-6.77,15.77-16.71,15.77A19.78,19.78,0,0,1,.65,90.68l6.12-5.83a11.27,11.27,0,0,0,10.08,6.41c4.25,0,7.42-2.59,7.42-6.63a5.58,5.58,0,0,0-1.87-4.32c-1.8-1.65-4.68-2.59-7.42-3.52a23.23,23.23,0,0,1-8-4.18,11.19,11.19,0,0,1-3.82-8.93c0-7.06,4.76-14.11,15.41-14.11a18.45,18.45,0,0,1,13.61,5.61Z"/><path class="cls-1" d="M70.57,88.59H51.2L47,98.68H36.8l20.66-48h7.35l20.09,48H74.82ZM67.83,81,61,63.68,54.15,81Z"/><path class="cls-1" d="M99.87,50.65v40H114.7v8.07H90.51v-48Z"/><path class="cls-1" d="M170.14,74.7c0,14.61-10.51,25.06-25.63,25.06S118.88,89.31,118.88,74.7s10.51-25.13,25.63-25.13S170.14,60.08,170.14,74.7Zm-9.64,0c0-9.72-6.63-16.64-16-16.64s-16,6.92-16,16.64,6.63,16.56,16,16.56S160.5,84.42,160.5,74.7Z"/><path class="cls-1" d="M178.78,98.68v-48h6.48l29.23,32v-32h9.37v48h-6.49L188.14,66.56V98.68Z"/><path class="cls-1" d="M280,88.59H260.64l-4.25,10.09H246.24l20.67-48h7.34l20.09,48H284.26ZM277.28,81l-6.84-17.28L263.6,81Z"/><path class="cls-1" d="M312.48,50.65c6.7,0,12.53.72,17.86,4.68a23.77,23.77,0,0,1,9.22,19.37c0,8-3.31,14.9-9.65,19.37-5.62,4-10.87,4.61-17.57,4.61H300v-48Zm-3.16,40h2.88c2.37,0,7.56-.14,11.73-3.17,3.82-2.73,6-7.63,6-12.74A16,16,0,0,0,324,61.88c-3.88-2.88-8.64-3.17-11.8-3.17h-2.88Z"/><path class="cls-1" d="M360.72,50.65c6.7,0,12.53.72,17.86,4.68A23.77,23.77,0,0,1,387.8,74.7c0,8-3.31,14.9-9.65,19.37-5.62,4-10.87,4.61-17.57,4.61H348.19v-48Zm-3.16,40h2.87c2.38,0,7.57-.14,11.74-3.17,3.82-2.73,6-7.63,6-12.74a16,16,0,0,0-5.91-12.82c-3.88-2.88-8.64-3.17-11.81-3.17h-2.87Z"/><path class="cls-1" d="M410.33,50.65c6.63,0,10,1.73,12.24,3.6a13.64,13.64,0,0,1,4.75,10.8c0,4.68-1.87,8.78-5.61,11.3a13.21,13.21,0,0,1-5.26,2.09l15,20.24H419.76L407,79.38h-1.16v19.3h-9.36v-48Zm-4.54,22.1h2.67c1.8,0,9.22-.21,9.22-7.27s-7.35-7.2-9.08-7.2h-2.81Z"/><path class="cls-1" d="M464.4,58.71H447.12V69.44h16.56v8.07H447.12v13.1H464.4v8.07H437.76v-48H464.4Z"/><path class="cls-1" d="M497.09,61.59a9.39,9.39,0,0,0-7.85-4.1c-5,0-6.62,3.17-6.62,5.61a4,4,0,0,0,1.51,3.24c1.15,1.08,2.74,1.66,5.76,2.74,3.74,1.3,7.27,2.59,9.72,4.82A13.09,13.09,0,0,1,503.71,84c0,9.36-6.76,15.77-16.7,15.77a19.77,19.77,0,0,1-16.56-9.08l6.12-5.83a11.25,11.25,0,0,0,10.08,6.41c4.25,0,7.42-2.59,7.42-6.63a5.59,5.59,0,0,0-1.88-4.32c-1.8-1.65-4.68-2.59-7.41-3.52a23.27,23.27,0,0,1-8-4.18A11.19,11.19,0,0,1,473,63.68c0-7.06,4.75-14.11,15.41-14.11A18.47,18.47,0,0,1,502,55.18Z"/><path class="cls-1" d="M535.54,61.59a9.39,9.39,0,0,0-7.85-4.1c-5,0-6.63,3.17-6.63,5.61a4,4,0,0,0,1.52,3.24c1.15,1.08,2.73,1.66,5.76,2.74,3.74,1.3,7.27,2.59,9.72,4.82A13.09,13.09,0,0,1,542.16,84c0,9.36-6.77,15.77-16.7,15.77a19.77,19.77,0,0,1-16.56-9.08L515,84.85a11.25,11.25,0,0,0,10.08,6.41c4.25,0,7.41-2.59,7.41-6.63a5.58,5.58,0,0,0-1.87-4.32c-1.8-1.65-4.68-2.59-7.42-3.52a23.23,23.23,0,0,1-8-4.18,11.19,11.19,0,0,1-3.81-8.93c0-7.06,4.75-14.11,15.41-14.11a18.44,18.44,0,0,1,13.6,5.61Z"/><path class="cls-2" d="M5.62,86l1.3-.76-5.7,6.23c.27.47,7.12-4.12,7.12-4.12l-5,6.55c.1.18,7.53-4.36,7.54-4.35S5.22,95.41,5.4,95.72c.34.58,8.36-5,8.43-4.87.21.35-5.65,6.68-5.65,6.68.09.16,11.24-7.33,11.6-6.7.21.37-7.76,7.92-7.55,8.27,0,.05,21.37-12.52,21.45-12.38.6,1-16.57,12.42-16.24,13s14.91-8.61,14.91-8.61"/><path class="cls-2" d="M17.49,57.64s10-6.17,10.16-5.86L23.18,58.2s7.38-4.61,7.53-4.35L26,60.11c.11.19,4.28-2.47,4.28-2.47"/><path class="cls-2" d="M7.31,53.6c.06.1,5.34-3.47,5.51-3.18s-9,8.61-8.93,8.74,16.44-9.49,16.44-9.49S2.92,62.49,3.22,63c.83,1.44,20.89-13.66,21.59-12.46.13.22-21.51,15.71-21.3,16.08l9.66-5.58c.15.26-8.9,7.92-8.82,8.06l8.57-5c.08.15-6.89,7.29-6.64,7.72l8.67-5S8.6,73.81,8.6,73.81L18,68.36l-6.21,7.19c.26.45,10.05-5.81,10.05-5.81S15.76,77,15.77,77l9.92-5.73c.25.43-6,7-5.85,7.32S28.93,73.1,29,73.3c.28.48-6.17,7.46-6.17,7.46l8.59-5-7.23,7.85s8.65-5.18,8.73-5c.21.35-9.28,8.87-9.28,8.87s10-5.8,10-5.8"/><path class="cls-2" d="M61.13,63.94s7.36-4.32,7.4-4.26l-6.45,6.64c.29.5,7.44-4.29,7.44-4.29l-6.27,7.25c.11.18,7.49-4.33,7.5-4.33s-6.7,6.49-6.5,6.84c.3.52,7.48-4.46,7.54-4.35.22.38-6.44,7.12-6.44,7.12s7.36-4.79,7.59-4.38-6.5,7.26-6.32,7.57c0,0,7.62-4.47,7.65-4.42.28.49-6.66,7-6.51,7.3s7.71-4.45,7.71-4.45"/><path class="cls-2" d="M51.9,88.57S64.8,80.59,65,81l-6.47,7.57S76,77.69,76.35,78.29L64.74,88.55c.33.57,12.81-7.4,12.81-7.4.23.39-6.76,7.91-6.76,7.91s8.12-4.69,8.12-4.69c.19.32-6.84,7.7-6.83,7.71s8.1-4.68,8.1-4.68c.14.25-7.18,7-7,7.35l8.1-4.67S74.1,97,74.39,97.51c0,0,7.86-5.05,8.08-4.66,0,0-3.51,5.48-3.33,5.79L83.78,96"/><path class="cls-2" d="M57.25,51.28s1-.63,1-.58S55.16,56,55.2,56.06s9.33-5.39,9.33-5.39S53,60.31,53.21,60.68c.49.84,12.27-8,12.68-7.32.09.16-15,12.09-14.85,12.35L67.17,56.4c.29.49-18,13-17.82,13.26L68.18,58.79c.23.39-21.7,14.93-21.06,16l12.2-7S45.26,79.16,45.26,79.16L57.68,72,43.2,84c.33.57,12.66-7.31,12.66-7.31C56,76.82,41,88.93,41.05,89L54.78,81c.55,1-16.39,12.48-16,13.17C39.45,95.33,61.36,80.52,61.64,81c.85,1.47-23.76,17.61-23.76,17.61l11.95-6.89-5.59,6.9s3.54-2.12,3.57-2.07"/><path class="cls-2" d="M90.54,51.11a8.15,8.15,0,0,1,.75-.44c.06.11-.78,4-.75,4s7-4.05,7-4.05-7.15,7.27-7,7.52c.36.62,9-5.89,9.3-5.37.07.11-9.4,9-9.3,9.16l9.3-5.38c.16.28-9.38,8.2-9.3,8.34l9.31-5.37c.11.19-9.63,8.71-9.31,9.26l9.31-5.38s-9.31,8.63-9.31,8.63l9.31-5.37-9.31,9c.24.42,9.31-5.37,9.31-5.37s-9.32,9.11-9.31,9.13L99.86,74c.35.6-9.57,8.88-9.32,9.32s9.21-5.58,9.32-5.39c.38.66-9.32,9.29-9.32,9.29l9.32-5.39-9.32,9.06s9.24-5.53,9.33-5.39c.2.36-9.33,8.91-9.33,8.91s9.33-5.39,9.33-5.39c.11.19-9.61,8.56-9.33,9,.41.7,12.93-7.47,12.93-7.47.34.6-7.53,8-7.52,8s13.9-8.12,13.94-8c.31.54-8.24,8-8.22,8l13-7.5c.31.52-6.49,7.12-6.27,7.49L114.69,95s-.82,3.54-.76,3.63.75-.49.77-.45"/><path class="cls-2" d="M139.52,58.72s13.34-8.25,13.58-7.84l-6,7.31s9.74-6.07,9.93-5.74l-5.79,6.9c.23.4,8.81-5.08,8.81-5.08.2.33-5.41,7.13-5.41,7.13s8.26-4.77,8.26-4.77c.17.29-5.89,7.16-5.88,7.17s8.08-4.67,8.08-4.67c.13.23-6.72,6.73-6.52,7.09l8.12-4.69s-7.26,7-7,7.46c0,0,8.08-5.19,8.3-4.79,0,0-7.88,7.74-7.59,8.25l8.71-5c.26.46-8.66,9-8.66,9s9.23-5.65,9.37-5.42-10.07,9.16-10.07,9.16c.31.52,10.28-6,10.29-5.94L156.93,85.66c.39.67,12.94-7.47,12.94-7.47"/><path class="cls-2" d="M127.38,55.51c.07.13,7-4.57,7.25-4.19s-12.8,10.75-12.7,10.92,21.82-12.6,21.82-12.6-24.1,16.44-23.69,17.15c1.12,1.95,28.18-18.42,29.11-16.81.18.32-30.29,20.62-30,21.11l13-7.52C132.41,64,118.84,74,119,74.18L129.64,68c.12.22-10.87,9.35-10.51,10l9.45-5.46s-9,8.43-9,8.43l8.88-5.13-8,8.2c.22.38,8.43-4.87,8.43-4.87S121.85,87,121.85,87L130,82.29c.26.45-6.54,7.27-6.35,7.6s8-4.83,8.08-4.66c.27.46-5.84,7.27-5.84,7.27l8.23-4.75-5.68,7s8.6-5.15,8.68-5-5.78,6.86-5.78,6.86S141,91,141,91s-6.27,6.8-6.07,7.15c.38.65,12.11-7,12.11-7,.35.6-7.69,8.11-7.68,8.12S169,82,169.1,82.1c.83,1.42-24.83,17.47-24.76,17.59l23.17-13.37c.57,1-14.59,11.34-14.18,12.06l9.2-5.31"/><path class="cls-2" d="M214.49,51.11l.76-.44L214.5,54c.22.39,5.84-3.37,5.84-3.37l-5.84,7c.13.22,9.32-5.39,9.33-5.39s-9.6,8-9.33,8.47c.37.64,9.25-5.52,9.33-5.38.3.51-9.32,8.79-9.32,8.79s9-5.89,9.32-5.38-9.56,8.87-9.32,9.29c0,0,9.29-5.44,9.32-5.38.37.65-9.52,8.64-9.32,9s9.33-5.38,9.33-5.38c.31.55-9.33,8.35-9.32,8.36.22.39,9.32-5.38,9.32-5.38l-9.32,8.47,9.32-5.38c.06.1-9.32,9.29-9.32,9.29.28.48,9.32-5.38,9.32-5.38"/><path class="cls-2" d="M188.37,66.77s7.44-4.6,7.57-4.37l-5.28,6.88s7.42-4.63,7.57-4.37l-5.45,6.7c.2.34,7.57-4.37,7.57-4.37.19.32-5.18,7-5.18,7s7.58-4.38,7.58-4.38c.16.27-5.34,6.84-5.33,6.85S205,72.33,205,72.33c.12.21-5.78,6.24-5.6,6.56L207,74.51s-5.78,6.21-5.54,6.63c0,0,7.38-4.74,7.59-4.38,0,0-5.51,6.52-5.28,6.92l7.59-4.39c.19.32-5.2,7-5.2,7s7.49-4.58,7.6-4.39-5.6,6.58-5.6,6.58c.46.8,15.68-9.08,15.69-9.06L210.44,91c.4.7,13.41-7.74,13.41-7.74.33.58-11.4,9.86-11.25,10.12s11.25-6.5,11.25-6.5L215,96c0,.07,8.61-5.58,8.87-5.13s-7.12,6.91-6.91,7.28c0,0,6.68-4.4,6.91-4,.11.18-1.4,4.49-1.4,4.5s1.39-.85,1.4-.81"/><path class="cls-2" d="M178.81,51.11a8,8,0,0,1,.75-.43c.06.1-.78,4-.75,4s6.62-3.82,6.62-3.82-6.76,7-6.62,7.29c.33.58,8.42-5.5,8.69-5,.07.11-8.79,8.64-8.69,8.81l11-6.33c.18.32-11.05,9.13-11,9.29l12.73-7.35c.14.25-13.14,10.53-12.73,11.24l15.05-8.69s-15.05,11.94-15.05,11.94l9.3-5.37-9.3,9c.24.42,9.3-5.37,9.3-5.37s-9.31,9.11-9.3,9.13l9.31-5.37c.35.6-9.56,8.87-9.31,9.31s9.2-5.58,9.31-5.38c.38.65-9.31,9.28-9.31,9.28l9.31-5.38-9.31,9.05s9.23-5.53,9.32-5.38c.2.35-9.32,8.9-9.32,8.9s9.32-5.38,9.32-5.38c.11.18-9.6,8.55-9.32,9s9.32-5.38,9.32-5.38c.23.38-3.9,5.93-3.89,5.94s3.89-2.27,3.9-2.25"/><path class="cls-2" d="M270.58,63.94s7.36-4.32,7.39-4.26l-6.45,6.64c.29.5,7.44-4.29,7.44-4.29l-6.26,7.25c.1.18,7.49-4.33,7.49-4.33s-6.7,6.49-6.49,6.84c.3.52,7.47-4.46,7.54-4.35.22.38-6.44,7.12-6.44,7.12s7.35-4.79,7.59-4.38-6.51,7.26-6.33,7.57c0,0,7.63-4.47,7.65-4.42.28.49-6.66,7-6.5,7.3s7.7-4.45,7.7-4.45"/><path class="cls-2" d="M261.34,88.57s12.9-8,13.13-7.58L268,88.56s17.44-10.87,17.79-10.27L274.18,88.55c.33.57,12.82-7.4,12.82-7.4.22.39-6.76,7.91-6.76,7.91s8.11-4.69,8.11-4.69c.19.32-6.83,7.7-6.83,7.71s8.11-4.68,8.11-4.68c.14.25-7.19,7-7,7.35l8.09-4.67s-7.21,6.93-6.92,7.43c0,0,7.86-5.05,8.09-4.66,0,0-3.51,5.48-3.34,5.79L293.22,96"/><path class="cls-2" d="M266.7,51.28s1-.63,1-.58-3.09,5.29-3.06,5.36S274,50.67,274,50.67s-11.54,9.64-11.32,10c.48.84,12.27-8,12.67-7.32.1.16-15,12.09-14.84,12.35l16.13-9.31c.28.49-18,13-17.83,13.26l18.84-10.87c.22.39-21.71,14.93-21.06,16l12.2-7S254.7,79.16,254.7,79.16L267.12,72,252.64,84c.33.57,12.67-7.31,12.67-7.31.1.18-14.83,12.29-14.82,12.31L264.23,81c.54,1-16.39,12.48-16,13.17.66,1.14,22.56-13.67,22.84-13.19.85,1.47-23.75,17.61-23.75,17.61l11.95-6.89-5.6,6.9s3.54-2.12,3.58-2.07"/><path class="cls-2" d="M310.15,58.67s11.94-7.38,12.15-7l-5.92,7.25s9.88-6.16,10.07-5.82L320.66,60c.24.4,8.9-5.14,8.9-5.14.19.34-5.36,7.11-5.36,7.11s8.23-4.75,8.23-4.75c.17.28-5.85,7.13-5.85,7.14s8.06-4.65,8.06-4.65c.14.23-6.73,6.73-6.52,7.09l8.12-4.69s-7.3,7-7,7.49c0,0,8.11-5.22,8.34-4.82,0,0-8,7.79-7.68,8.3L338.65,68c.27.47-8.85,9.12-8.85,9.12s9.38-5.74,9.52-5.5-10.52,9.42-10.52,9.42c.32.54,10.68-6.19,10.69-6.18L325.35,86.34c.42.72,13.91-8,13.91-8"/><path class="cls-2" d="M300,51.14a8,8,0,0,1,.75-.43c.07.1-.77,4-.75,4s7-4,7-4-7.11,7.24-7,7.49c.5.87,12.56-8.21,13-7.49.08.15-13.11,11-13,11.28L319,51.05c.3.52-19.09,13.63-18.94,13.9l9.25-5.33c.11.19-9.56,8.67-9.25,9.22l9.25-5.34S300,72.09,300,72.09l9.26-5.34L300,75.69c.25.42,9.27-5.34,9.27-5.34S300,79.43,300,79.45l9.27-5.35c.35.6-9.52,8.85-9.27,9.29s9.17-5.55,9.28-5.36c.38.65-9.28,9.26-9.28,9.26l9.29-5.36L300,91s9.21-5.51,9.3-5.37c.2.36-9.3,8.89-9.3,8.89s9.3-5.37,9.3-5.37c.11.19-9.57,8.54-9.3,9,.41.7,12.93-7.47,12.93-7.47.34.59-7.44,8-7.43,8s33.5-19.57,33.6-19.4c.92,1.59-27.91,19.24-27.84,19.37l26.85-15.5c.76,1.32-20.14,14.24-19.6,15.19l16.78-9.69"/><path class="cls-2" d="M358.39,58.67s11.94-7.38,12.15-7l-5.92,7.25s9.88-6.16,10.07-5.82L368.9,60c.23.4,8.9-5.14,8.9-5.14.19.34-5.36,7.11-5.36,7.11s8.23-4.75,8.23-4.75c.17.28-5.85,7.13-5.85,7.14s8.06-4.65,8.06-4.65c.14.23-6.73,6.73-6.52,7.09l8.12-4.69s-7.3,7-7,7.49c0,0,8.11-5.22,8.34-4.82,0,0-8,7.79-7.68,8.3L386.89,68c.27.47-8.85,9.12-8.85,9.12s9.38-5.74,9.52-5.5S377,81.05,377,81.05c.32.54,10.68-6.19,10.69-6.18L373.59,86.34c.42.72,13.91-8,13.91-8"/><path class="cls-2" d="M348.25,51.14a8,8,0,0,1,.75-.43c.07.1-.77,4-.75,4s7-4,7-4-7.11,7.24-7,7.49c.5.87,12.56-8.21,13-7.49.08.15-13.11,11-13,11.28l18.94-10.94c.3.52-19.09,13.64-18.94,13.9l9.25-5.33c.11.19-9.56,8.67-9.25,9.22l9.25-5.34s-9.25,8.6-9.25,8.6l9.26-5.35-9.26,8.94c.25.42,9.27-5.34,9.27-5.34s-9.28,9.08-9.27,9.1l9.27-5.35c.35.6-9.52,8.85-9.27,9.29s9.17-5.55,9.28-5.36c.38.65-9.28,9.26-9.28,9.26l9.29-5.36-9.29,9s9.21-5.51,9.3-5.37c.2.36-9.3,8.89-9.3,8.89s9.3-5.37,9.3-5.37c.11.19-9.57,8.54-9.3,9,.41.7,12.94-7.47,12.94-7.47.33.59-7.45,8-7.44,8s33.5-19.57,33.6-19.4c.92,1.59-27.91,19.24-27.84,19.37l26.85-15.5c.76,1.32-20.14,14.24-19.6,15.19l16.78-9.69"/><path class="cls-2" d="M406.55,79.34s20.43-12,20.53-11.85L408.25,81.28C408.94,82.47,426.09,71,426.09,71L410,83.91c.1.17,7.3-4.22,7.3-4.22s-6,6.12-5.81,6.44c.29.51,7.35-4.38,7.41-4.28.21.36-5.77,6.75-5.77,6.75s7.3-4.77,7.54-4.36-5.83,6.9-5.66,7.19c0,0,7.66-4.49,7.69-4.44.27.46-6.1,6.8-5.95,7.05s7.83-4.52,7.83-4.52c.23.41-6.4,6.67-6.4,6.68.19.32,7.94-4.59,7.94-4.59l-6.45,6.82,8.06-4.65s-1.63,4.85-1.63,4.85c.11.19,3.66-2.11,3.66-2.11"/><path class="cls-2" d="M406.62,58.24s11.07-6.84,11.26-6.5l-5.39,6.95s8.82-5.5,9-5.19l-5.76,6.88c.21.37,8.2-4.74,8.2-4.74.22.38-6.44,7.73-6.44,7.73s8.37-4.83,8.37-4.83c.22.37-8.27,8.52-8.26,8.53s9.33-5.38,9.33-5.38"/><path class="cls-2" d="M396.49,51.14a8,8,0,0,1,.75-.43c.07.1-.77,4-.75,4s7-4,7-4-7.11,7.24-7,7.49c.5.87,12.57-8.21,13-7.49.08.14-13.12,11-13,11.28l18.84-10.88c.3.52-19,13.58-18.84,13.84l9.25-5.34c.11.2-9.56,8.68-9.25,9.23l9.27-5.35s-9.27,8.6-9.27,8.6l9.28-5.35-9.28,9c.25.42,9.29-5.36,9.29-5.36s-9.3,9.1-9.29,9.12L408,72.81c.41.72-11.8,10.06-11.5,10.58.89,1.53,30.38-18.41,30.76-17.76,1.08,1.87-30.76,21.66-30.76,21.66L405.74,82l-9.25,9s9.18-5.49,9.26-5.35c.21.36-9.26,8.87-9.26,8.87s9.28-5.35,9.28-5.35c.1.18-9.55,8.52-9.28,9s9.29-5.36,9.29-5.36c.21.38-3.78,5.86-3.77,5.87s3.77-2.2,3.78-2.18"/><path class="cls-2" d="M447.84,77.5s13.9-8.17,14-8.06l-8.87,8c.41.72,10.73-6.19,10.73-6.19l-4.42,6.18c.06.11,4.43-2.56,4.43-2.55"/><path class="cls-2" d="M447.84,58.71s13.72-8.48,14-8.06l-7.29,8.05s9.68-6,9.87-5.7l-3.7,5.69a31.24,31.24,0,0,0,3.72-2.15"/><path class="cls-2" d="M437.79,51.11a8,8,0,0,1,.75-.43c.06.1-.77,4-.75,4s7-4,7-4-7.12,7.25-7,7.5c.5.87,12.59-8.23,13-7.51.08.15-13.14,11.06-13,11.3l19.57-11.31c.31.54-19.73,14-19.57,14.27l9.3-5.37c.12.19-9.62,8.71-9.3,9.26l9.32-5.38s-9.32,8.63-9.32,8.63l9.32-5.38-9.32,9c.28.49,10.73-6.19,10.73-6.19s-10.74,9.93-10.73,10l17.26-10c.58,1-17.69,13.16-17.26,13.9.27.46,9.19-5.57,9.3-5.37.38.65-9.3,9.27-9.3,9.27l9.31-5.38-9.31,9.05s9.24-5.53,9.32-5.38c.21.35-9.32,8.9-9.32,8.9s9.33-5.39,9.33-5.39c.11.19-9.61,8.56-9.33,9,.41.7,12.93-7.47,12.93-7.47.34.6-7.53,8-7.52,8s13.9-8.12,13.94-8c.31.54-8.24,8-8.22,8l13.95-8c.33.58-7.46,7.63-7.22,8l8.73-5s-3.29,4.9-3.21,5,3.14-2,3.23-1.86"/><path class="cls-2" d="M475.41,86s1.3-.77,1.31-.75L471,91.42c.28.47,7.13-4.12,7.13-4.12l-5.05,6.55c.11.18,7.54-4.36,7.54-4.35s-5.61,5.91-5.43,6.22c.33.58,8.36-5,8.43-4.87.2.35-5.66,6.68-5.66,6.68.1.16,11.24-7.33,11.6-6.7.22.37-7.75,7.92-7.55,8.28,0,0,21.37-12.53,21.45-12.39.6,1-16.57,12.42-16.24,13s14.92-8.61,14.92-8.61"/><path class="cls-2" d="M487.29,57.64s10-6.17,10.16-5.86L493,58.2s7.39-4.6,7.53-4.35l-4.68,6.26c.11.19,4.27-2.47,4.27-2.47"/><path class="cls-2" d="M477.1,53.6c.06.1,5.35-3.47,5.52-3.18s-9,8.61-8.93,8.74,16.44-9.49,16.44-9.49S472.71,62.49,473,63c.83,1.44,20.89-13.66,21.58-12.46.13.22-21.5,15.71-21.29,16.08L483,61.06c.15.26-8.9,7.92-8.82,8.06l8.56-5c.09.15-6.89,7.3-6.64,7.72l8.68-5s-6.35,6.93-6.35,6.93l9.43-5.45-6.21,7.19c.26.45,10.05-5.81,10.05-5.81S485.56,77,485.56,77l9.92-5.72c.25.42-6,7-5.85,7.31s9.09-5.51,9.2-5.31c.28.48-6.16,7.46-6.16,7.46l8.59-5L494,83.65s8.66-5.18,8.74-5c.2.35-9.28,8.87-9.28,8.87s10-5.8,10-5.8"/><path class="cls-2" d="M513.86,86s1.3-.77,1.31-.76l-5.71,6.23c.27.47,7.12-4.12,7.12-4.12l-5,6.55c.1.18,7.54-4.36,7.54-4.35s-5.62,5.91-5.44,6.22c.34.58,8.36-5,8.44-4.87.2.35-5.66,6.68-5.66,6.68.1.16,11.24-7.33,11.6-6.7.22.37-7.75,7.92-7.55,8.27,0,.05,21.37-12.52,21.45-12.38.6,1-16.57,12.42-16.24,13s14.91-8.61,14.91-8.61"/><path class="cls-2" d="M525.74,57.64s10-6.17,10.16-5.86l-4.48,6.42s7.39-4.61,7.53-4.35l-4.69,6.26c.12.19,4.28-2.47,4.28-2.47"/><path class="cls-2" d="M515.55,53.6c.06.1,5.34-3.47,5.51-3.18s-9,8.61-8.93,8.74,16.44-9.49,16.44-9.49S511.16,62.49,511.46,63c.84,1.44,20.89-13.66,21.59-12.46.13.22-21.51,15.71-21.3,16.08l9.66-5.58c.16.26-8.9,7.92-8.82,8.06l8.57-5c.09.15-6.89,7.29-6.64,7.72l8.68-5s-6.36,6.93-6.36,6.93l9.43-5.45-6.21,7.19c.27.45,10.06-5.81,10.06-5.81S524,77,524,77l9.92-5.73c.25.43-6,7-5.85,7.32s9.09-5.51,9.2-5.31c.28.48-6.16,7.46-6.16,7.46l8.59-5-7.24,7.85s8.65-5.18,8.73-5c.21.35-9.27,8.87-9.27,8.87s10-5.8,10-5.8"/><line class="cls-3" x1="568.3" y1="10.89" x2="560.49" y2="20.64"/><line class="cls-3" x1="538.51" y1="1" x2="538.8" y2="13.49"/><line class="cls-3" x1="509.34" y1="12.57" x2="517.58" y2="21.95"/><line class="cls-3" x1="580.19" y1="68.66" x2="569.23" y2="62.67"/><line class="cls-3" x1="584.75" y1="37.61" x2="572.51" y2="40.06"/><line class="cls-3" x1="553.25" y1="7.5" x2="550.09" y2="16.83"/><line class="cls-3" x1="523.68" y1="7.93" x2="527.26" y2="17.1"/><line class="cls-3" x1="583.09" y1="53.53" x2="573.35" y2="52.04"/><line class="cls-3" x1="576.54" y1="24.78" x2="568.13" y2="29.9"/><circle class="cls-4" cx="554.61" cy="3.52" r="1.11"/><circle class="cls-4" cx="580.14" cy="22.94" r="1.11"/><circle class="cls-4" cx="587.63" cy="54.24" r="1.11"/><circle class="cls-4" cx="521.74" cy="4.53" r="1.11"/></g></g></svg>