<svg xmlns="http://www.w3.org/2000/svg" viewBox="0 0 365.48 51.6"><defs><style>.cls-1,.cls-2{fill:none;stroke:#4c5d76;}.cls-2{stroke-linecap:round;stroke-linejoin:round;stroke-width:1.5px;}</style></defs><g id="レイヤー_2" data-name="レイヤー 2"><g id="レイヤー_1-2" data-name="レイヤー 1"><path class="cls-1" d="M37.85,48.09A24.9,24.9,0,0,1,26,50.9C17.55,50.9,12.43,48,8.4,44.2A24,24,0,0,1,.7,25.84c0-8.72,3.6-15,7.7-18.8C13.23,2.51,19.2.71,26,.71a24.08,24.08,0,0,1,11.81,3V14.6A15.44,15.44,0,0,0,26.26,9.2C16.61,9.2,10.35,17.12,10.35,26c0,10.66,8.2,16.42,16.27,16.42a14.56,14.56,0,0,0,11.23-5.26Z"/><path class="cls-1" d="M74.93,39.73H55.56L51.31,49.82H41.16l20.66-48h7.35l20.09,48H79.18ZM72.19,32.1,65.35,14.82,58.51,32.1Z"/><path class="cls-1" d="M101.35,1.79h6.77l12.75,30.53L134.19,1.79H141l8.06,48h-9.5l-4.33-29.6-12.88,29.6h-3.17l-12.32-29.6-4.89,29.6H92.42Z"/><path class="cls-1" d="M171.48,1.79c5.4,0,9.15.57,12.67,3.67a15.31,15.31,0,0,1,4.9,11.59c0,1.87-.29,7.06-4,10.73-2.66,2.67-6.62,4.25-12.17,4.25h-6V49.82h-9.36v-48ZM166.87,24h3.82c1.8,0,4.1,0,6.12-1.52a7.16,7.16,0,0,0,2.59-5.61,6.64,6.64,0,0,0-2.66-5.48c-2-1.36-4.4-1.51-6.63-1.51h-3.24Z"/><path class="cls-1" d="M224.4,39.73H205l-4.25,10.09H190.63l20.67-48h7.34l20.09,48H228.65Zm-2.73-7.63-6.85-17.28L208,32.1Z"/><path class="cls-1" d="M253.7,1.79v48h-9.36v-48Z"/><path class="cls-1" d="M289,24.11h22v.57c0,3.25-.43,13.33-7.06,19.88-5,5-11.09,6.34-17.06,6.34s-12.17-1.23-17.43-6.48c-1.66-1.66-7.13-7.71-7.13-18.51A24.54,24.54,0,0,1,269.4,8.05C273,4.38,279.05.71,288.34.71a23.21,23.21,0,0,1,11.09,2.52,22.6,22.6,0,0,1,9,8.78l-8.14,4.39a13,13,0,0,0-5.62-5.68A15.69,15.69,0,0,0,287.9,9.2a16.22,16.22,0,0,0-11.08,4.25A17.91,17.91,0,0,0,272,26.13c0,6.4,2.74,10.22,4.75,12.16A14.78,14.78,0,0,0,287.4,42.4a16,16,0,0,0,9.43-2.88,12.76,12.76,0,0,0,4.54-7.35H289Z"/><path class="cls-1" d="M319.65,49.82v-48h6.48l29.24,32v-32h9.36v48h-6.48L329,17.7V49.82Z"/><path class="cls-2" d="M21.47,9.88,34.69,2.25c.31.55-6.31,6.67-6,7.13l9.17-5.29c.11.18-5.34,6.45-5.34,6.45s5.14-3.43,5.34-3.08c0,.07-2.42,4.82-2.42,4.82l2.42-1.39c.06.1-.26,3.36-.26,3.36l.26-.16"/><path class="cls-2" d="M9.25,6.33l7-4L4,12.78S24.53.32,24.78.76c.15.26-23,16-22.72,16.41C2.58,18.09,29.64.4,30,1,30,1,.73,20.21,1.13,20.91,1.94,22.3,32.77,0,33.91,2,34.41,2.84.75,24.71.75,24.71c.39.67,11.15-6.8,11.31-6.52,0,0-11.45,9.34-11.27,9.65,0,0,9.69-6.16,9.94-5.73s-9.66,8.41-9.64,8.45c.11.19,9.14-5.51,9.25-5.33.38.66-8.68,8-8.68,8,.19.32,8.44-5.63,8.77-5.06.07.12-7.75,8-7.75,8,.17.3,8.29-5,8.38-4.84.36.62-6.84,7.79-6.84,7.79s8.15-4.7,8.15-4.7S6,41.48,6.25,41.84c.09.16,7.94-5,8.13-4.69,0,0-6.3,6.69-6.3,6.69.14.24,8.34-4.82,8.35-4.82S10,45.29,10.28,45.79s8.83-5.1,8.83-5.1-6.56,6.71-6.56,6.71,9.63-5.56,9.63-5.56L16,49.12s11.27-7.39,11.65-6.73l-8.31,7.77S37.56,39,37.82,39.48L23.7,50.79s14.13-8.16,14.13-8.16-6.65,7.73-6.64,7.75,6.51-4.07,6.65-3.83"/><path class="cls-2" d="M65.5,15.09c.28.49,7.39-4.27,7.39-4.27.1.16-6.32,7.11-6.14,7.43S74,13.66,74.21,14s-6.34,7.11-6.34,7.11l7.5-4.33c.24.41-6.56,6.88-6.32,7.3,0,0,7.56-4.36,7.56-4.36.23.39-6.26,7.64-6.26,7.64L78,22.91s-6.66,6.89-6.6,7l7.67-4.42"/><path class="cls-2" d="M56.26,39.71l13.13-7.58c.34.6-7.09,7.07-6.8,7.57L80.65,29.27c.2.36-12.2,10.42-12.2,10.42S81.29,31.12,81.79,32c.08.14-7.38,7.69-7.38,7.69s8.53-5,8.54-4.93c.18.3-7,7.28-7,7.28L84,37.35S77.12,44.87,77.21,45c0,0,7.78-5.23,8.1-4.68l-7,7.15c.26.45,8.09-4.67,8.09-4.67.18.3-6.67,6.62-6.48,6.95l7.57-4.37c.1.17-1.06,4.35-1.06,4.35s2.32-1.34,2.32-1.34"/><path class="cls-2" d="M61.62,2.42l1-.58L59.67,7s8.79-5.32,8.89-5.14-10.91,9.28-10.77,9.52C58,11.73,70,3.92,70.12,4.2c0,0-14.37,11-14.17,11.39.38.65,14.73-9.73,15.26-8.81.27.47-17.31,13.58-17.31,13.58.63,1.09,18.27-11.15,18.53-10.7,0,0-20.65,14.36-20.34,14.9,0,0,11.83-7.53,12.13-7S50.4,28.34,50.44,28.4c.14.25,12.18-7.35,12.32-7.11.58,1-14,11-14,11,.27.47,12.06-8,12.53-7.23C61.39,25.3,46.76,37,46.76,37c.26.46,12.62-7.6,12.76-7.37.67,1.17-15,12.49-15,12.49.11.19,17.2-9.93,17.2-9.93s-20,14.29-19.47,15.22c.15.26,12.89-8.18,13.21-7.63,0,0-12.05,10-12.05,10,.17.29,10.37-6,10.37-6s-5,5.57-4.8,6A25.41,25.41,0,0,0,52,48"/><path class="cls-2" d="M135.27,20.51c.22.38,7.8-5,8-4.64,0,0-7.74,7.21-7.63,7.39s8.09-4.67,8.09-4.67c.3.52-8,7.31-7.61,7.93,0,0,8.11-4.79,8.15-4.71l-7.63,8.29c.27.47,8.1-5,8.23-4.75.31.55-8.11,7.5-7.74,8.15l8.3-4.8s-7.83,8.21-7.79,8.28l8.38-4.83c.29.51-8.31,7.33-7.91,8l8.43-4.87-7.93,8.33,8.51-4.92-8.1,7.75s8.54-5,8.57-4.94-8.13,7.92-8.13,7.92,8.38-5.42,8.63-5c0,.06-2.69,5.35-2.68,5.37.12.2,3.25-1.92,3.26-1.89"/><path class="cls-2" d="M133.93,2.4a6.35,6.35,0,0,0,1-.59c.07.12-3.4,5.56-3.27,5.79.29.5,9.12-5.75,9.33-5.39.3.52-11.34,10-11.34,10l11.87-6.85c.45.78-14.46,10.94-14,11.73,0,.08,14.56-8.4,14.56-8.4.5.86-16.91,13.79-16.91,13.79l17.53-10.12s-19.53,14.11-19.38,14.38L143.2,15.27,121.43,31.09s11.67-7.55,12-6.94"/><path class="cls-2" d="M107,20.46l7.19-4.15c.32.55-6.23,6.63-6,7.09l7.2-4.15c.11.2-6.07,6.87-6.07,6.87s6.93-4.62,7.2-4.16c.07.13-6.05,6.93-6.05,6.93s7.19-4.18,7.2-4.16c.16.27-6.11,6.76-6.11,6.76l7.2-4.16s-6,7-6,7.18,6.93-4.65,7.21-4.16L113.84,37c.6,1,18.73-10.82,18.73-10.82.42.72-18.1,12.64-17.66,13.41l15.8-9.12c.42.73-14.54,12.13-14.54,12.13.16.29,12.37-7.14,12.37-7.14.35.61-11.77,8.91-11.28,9.77.06.11,9.39-5.43,9.39-5.43.27.47-8.08,8.59-8.08,8.59l5.8-3.35s-3.05,4.73-3,4.76l1.29-.74"/><path class="cls-2" d="M101.29,2.3l.84-.48-1.55,4.29S108,1.64,108.05,1.8s-8.26,7.81-8.16,8,9.18-5.58,9.3-5.37c0,0-10.12,8.69-10,9,.27.47,10.65-7,11-6.37.19.34-11.79,10.39-11.79,10.39.44.77,12.81-7.82,13-7.5,0,0-13.86,10.67-13.65,11,0,0,14.35-9.13,14.72-8.5S97.18,24.11,97.22,24.18c.19.33,16.11-9.73,16.29-9.41.69,1.19-16.9,12.71-16.9,12.71.21.36,9.56-6.38,9.93-5.74.09.16-10.66,9.64-10.66,9.64.21.36,9.92-6,10-5.79.51.89-10.83,10.1-10.83,10.1s10.13-5.85,10.13-5.85-11.29,9.74-11,10.31c.12.2,10-6.34,10.24-5.91L93.61,43.57c.17.29,10.32-6,10.32-6s-11.44,8.77-11,9.56c.28.49,10.4-6,10.4-6,.11.2-9.93,8.65-9.93,8.65s9.4-5.43,9.4-5.43l-2.94,5.4a15.38,15.38,0,0,1,2.26-1.3"/><path class="cls-2" d="M167.58,32c.81,1.42,21.21-12.24,21.21-12.24.18.32-14.66,11.52-14.3,12.14s12.58-7.93,12.86-7.43"/><path class="cls-2" d="M167.7,9.81l12-6.92c.32.55-6.35,6.7-6.08,7.16L183,4.63c.12.2-6,6.85-6,6.85s8-5.34,8.31-4.8c.08.13-6.45,7.16-6.45,7.16S187,9.09,187,9.11c.19.33-7.55,7.6-7.55,7.6l8.68-5s-10.26,9.37-10.13,9.6c0,0,10.43-7,10.86-6.27"/><path class="cls-2" d="M157.57,2.28l.75-.43-.75,3.83s6.56-4,6.64-3.83-6.73,7-6.64,7.12c.23.4,12.18-7.4,12.34-7.12,0,0-12.52,10-12.34,10.32C158,12.92,174.6.92,175.21,2c.28.48-17.64,13.77-17.64,13.77.32.55,9.11-5.56,9.24-5.34,0,0-9.39,8.23-9.24,8.5,0,0,9-5.75,9.26-5.35s-9.28,8.19-9.26,8.24,9.17-5.54,9.27-5.35c.4.7-9.27,8.29-9.27,8.29.2.35,8.94-6,9.28-5.36.08.14-9.28,8.85-9.28,8.85.19.33,9.2-5.54,9.3-5.37.45.78-9.3,9.21-9.3,9.21.09.16,14-8.06,14-8.06s-14.37,11.34-14,12S188.21,16.62,189,17.94c0,0-31.4,21.18-31.4,21.18.15.26,9.24-5.35,9.25-5.34s-9.64,7.87-9.25,8.55c.25.44,9.26-5.34,9.26-5.34.11.19-9.26,8.26-9.26,8.26s9.27-5.35,9.27-5.35L157.57,49s9-5.89,9.28-5.36l-5.58,6.19s5.51-3.37,5.59-3.23"/><path class="cls-2" d="M215,15.09c.28.49,7.39-4.27,7.39-4.27.1.16-6.32,7.11-6.14,7.43s7.29-4.59,7.46-4.3-6.34,7.11-6.34,7.11l7.51-4.33c.24.41-6.57,6.88-6.33,7.3,0,0,7.56-4.36,7.56-4.36.23.39-6.25,7.64-6.25,7.64l7.62-4.4s-6.66,6.89-6.59,7l7.66-4.42"/><path class="cls-2" d="M205.73,39.71l13.13-7.58c.34.6-7.08,7.07-6.8,7.57l18.06-10.43c.2.35-12.2,10.42-12.2,10.42s12.84-8.57,13.34-7.7c.09.14-7.38,7.69-7.38,7.69s8.53-5,8.54-4.93c.18.3-7,7.28-7,7.28l8.11-4.68s-6.92,7.52-6.83,7.69c0,0,7.78-5.23,8.1-4.68l-7.05,7.15c.26.45,8.09-4.67,8.09-4.67.18.3-6.67,6.62-6.48,6.95l7.57-4.37c.1.17-1.06,4.35-1.06,4.35s2.32-1.34,2.32-1.34"/><path class="cls-2" d="M211.09,2.42l1-.58-3,5.11s8.79-5.32,8.89-5.14-10.91,9.28-10.77,9.52c.23.4,12.17-7.41,12.34-7.13,0,0-14.38,11-14.18,11.39.38.65,14.73-9.73,15.26-8.81.28.47-17.31,13.58-17.31,13.58.63,1.09,18.27-11.15,18.53-10.7,0,0-20.65,14.36-20.34,14.9,0,0,11.83-7.53,12.13-7S199.87,28.34,199.91,28.4c.14.25,12.18-7.35,12.32-7.11.58,1-14,11-14,11,.27.47,12.06-8,12.53-7.23.11.21-14.52,11.87-14.52,11.87.26.46,12.62-7.6,12.76-7.37.67,1.17-15,12.49-15,12.49.11.19,17.2-9.93,17.2-9.93s-20,14.29-19.47,15.22c.15.26,12.89-8.18,13.21-7.63,0,0-12.05,10-12.05,10,.17.29,10.37-6,10.37-6s-5,5.57-4.8,6a25.41,25.41,0,0,0,3-1.76"/><path class="cls-2" d="M244.37,2.25l.76-.44-.76,3.84s6.6-4,6.68-3.85-6.77,7-6.68,7.14c.18.31,9.18-5.58,9.3-5.37,0,0-9.44,8.32-9.3,8.57s9-5.93,9.31-5.37c.16.28-9.31,9-9.31,9,.32.55,9.18-5.6,9.31-5.37,0,0-9.46,8.26-9.31,8.53,0,0,9.08-5.78,9.31-5.38s-9.33,8.22-9.31,8.27,9.21-5.56,9.31-5.38c.41.7-9.31,8.32-9.31,8.32.2.35,9-6,9.31-5.37.09.14-9.31,8.86-9.31,8.86.2.33,9.22-5.55,9.32-5.38.45.78-9.32,9.22-9.32,9.22s9.32-5.37,9.32-5.37-9.61,8.85-9.32,9.35c.11.19,9.1-5.77,9.32-5.38,0,0-9.32,8.44-9.32,8.44.16.26,9.32-5.39,9.32-5.38s-9.72,7.9-9.32,8.59c.26.44,9.33-5.38,9.33-5.38.11.19-9.33,8.3-9.33,8.3s9.33-5.38,9.33-5.38l-9.33,9.09s9-5.91,9.33-5.38L248,49.8s5.62-3.43,5.7-3.29"/><path class="cls-2" d="M289,24.57a4.28,4.28,0,0,0,.75-.43c0,.07-.82,4.17-.74,4.31.24.41,7.32-4.61,7.49-4.32S289,31.9,289,31.9l13.48-7.78c.27.47-7.87,7.56-7.59,8,0,.08,13.94-8,13.94-8,.25.45-7.55,8.39-7.55,8.39l9.63-5.56s-11.58,9.65-11.49,9.82l11.12-6.42"/><path class="cls-2" d="M282.63,10l13.89-8c.33.58-6.66,6.86-6.38,7.33l9.92-5.72c.11.19-6,6.81-6,6.81s8.32-5.56,8.64-5c.07.12-5.78,6.77-5.78,6.77S305,7.51,305,7.53c.15.28-6.07,6.74-6.07,6.74l7.89-4.56"/><path class="cls-2" d="M271,6.64l7.3-4.22-12.7,10.74S286.78.31,287,.76c.15.27-23.67,16.33-23.4,16.8.54.94,28.3-17.2,28.67-16.55,0,0-30,19.56-29.57,20.27s14.4-9.51,14.92-8.61c.25.42-15.27,12.4-15.27,12.4.37.65,10.81-6.6,11-6.33,0,0-11.07,9.14-10.89,9.45,0,0,9.58-6.1,9.82-5.68s-9.52,8.34-9.5,8.38,9.09-5.49,9.2-5.31c.38.66-8.62,7.92-8.62,7.92.19.33,8.41-5.6,8.73-5,.07.12-7.75,8-7.75,8,.17.3,8.28-5,8.37-4.83.37.62-6.93,7.85-6.93,7.85S274,34.7,274,34.7s-6.53,7.25-6.31,7.62c.09.16,8.09-5.14,8.29-4.79l-6.52,6.82c.14.25,8.55-4.94,8.55-4.93s-6.63,6.36-6.34,6.87,9.08-5.24,9.08-5.24c.08.15-6.74,6.81-6.74,6.81s10-5.76,10-5.76l-6.37,7.39s12.2-8,12.61-7.29l-9.06,8.2s28.24-17.26,28.65-16.54l-24,17c0,.06,22.6-13.05,22.6-13.05S294,50,294,50.07c.12.22,10.2-6.38,10.42-6"/><path class="cls-2" d="M355.37,2.25a4.33,4.33,0,0,0,.75-.44c.05.08-.83,4.18-.75,4.33.24.41,7.36-4.64,7.53-4.35s-7.52,7.8-7.52,7.8l9.32-5.38c.32.55-9.65,8.47-9.32,9,0,.05,9.32-5.39,9.32-5.39.31.53-9.32,9.41-9.32,9.41l9.33-5.38s-9.4,8.43-9.32,8.57l9.32-5.38-9.32,8.64s9.05-5.86,9.32-5.39c.06.11-9.32,8.86-9.32,8.86.18.31,9.32-5.38,9.32-5.38l-9.31,9.36c.05.1,9-5.91,9.31-5.38"/><path class="cls-2" d="M329.24,17.91l7.57-4.37c.3.51-5.64,6.33-5.39,6.76L339,15.92c.11.19-5.56,6.59-5.56,6.59s7.29-4.87,7.58-4.38c.06.12-5.53,6.62-5.53,6.62s7.56-4.39,7.58-4.37c.15.26-5.65,6.49-5.65,6.49L345,22.5s-5.43,6.69-5.35,6.83,7.29-4.9,7.59-4.38l-5.75,6.4c.24.42,7.58-4.39,7.58-4.39.16.28-5.84,6.19-5.67,6.49L351,29.07c.2.33-5.36,6.83-5.36,6.83.1.17,7.59-4.39,7.59-4.39.21.36-5.93,6-5.65,6.52.06.09,7.6-4.38,7.6-4.38.2.34-5.26,7-5.26,7l14.82-8.55s-13.08,10.43-13,10.52l13-7.51S353.6,44.48,353.89,45s10.4-7,10.83-6.25c.31.54-8.62,8.68-8.62,8.68.17.29,8.63-5,8.63-5l-6.35,7.37c.25.43,6.35-3.67,6.35-3.67a31.88,31.88,0,0,0-.75,3.66l.75-.44"/><path class="cls-2" d="M319.68,2.25l.76-.43-.76,3.83s6.43-3.89,6.51-3.76-6.6,6.9-6.51,7.05,8.37-5.08,8.48-4.89c0,0-8.61,7.86-8.48,8.09.26.45,10-6.62,10.39-6,.18.3-10.39,9.58-10.39,9.58.43.74,12.36-7.54,12.53-7.24,0,0-12.73,10-12.53,10.4,0,0,14.06-9,14.42-8.33s-14.45,11.15-14.42,11.22c.19.32,16-9.64,16.15-9.32.66,1.14-16.15,12.26-16.15,12.26.2.35,9-6,9.31-5.37.08.14-9.31,8.86-9.31,8.86.2.33,9.21-5.55,9.31-5.38.45.79-9.31,9.22-9.31,9.22S329,26.68,329,26.68s-9.59,8.85-9.31,9.35c.11.19,9.09-5.76,9.32-5.37l-9.32,8.43c.16.26,9.32-5.39,9.32-5.38s-9.71,7.9-9.32,8.59c.26.44,9.32-5.38,9.32-5.38.11.19-9.32,8.3-9.32,8.3S329,39.84,329,39.84l-9.33,9.09s9-5.91,9.33-5.38l-5.7,6.25s5.62-3.43,5.7-3.29"/></g></g></svg>