<svg xmlns="http://www.w3.org/2000/svg" viewBox="0 0 29.1 38.49"><defs><style>.cls-1{fill:#646464;}</style></defs><g id="レイヤー_2" data-name="レイヤー 2"><g id="レイヤー_1-2" data-name="レイヤー 1"><path class="cls-1" d="M18.56,38.07a6,6,0,0,0,4.82-.18,20.63,20.63,0,0,0,4.32-2.57,4.46,4.46,0,0,0,1.4-2.69c-.05-1.12-2.26-2.92-4.39-4s-4-2-5.22-1.66a2.46,2.46,0,0,0-1.85,2.71s-.9,1.08-2.39-.27S10.42,22.79,10,22.1,6.55,16,6.08,14s.9-2.24.9-2.24a2.46,2.46,0,0,0,3.27-.33c.85-.89,1-3,1-5.38S10.8.89,9.84.3s-2.56-.16-3,0A20.6,20.6,0,0,0,2.5,2.83,6,6,0,0,0,0,7c-.33,2.27,1.27,10.4,5.62,17.7S16.39,37.28,18.56,38.07Z"/></g></g></svg>