<svg xmlns="http://www.w3.org/2000/svg" viewBox="0 0 1108.33 1585.66"><defs><style>.cls-1{fill:#fff;}.cls-2{fill:none;stroke:#fff;stroke-miterlimit:10;}</style></defs><g id="レイヤー_2" data-name="レイヤー 2"><g id="レイヤー_1-2" data-name="レイヤー 1"><path class="cls-1" d="M661.07,48.17c-1.58,0-2.6-.09-3.29-.15v-.28c3.17-.06,16.46-1.52,16.46-9.48,0-3.26-3-5.71-6.41-5.71-5.71,0-11.84,5.43-12.43,6-.81.8-.9.92-1.46.92-1.08,0-2.85-1.58-2.85-3.44a3.41,3.41,0,0,1,.25-1.33c.59.81,1.21,1.64,2,1.64a5.39,5.39,0,0,0,2.2-.8c4.56-2.36,7.75-4,12.21-4,4.93,0,8.87,2.85,8.87,7.32C676.63,44.11,671.14,48.17,661.07,48.17Z" transform="translate(0 -7.78)"/><path class="cls-1" d="M701.89,50.59l0-.25c6.63-2.35,9.73-6.72,9.73-11.43,0-5.24-4.21-8.34-9.61-8.34a2.39,2.39,0,0,0-1.27.19c1.68.89,2.14,2,2.14,2.47s-.09.56-1.05,2.58c-2,4.24-4.9,10.47-7,12.21a1.79,1.79,0,0,1-1,.34c-.71,0-1-.4-1.92-1.71-.22-.31-1.46-1.45-1.67-1.73a5.77,5.77,0,0,1-.87-3.16c0-6.67,5.64-12.15,13.2-12.15,6,0,11.47,3.5,11.47,9.73C714,45.35,709,50,701.89,50.59Zm-2.45-19.65c-3.41.56-8.15,5-8.15,10.66,0,2.11,1.21,4.43,2.42,4.43.84,0,2-2.2,2.57-3.25,3.1-6.23,4.12-8.24,4.12-9.86A2.71,2.71,0,0,0,699.44,30.94Z" transform="translate(0 -7.78)"/><path class="cls-1" d="M737.38,34.07h-4.15c0,1.61,0,2.33,0,2.48l0,4c1-.41,2.85-1.15,3.56-1.55l.13.21c-.65.56-2.61,1.83-3.69,2.52,0,1.23,0,7.74,0,8.67,0,.28.06,1.55.06,1.8a1.57,1.57,0,0,1-1.67,1.55.69.69,0,0,1-.78-.68c0-.31.16-1.64.16-1.92,0-1.52.09-6.57.12-8.12a48.37,48.37,0,0,1-4.37,2.54c-.25.74-.46,1.14-.8,1.14s-.41-.24-.53-.49l-1.33-2.76a4.74,4.74,0,0,0,1.67-.19c.25-.06,5.08-1.79,5.39-1.92,0-3.47.07-5.61.07-7.25H728c-.12.47-1.42,4.65-2.82,6.26l-.25-.09a39.37,39.37,0,0,0,1.93-12.86l2.94,1a.49.49,0,0,1,.4.46c0,.31-.56.56-1,.66-.15.68-.37,1.61-1,3.81h3c0-6,0-6.32-.53-8l3.16.93c.28.09.46.22.46.43s-.18.41-1.05,1.09c0,.87-.06,4.77-.06,5.58h1.08l.84-1.12c.19-.28.34-.37.5-.37s.31.09.55.31l1.34,1.12a.66.66,0,0,1,.31.49C737.85,34,737.69,34.07,737.38,34.07Zm15.16,2.67H738.87a22,22,0,0,0-3.66.28l-.62-1.21c2.08.15,4.25.18,4.77.18h2.45c0-.93,0-2.07,0-5.23h-1.7a22.77,22.77,0,0,0-3.66.27l-.62-1.24c2.05.19,4.19.22,4.77.22h1.18a14.44,14.44,0,0,0-.53-4.65l3.32,1c.25.07.5.25.5.47s-.53.65-1.15.9V30h3L748,28.65c.19-.25.34-.37.5-.37s.31.12.55.31L750.61,30a.79.79,0,0,1,.31.46c0,.25-.27.35-.46.35h-6.57V36h5L750,34.54c.19-.25.35-.41.5-.41a1.09,1.09,0,0,1,.56.34l1.64,1.46a.86.86,0,0,1,.31.5C753,36.64,752.82,36.74,752.54,36.74Zm-.38,5.61h-5.42c0,1.2.09,6.63.09,7.74,0,1.68-.12,2.92-3.4,3.85-.66-1.74-1.21-2.11-3.48-3.23v-.18c1.4.09,2.51.18,3.44.18,1.34,0,1.34-.21,1.34-2.17,0-1.11-.07-3.9-.1-6.19h-4.8a22.77,22.77,0,0,0-3.66.27l-.59-1.23c2,.18,4.19.21,4.75.21h4.3a12.28,12.28,0,0,0-.46-4.15L747,38c.4.09.71.18.71.53s-.31.58-.9.83c0,.47,0,.87,0,2.2h2.08l.87-1.33c.15-.25.34-.4.49-.4a1.1,1.1,0,0,1,.62.34l1.55,1.3c.22.19.31.34.31.5S752.47,42.35,752.16,42.35Zm-11.55,5.82c-.78,0-1-.43-1.46-1.58A6.67,6.67,0,0,0,737.44,44l.13-.22c1.52.28,4.21,1.15,4.21,3.07A1.19,1.19,0,0,1,740.61,48.17Z" transform="translate(0 -7.78)"/><path class="cls-1" d="M768.6,33.67c-.19.25-1.15,1.58-1.86,2.57l.9.5c.21.12.27.15.27.31,0,.37-.49.68-.93.93,0,.86-.06,3.25-.06,5.14,0,2.51.06,6.54.06,9.05,0,.93-.71,1.36-1.61,1.36-.68,0-.74-.37-.74-.8,0-.19.09-2.76.12-3.13.1-2.42.25-5.08.25-7V38.53a17.28,17.28,0,0,1-3.78,3.41l-.12-.12a45.88,45.88,0,0,0,5.54-9.45A4.83,4.83,0,0,0,767,31l2.36,1.61c.18.13.22.16.22.41S769.34,33.45,768.6,33.67ZM768,27.9c-2.92,3.26-4.68,4.75-6.39,5.58l-.09-.09c3-4,4.74-6.26,4.83-8L768.91,27c.21.16.28.25.28.35C769.19,27.69,768.81,27.75,768,27.9ZM788,53a15.46,15.46,0,0,1-5.12-5.15,16.08,16.08,0,0,1-9.17,5.67l-.06-.15c2.48-1.33,6.14-3.56,8.3-7.38a25.24,25.24,0,0,1-1.76-9.36c-.68.81-1.15,1.31-1.77,2,0,.28-.15.37-.46.37h-3.2v4.56h.9l.78-1c.18-.25.31-.37.46-.37a1.43,1.43,0,0,1,.59.31l1.49,1a.65.65,0,0,1,.28.47c0,.31-.28.34-.47.34h-4v3.9c.72-.15,4.28-.89,5.06-1.11l.09.18c-2.29,1.27-8.15,3.6-9.05,3.94-.06.22-.25.81-.59.81a.55.55,0,0,1-.43-.28l-1.68-2.85a9.06,9.06,0,0,0,1.49.15,26.36,26.36,0,0,0,3.19-.46V44.33a18.66,18.66,0,0,0-3.93.28l-.62-1.24c2.17.15,4.12.22,4.55.18V39a18,18,0,0,0-3.93.28l-.59-1.24c2.48.19,4.27.22,4.74.22H775l.84-1c.28-.31.34-.37.46-.37a1.33,1.33,0,0,1,.56.31l1.43,1.12a39.43,39.43,0,0,0,4.8-11,7,7,0,0,0,.15-1.86l3.1,1.55c.13.06.34.15.34.4s-.12.37-1.21.74a40,40,0,0,1-3.81,6.7H786l1.09-1.46c.15-.22.34-.4.49-.4s.31.18.56.37l1.7,1.43c.19.15.31.24.31.46s-.31.34-.46.34H785.3l2,.84c.28.12.44.25.44.46s-.1.37-.9.87a25.83,25.83,0,0,1-2.85,8.55A14.65,14.65,0,0,0,791,50.93l.06.22A5.33,5.33,0,0,0,788,53Zm-8.74-24.11a4.81,4.81,0,0,0-.06,1c0,.65.09,3.47.09,4,0,.87,0,2-1.24,2-.78,0-.74-.59-.74-1h-5.92c0,1,0,1.86-1.31,1.86-.62,0-.65-.38-.65-.87,0-.16.16-4.06.16-4.8a22.64,22.64,0,0,0-.28-4l2.48.62c.18.06.43.12.43.34s-.28.49-.83.9c-.07,1-.07,1.39,0,5.2h2.07c0-4.92.06-7.22-.4-8.83l2.88.78c.19.06.34.09.34.31a.65.65,0,0,1-.28.43l-.68.5c0,1.48,0,3.87,0,6.81h2.11c.09-5.79-.06-6.41-.25-7.09l2.54.71c.19.06.37.09.37.34S780,28.34,779.29,28.93Zm1.8,6.69c-.16.16-.19.22-.38.43a23.74,23.74,0,0,0,2,8.4,21.34,21.34,0,0,0,1.61-8.83Z" transform="translate(0 -7.78)"/><path class="cls-1" d="M636.74,32.08a11,11,0,0,1,4,8.79c0,7.3-6,12.53-13.84,12.53-6.42,0-11.82-3.62-11.82-8.37,0-2.62,1.72-3.81,3.38-3.81a2.91,2.91,0,0,1,2.91,3,4.91,4.91,0,0,1-.35,1.91,4.14,4.14,0,0,0-.18,1.36c0,2.26,2.55,3.92,5.35,3.92,4.57,0,9.2-4.51,9.2-10.51S630.92,30,626.17,30c-.36,0-2,.24-2.38.24A1.18,1.18,0,0,1,622.48,29a1.35,1.35,0,0,1,1.37-1.37c.36,0,2.14.36,2.55.36,5,0,8.14-4.46,8.14-9.27,0-4.63-2.79-8.91-7.48-8.91-3.15,0-4.81,2.26-4.81,4a4.65,4.65,0,0,0,.17.89,5.84,5.84,0,0,1,.18,1.43,3.13,3.13,0,0,1-3,3.26,3.07,3.07,0,0,1-3-3.26c0-3.27,3.8-8.32,11.41-8.32,7.31,0,11.88,4.75,11.88,10a10.24,10.24,0,0,1-2.2,6.06,14.1,14.1,0,0,1-7.54,5.05C632.88,29.7,634.66,30.29,636.74,32.08Z" transform="translate(0 -7.78)"/><path class="cls-1" d="M318.75,33.73a32.48,32.48,0,0,1-1.86,3.1l.65.43c.15.1.31.22.31.38s-.12.34-.78,1c0,1.76-.09,4.89-.09,6.5,0,1,.16,5.21.16,6.08,0,1.27,0,2.42-1.55,2.42-.65,0-.87-.35-.87-1,0-.21.31-6.47.31-7V39.4a21.19,21.19,0,0,1-3.78,3.84l-.19-.15c2.85-3.84,5.89-10,6.08-12l2.57,1.58a.46.46,0,0,1,.25.4C320,33.36,319.8,33.54,318.75,33.73Zm-.28-5.61c-.34.34-.59.59-2.76,2.95a14.86,14.86,0,0,1-4,3.19l-.15-.16c2.76-3.22,5.21-7.25,5.36-8.74l2.48,1.74a.51.51,0,0,1,.19.4C319.62,27.72,319.28,28,318.47,28.12Zm23,22.9a4.71,4.71,0,0,0-3,1.58A16.48,16.48,0,0,1,333.72,47a15,15,0,0,1-9.55,5.95l-.09-.12A19.26,19.26,0,0,0,332.91,45a30.76,30.76,0,0,1-1.11-8.74c-.28.4-.72,1-1.9,2.42.47.31.72.46.72.71s-.31.31-.47.31h-2.69v6.51c2.32-.84,3.06-1.18,3.68-1.46l.1.16c-1.46,1.27-3.75,2.94-5.67,4.37-.16.43-.28.86-.56.86a.46.46,0,0,1-.37-.24L323,47.37a8.25,8.25,0,0,0,2.57-.53V39.68h-3.23l1.21.37c.53.16.78.25.78.47s-.5.46-.78.59c-.18,5.92-2.29,8.77-5.39,10.63l-.12-.07a12.26,12.26,0,0,0,3-6.29,25.55,25.55,0,0,0,.38-5.67,13.8,13.8,0,0,0-2.73.28l-.62-1.24c1.58.13,3.16.19,4.74.19h4l.77-1c.16-.21.28-.4.47-.4a1.46,1.46,0,0,1,.59.31l.93.65c2.51-4.74,4.4-9.64,4.4-12.43a1.1,1.1,0,0,0-.06-.4l3.16,1.4c.09,0,.34.18.34.4s-.34.5-1.18.81a49.47,49.47,0,0,1-3.47,6.44h3.62l1.09-1.42c.22-.28.34-.44.53-.44s.34.19.55.34l1.77,1.46c.09.09.31.25.31.46s-.31.35-.5.35h-3.78l2,1c.15.06.37.21.37.43s-.19.4-1,.59a29,29,0,0,1-3,8,12.71,12.71,0,0,0,6.82,5.37ZM330.12,29.24v2.69c0,.44.09,2.3.09,2.67A1.29,1.29,0,0,1,329,35.93c-.81,0-.81-.65-.81-1.3h-5.58c0,.19,0,1.11,0,1.21a1.23,1.23,0,0,1-1.21.8c-.71,0-.74-.31-.74-1s.09-3.69.09-4.3a19.87,19.87,0,0,0-.34-4.19l2.7.75a.45.45,0,0,1,.37.4c0,.31-.28.49-.93.83,0,1.28.06,3.35.09,4.72h1.86c-.06-6.61-.06-7.35-.37-8.68l2.57.71a.46.46,0,0,1,.37.43c0,.25-.18.44-.71.78,0,1.7,0,2,0,6.76h1.89c0-3,0-4.31,0-5.15a8.33,8.33,0,0,0-.19-1.39l2.61.59c.21.06.4.24.4.4S330.8,28.74,330.12,29.24Zm2.23,6.2a1.27,1.27,0,0,1-.15.21,27.08,27.08,0,0,0,1.52,7.75,19.2,19.2,0,0,0,1.79-8Z" transform="translate(0 -7.78)"/><path class="cls-1" d="M353.25,44.45a20.53,20.53,0,0,1-4.43,7l-.19-.19a33.69,33.69,0,0,0,2.42-7.13,7.1,7.1,0,0,0,.09-1.79l2.32.8c.35.13.65.22.65.56S353.62,44.33,353.25,44.45Zm7.16-2.66a1.26,1.26,0,0,1-1.21-1.09c-.06-.28-.34-1.45-.41-1.7-.62.18-1.45.37-2.07.49,0,7.1,0,7.91,0,9.36,0,.44.06,2.39.06,2.79s0,1.71-1.39,1.71a.81.81,0,0,1-.84-.84c0-.15.12-2.23.12-2.63,0-2.76.07-7.19.1-10l-3.78.8c-.1.41-.41.78-.56.78-.37,0-.5-.37-.56-.59l-.9-2.7a13.36,13.36,0,0,0,4.84.44A41.15,41.15,0,0,0,358.05,31a4.26,4.26,0,0,0,.31-1.76l2.6,1.52c.31.18.59.37.59.71s-.43.46-1.45.56a70.14,70.14,0,0,1-5.46,6.57c2.23,0,3.1-.1,4-.16a5.77,5.77,0,0,0-1.09-1.76l.13-.22c1.79.93,4,2.08,4,4A1.26,1.26,0,0,1,360.41,41.79Zm-3.88-13.58a22.66,22.66,0,0,1-3.22,3.94,2.87,2.87,0,0,1,1.7,2.48c0,1-.62,1.24-1.11,1.24-.84,0-1.09-.47-1.83-1.95a10.51,10.51,0,0,0-2.17-2.82l.16-.22a17.06,17.06,0,0,1,2.72,1c1.58-3.59,1.68-4.87,1.77-6.45L357.12,27c.44.28.59.41.59.66C357.71,28.09,357.4,28.12,356.53,28.21Zm3.5,20c-1,0-1.08-.62-1.3-1.92a6.78,6.78,0,0,0-1.21-3.5l.1-.12c1.89.93,3.62,2.57,3.62,4.09C361.24,47,361.18,48.23,360,48.23Zm15.59-18.65c-.06,5.2,0,11.22.16,16.33,0,1.33.18,3.44.18,4.74a1.64,1.64,0,0,1-1.52,1.86c-.86,0-1-.65-1-2.08h-9a4.6,4.6,0,0,1-.06,1.21c-.1.22-.38,1.09-1.28,1.09a1,1,0,0,1-1-1.12c0-.12.19-2.63.19-3.13.06-3.9.12-7.93.12-16.24a27.38,27.38,0,0,0-.31-5.61l2.45,1.21h8.71L374,27a.74.74,0,0,1,.53-.34A.88.88,0,0,1,375,27l1.18.93c.37.31.47.5.47.69C376.65,29,376.37,29.11,375.62,29.58Zm-7.78-1H364.5v9.82h3.34Zm0,10.56H364.5V49.69h3.34Zm5.68-10.56h-3.66v9.82h3.66Zm0,10.56h-3.66V49.69h3.66Z" transform="translate(0 -7.78)"/><path class="cls-1" d="M389.67,40.18c-.72,0-.87-.34-1.43-1.4a6.87,6.87,0,0,0-1.67-2.32l.12-.25c1.89.46,4.19,1,4.19,2.73A1.18,1.18,0,0,1,389.67,40.18Zm23.21-11.1H404.3c0,.22,0,1.15,0,1.37,0,.83-.87.93-1.27.93s-.84-.13-.84-.69c0-.24.09-1.36.09-1.61h-5.24a8.08,8.08,0,0,1-.15,2.36,1.37,1.37,0,0,1-1.12.52c-.58,0-.74-.24-.77-.62,0-.18,0-.24,0-2.26h-3.81a21.83,21.83,0,0,0-3.66.28l-.62-1.24c2.11.19,4.34.22,4.77.22H395a8.77,8.77,0,0,0-.34-3l2.51.68c.28.07.65.19.65.47s-.28.43-.81.84v1h5.24a14.31,14.31,0,0,0-.22-2.88l2.2.65c.56.15.81.21.81.52s-.28.41-.77.75c0,.15,0,.83,0,1h5.33l1-1.15c.21-.25.34-.4.49-.4s.31.15.56.34l1.4,1.15a.73.73,0,0,1,.31.49C413.38,29.05,413.1,29.08,412.88,29.08Zm-21,14.16c-.19.62-1.12,3.44-1.24,4a7.2,7.2,0,0,0-.16.78,12.77,12.77,0,0,0,.5,2,8.84,8.84,0,0,1,.22,1.52,1.64,1.64,0,0,1-1.55,1.7,1.25,1.25,0,0,1-1.24-1.39c0-.46.28-2.57.28-3a3,3,0,0,0-1.55-2.72l.06-.25a3.46,3.46,0,0,0,.59.06c1.21,0,1.58-.77,2.45-2.45.52-1.05,2.63-5.88,3.09-6.88h.25C393.32,37.36,392.21,42.22,391.87,43.24Zm.62-8c-.84,0-1.12-.78-1.4-1.52a4.71,4.71,0,0,0-1.39-2.36l.12-.21c1.3.31,3.78,1,3.78,2.82A1.15,1.15,0,0,1,392.49,35.22Zm19.09,17.54c-4.71-2.2-6.2-4.68-7.87-7.5h-.13c0,1-.06,3.84,0,6,0,.22.06,1.24.06,1.43,0,1-1.08,1-1.42,1-.78,0-.78-.46-.78-.74,0-.72.16-3.85.16-4.47,0-1.39,0-2.13,0-2.54a22.83,22.83,0,0,1-10.23,7.07l-.12-.25a27.41,27.41,0,0,0,8.3-7.56h-2.13a21.83,21.83,0,0,0-3.66.28l-.59-1.24c2.11.18,4.31.22,4.74.22h3.66a11.54,11.54,0,0,0-.31-2.33,2.5,2.5,0,0,1-.81.22c-.31,0-.59-.16-.59-.5v-.43h-3.22c0,.46,0,1.42-1.11,1.42-.59,0-.78-.28-.78-.71s.12-2.88.12-3.44a11,11,0,0,0-.21-2.57l2.23,1.18h2.69l.59-.59a.91.91,0,0,1,.41-.25.76.76,0,0,1,.52.22l.93.71c.16.12.34.28.34.4s-.24.44-.74.75c0,.43,0,2.41,0,2.82a.85.85,0,0,1-.15.55l2.29.81c.4.15.65.25.65.53s-.22.4-.81.74a3.42,3.42,0,0,0,0,.47h6.91l1-1.12c.18-.22.34-.37.46-.37s.28.06.59.31L414,44.45a.73.73,0,0,1,.31.5c0,.28-.28.31-.5.31H404.2a16.19,16.19,0,0,0,10.29,5.24v.24A6.85,6.85,0,0,0,411.58,52.76ZM399.86,38.1h-3.22v2.63h3.22Zm8.25-4.93c0,.28.06,2.36,0,2.48-.09.59-1,.81-1.33.81-.69,0-.66-.44-.62-1.09h-5.95c.06.65-.81,1.09-1.31,1.09-.77,0-.77-.53-.77-.9,0-.09.09-2.54.09-2.85,0-.62-.09-1.46-.12-1.83l2.17,1h5.89l.49-.5c.16-.15.34-.31.47-.31a1,1,0,0,1,.55.31l.78.62c.18.16.37.28.37.47S408.63,32.83,408.11,33.17Zm-1.89-.59h-6v2.05h6Zm4.89,5.89c0,.5,0,2.92,0,3.16a1.3,1.3,0,0,1-1.33.9c-.65,0-.59-.65-.56-1h-3.93c-.06.5-.59.74-1.12.74s-.74-.15-.74-.52c0-1.15,0-5-.06-5.52l2.1,1.09H409l.59-.59c.12-.13.27-.31.43-.31a1.27,1.27,0,0,1,.56.31l.83.62c.1.06.38.28.38.49S411.58,38.26,411.11,38.47Zm-1.86-.4h-4V40.8h4Z" transform="translate(0 -7.78)"/><path class="cls-1" d="M427.67,34a22.36,22.36,0,0,0-3.66.28L423.42,33c2.05.18,4.19.21,4.74.21h1.93a44.58,44.58,0,0,0-.31-7.62l2.69.74a.44.44,0,0,1,.34.47c0,.28-.4.53-.8.84,0,2.63-.06,3.9,0,5.57h2.32l.68-.86c.25-.31.31-.41.5-.41s.43.25.56.38l.86.8c.19.19.31.31.31.5s-.24.34-.46.34H432l0,1.14c.74.13,5.23,1.06,5.23,3a1,1,0,0,1-1.05,1.18c-.59,0-.74-.16-2.29-1.92a15.27,15.27,0,0,0-1.89-1.8c0,.71.06,3.75.06,4.37,0,1.08-1.43,1.08-1.46,1.08-.59,0-.62-.52-.62-.74,0-1,0-3.56.07-4.68a18.94,18.94,0,0,1-7.13,5.14l-.13-.15a28.36,28.36,0,0,0,6.05-6.6Zm.12,11.09a21.79,21.79,0,0,0-3.65.28l-.62-1.24c2.13.19,4.37.22,4.77.22h1.42a11.09,11.09,0,0,0,.13-1.49,3.54,3.54,0,0,0-.31-1.8l2.91.81a.51.51,0,0,1,.31.5c0,.24-.46.55-.71.71a11.77,11.77,0,0,1-.22,1.27h2.51l.81-1c.12-.16.31-.41.46-.41s.44.22.59.41l1,1a.67.67,0,0,1,.28.49c0,.28-.28.31-.46.31h-5.33a7.56,7.56,0,0,1-.38,1.21c2.64.22,4.87,1.71,4.87,3a1,1,0,0,1-1,1.11c-.59,0-.78-.24-1.65-1.36a8.65,8.65,0,0,0-2.35-2.42c-1,2.67-3.56,5.24-7.69,6.39l0-.13a12.4,12.4,0,0,0,6.14-7.81ZM425,27.75c2,.81,3.85,1.52,3.85,3.16a1.17,1.17,0,0,1-1.15,1.27c-.74,0-.9-.46-1.12-1.15a7.93,7.93,0,0,0-1.7-3.09Zm7.26,25.35c1.55-.65,7.43-3.69,8.24-5.89l2.11,1.86a.5.5,0,0,1,.15.34c0,.44-.34.44-1.21.4l-3.68,1.8a19.3,19.3,0,0,1-5.52,1.64Zm.18-20.73a16.38,16.38,0,0,0,1.89-5.12l2.45,1.43a.45.45,0,0,1,.28.46c0,.38-.25.41-.93.5a35.27,35.27,0,0,1-3.59,2.82Zm12.15-4a30.65,30.65,0,0,1-2.45,3.94H447l.74-.81a.71.71,0,0,1,.46-.31.79.79,0,0,1,.47.19l1.42,1a.53.53,0,0,1,.25.46c0,.41-.55.81-1,1.12-.06,1.05-.06,1.8-.06,2.69,0,3.51.09,7.57.12,8.56,0,.21.07,1.27.07,1.52,0,.86-1.18,1.11-1.43,1.11-.87,0-.81-.74-.77-1h-7.22c0,.77-1,1-1.43,1a.69.69,0,0,1-.78-.8,2.07,2.07,0,0,1,0-.41c.18-2,.18-5.85.18-8a64.62,64.62,0,0,0-.28-7.53l2.54,1.27h1.37a32.94,32.94,0,0,0,.21-3.94,21.59,21.59,0,0,0-4,.28l-.62-1.24c1.61.15,3.19.22,4.77.22h5.7l.87-1.21a.65.65,0,0,1,.5-.37c.15,0,.31.12.55.34l1.37,1.17a.7.7,0,0,1,.31.47c0,.34-.31.34-.47.34Zm-4.55,4.68V36.8h7.25V33.08Zm0,4.46v3.78h7.25V37.54Zm0,4.53v4h7.25v-4Zm4.52,5.51c3.32.72,6.51,2.64,6.51,4.31A1.22,1.22,0,0,1,450,53.25c-.65,0-.8-.18-2.23-2.26a13.19,13.19,0,0,0-3.16-3.25Z" transform="translate(0 -7.78)"/><path class="cls-1" d="M471.81,36.18c-.38.56-1.8,3.1-2.14,3.62-1.46,2.3-4.12,6.14-8.87,8.09l0-.24c5-4.13,8.71-11.5,8.71-13,0-.68-.28-1.21-2-2.05a4,4,0,0,1,1.52-.28c1.49,0,3.78,1.86,3.78,2.61C472.83,35.12,471.93,36,471.81,36.18Zm14,10.13c-.83,0-1-.62-1.61-2.48a26.5,26.5,0,0,0-6.91-11.15c4.52,1.45,9.73,7.81,9.73,11.71C487,45.2,486.68,46.31,485.78,46.31Zm-.93-12.73a2.95,2.95,0,1,1,2.95-2.95A2.95,2.95,0,0,1,484.85,33.58Zm0-4.75a1.79,1.79,0,1,0,1.8,1.8A1.8,1.8,0,0,0,484.85,28.83Z" transform="translate(0 -7.78)"/><path class="cls-1" d="M520.19,34.29c-.4.22-.47.34-.9,1.52-2,5.14-3.81,8.33-6.91,11.12a20.44,20.44,0,0,1-8.59,4.68l0-.21a29.33,29.33,0,0,0,9.3-8.06A31.13,31.13,0,0,0,517.74,33c-4,.06-11.84,1.21-13.23,1.8a6.63,6.63,0,0,1-1.15.49c-.25,0-.4-.12-.68-.37-.78-.71-1.83-1.74-1.83-3a4.15,4.15,0,0,1,.31-1.27c1.27,2.08,2.45,2.08,3.1,2.08.43,0,6-.53,7.13-.59,1.33-.06,5.73-.31,6.66-1,.4-.31.5-.38.65-.38a8.39,8.39,0,0,1,2.6,2.7C521.3,33.67,521,33.82,520.19,34.29Zm3.28-1.61c-.46,0-.55-.13-1.51-1.43a13.67,13.67,0,0,0-3-3c2.17.21,5.3,1.42,5.3,3.34C524.22,32.06,524,32.68,523.47,32.68Zm2.45-2.08c-.28,0-.4-.12-1.39-1.33a14.61,14.61,0,0,0-3.16-2.67c1.36,0,5.2.56,5.2,2.92C526.57,30.07,526.32,30.6,525.92,30.6Z" transform="translate(0 -7.78)"/><path class="cls-1" d="M559,33.82c-.72.5-.75.53-1.21,3s-1.06,5.7-1.46,7.37a1.43,1.43,0,0,0-.06.34c0,.22.06.28.59.66.74.52,1,.71,1,1.14A.74.74,0,0,1,557,47a5.42,5.42,0,0,1-.59-.07,34.29,34.29,0,0,0-5.51-.28,61.24,61.24,0,0,0-7.16.35c0,.58-.06,1.73-.84,1.73-1.08,0-1.61-2.17-1.61-3,0-.21.12-1.17.12-1.36,0-.8-.24-8.55-.93-11.06-.31-1.09-.83-1.4-2.1-1.86a3,3,0,0,1,1.58-.53c.8,0,1.27.25,2.75,1.15a1.69,1.69,0,0,0,1,.25c.34,0,1.89-.16,2.2-.19,1.45-.09,7.81-.46,9.08-.68a2.5,2.5,0,0,0,1.61-.71.55.55,0,0,1,.4-.22c.37,0,2.73,2,2.73,2.51C559.71,33.3,559.52,33.48,559,33.82ZM555.15,33c-.9,0-4.86.21-8.52.59-.31,0-1.83.24-2.2.24-.22,0-1.21-.37-1.46-.37-.09,0-.12,0-.12.28,0,.59.68,11.68.68,11.75,1,0,9.64-.47,10.91-.56.12-1,1.3-9.45,1.3-11.25C555.74,33.33,555.62,33,555.15,33Z" transform="translate(0 -7.78)"/><path class="cls-1" d="M583.7,35.81c-.52.65-2.32,3.81-2.73,4.43a20.42,20.42,0,0,1-8.58,7.81l-.06-.28c5.82-5.15,8.71-11.59,8.71-12.92,0-.78-.28-1.49-2-2.24a5.19,5.19,0,0,1,1.58-.27c1.46,0,3.69,2,3.69,2.54A2.84,2.84,0,0,1,583.7,35.81Zm13.7,10.56c-.9,0-1.08-.68-1.89-3.22a28,28,0,0,0-6.69-10.38c3.93,1.18,9.73,7.28,9.73,11.9C598.55,45.51,598.08,46.37,597.4,46.37Zm-.84-12.3c-.43,0-.55-.15-1.64-1.42A11.61,11.61,0,0,0,592,30.17c2,0,5.27,1,5.27,3C597.28,33.76,596.9,34.07,596.56,34.07Zm2.58-2.82c-.38,0-.47-.09-1.31-1a13.74,13.74,0,0,0-3.44-2.42c2-.12,5.49.75,5.49,2.54A.79.79,0,0,1,599.14,31.25Z" transform="translate(0 -7.78)"/><polyline class="cls-2" points="824.47 31.09 1107.83 31.09 1107.83 1585.16 0.5 1585.16 0.5 31.09 283.86 31.09"/></g></g></svg>