<svg xmlns="http://www.w3.org/2000/svg" xmlns:xlink="http://www.w3.org/1999/xlink" viewBox="0 0 587.48 106.29"><defs><style>.cls-1{fill:#fff;}.cls-2{fill:none;stroke-miterlimit:10;stroke-width:3px;stroke:url(#ホワイトゴールド_2);}</style><linearGradient id="ホワイトゴールド_2" x1="-29.92" y1="104.79" x2="517.02" y2="104.79" gradientTransform="translate(32.14) scale(1.07 1)" gradientUnits="userSpaceOnUse"><stop offset="0.01" stop-color="#c3c4c5"/><stop offset="0.25" stop-color="#ffd6c2"/><stop offset="0.35" stop-color="#eecdbb"/><stop offset="0.56" stop-color="#c1b7ab"/><stop offset="0.6" stop-color="#b8b2a7"/><stop offset="0.79" stop-color="#ccc"/><stop offset="1" stop-color="#b9b69e"/></linearGradient></defs><g id="レイヤー_2" data-name="レイヤー 2"><g id="レイヤー_1-2" data-name="レイヤー 1"><path class="cls-1" d="M4.42,83.83c-.2-.32.71-1.09,1.13-2.86.87-3.63.83-3.46.91-10.73.1-9.08-.87-13.67-.87-23.66A23.62,23.62,0,0,1,6.77,39.2,24.43,24.43,0,1,1,17,67.32V62.79a17,17,0,0,0,13.1,6.63c10.22,0,18.54-10.2,18.54-22.74S40.28,24,30.06,24,11.56,34.1,11.51,46.57v.64h0c0,.3,0,.59,0,.87l.2,18.77a83.6,83.6,0,0,1-.3,9.41,11.28,11.28,0,0,1-2.56,5.95,6.21,6.21,0,0,1-4,1.8C4.36,84,4.62,84.14,4.42,83.83Z"/><path class="cls-1" d="M118.8,70.45c.2-.32-.7-1.09-1.13-2.86-.87-3.64-1-3.46-.9-10.73,0-3.29.87-5.73.86-10.28a23.91,23.91,0,0,0-1.17-7.38,24.44,24.44,0,1,0-10.2,28.12V62.79a17,17,0,0,1-13.09,6.63c-10.23,0-18.55-10.2-18.55-22.74S82.94,24,93.17,24s18.49,10.15,18.54,22.62v.64h0q0,.45,0,.87l-.2,5.39a83.6,83.6,0,0,0,.3,9.41,11.22,11.22,0,0,0,2.56,5.94,6.21,6.21,0,0,0,4,1.8C118.86,70.58,118.6,70.76,118.8,70.45Z"/><path class="cls-1" d="M235.75,70.31A23.71,23.71,0,1,1,259.48,46.6,23.75,23.75,0,0,1,235.75,70.31Zm0-45.58c-9.83,0-17.83,9.81-17.83,21.87s8,21.88,17.83,21.88,17.82-9.81,17.82-21.88S245.57,24.73,235.75,24.73Z"/><polygon class="cls-1" points="148.37 69.1 129.02 23.72 135.88 23.72 152.77 63.3 170.94 23.72 173.44 23.72 152.61 69.1 148.37 69.1"/><polygon class="cls-1" points="288.38 69.1 269.02 23.72 275.88 23.72 292.77 63.3 310.94 23.72 313.44 23.72 292.61 69.1 288.38 69.1"/><rect class="cls-1" x="189.24" width="5.92" height="69.06"/><path class="cls-1" d="M372.87,70.45c.2-.32-.71-1.09-1.13-2.86-.87-3.64-1-3.46-.91-10.73,0-3.29.87-5.73.87-10.28a23.62,23.62,0,0,0-1.18-7.38,24.44,24.44,0,1,0-10.2,28.12V62.79a17,17,0,0,1-13.09,6.63c-10.22,0-18.54-10.2-18.54-22.74S337,24,347.23,24s18.5,10.15,18.55,22.62v.64h0l0,.87-.2,5.39a83.6,83.6,0,0,0,.3,9.41,11.22,11.22,0,0,0,2.56,5.94,6.21,6.21,0,0,0,4,1.8C372.93,70.58,372.67,70.76,372.87,70.45Z"/><path class="cls-1" d="M413,30.14h8.26l13,31.07h.23l12.89-31.07h8.26l0,41H450V37.45h-.11L436.1,71.19h-3.7L418.61,37.44h-.11l0,33.74h-5.54Z"/><path class="cls-1" d="M498.76,39a11.45,11.45,0,0,0-4.39-3.48,13,13,0,0,0-5.48-1.21,14.75,14.75,0,0,0-6.26,1.29,14.44,14.44,0,0,0-4.8,3.56,16.37,16.37,0,0,0-3.09,5.31,18.89,18.89,0,0,0-1.1,6.53,17.91,17.91,0,0,0,1,6.14,15.52,15.52,0,0,0,3,5.1,14.06,14.06,0,0,0,4.8,3.48,15.4,15.4,0,0,0,6.4,1.28,12.66,12.66,0,0,0,6.18-1.45,13.32,13.32,0,0,0,4.51-4.06l4.67,3.54a16.68,16.68,0,0,1-1.61,1.83,15.87,15.87,0,0,1-3.06,2.37,22.16,22.16,0,0,1-4.6,2.09,19.54,19.54,0,0,1-6.21.9A20,20,0,0,1,480,70.39a21.13,21.13,0,0,1-6.63-4.86A21.76,21.76,0,0,1,467.75,51a24.17,24.17,0,0,1,1.56-8.79,20.67,20.67,0,0,1,4.36-7,19.47,19.47,0,0,1,6.73-4.56,22.54,22.54,0,0,1,8.67-1.61A21.13,21.13,0,0,1,497,30.69a14.89,14.89,0,0,1,6.38,4.82Z"/><path class="cls-1" d="M524.11,35.4H510.94V30.18h31.87v5.22H529.65l0,35.83h-5.54Z"/><path class="cls-1" d="M551.87,51.41H565V38.2h4.5V51.42h13.17V56H569.54V69.16H565V55.94H551.87Z"/><line class="cls-2" y1="104.79" x2="587.48" y2="104.79"/></g></g></svg>