<svg xmlns="http://www.w3.org/2000/svg" xmlns:xlink="http://www.w3.org/1999/xlink" viewBox="0 0 715.15 130.21"><defs><style>.cls-1{fill:#fff;}.cls-2{fill:none;stroke-miterlimit:10;stroke-width:3px;stroke:url(#オレンジ_円形_2);}</style><radialGradient id="オレンジ_円形_2" cx="146" cy="128.71" r="235.4" gradientTransform="translate(200.75) scale(1.07 1)" gradientUnits="userSpaceOnUse"><stop offset="0" stop-color="#fff"/><stop offset="0.1" stop-color="#eee6d1"/><stop offset="0.22" stop-color="#ddcba0"/><stop offset="0.35" stop-color="#ceb475"/><stop offset="0.47" stop-color="#c2a153"/><stop offset="0.6" stop-color="#b89338"/><stop offset="0.73" stop-color="#b18825"/><stop offset="0.86" stop-color="#ad821a"/><stop offset="1" stop-color="#ac8016"/></radialGradient></defs><g id="レイヤー_2" data-name="レイヤー 2"><g id="レイヤー_1-2" data-name="レイヤー 1"><path class="cls-1" d="M13.2,99.85c-.24-.38.84-1.3,1.35-3.41,1-4.33,1-4.12,1.08-12.77.12-10.83-1-16.3-1-28.19A28.64,28.64,0,0,1,16,46.69,29.12,29.12,0,1,1,28.14,80.18v-5.4c4.13,5,9.7,7.9,15.59,7.9,12.18,0,22.09-12.15,22.09-27.08S55.91,28.52,43.73,28.52s-22,12.09-22.08,27v.76h0c0,.35,0,.7,0,1l.24,22.35a98.85,98.85,0,0,1-.36,11.21,13.4,13.4,0,0,1-3,7.08,7.42,7.42,0,0,1-4.81,2.15C13.13,100,13.44,100.22,13.2,99.85Z"/><path class="cls-1" d="M149.44,83.91c.24-.38-.84-1.3-1.35-3.41-1-4.33-1.14-4.12-1.08-12.77,0-3.92,1-6.83,1-12.25a28.63,28.63,0,0,0-1.39-8.79A29.12,29.12,0,1,0,134.5,80.18v-5.4c-4.13,5-9.71,7.9-15.59,7.9-12.18,0-22.09-12.15-22.09-27.08s9.91-27.08,22.09-27.08,22,12.09,22.08,27v.76h0l0,1-.24,6.41a98.85,98.85,0,0,0,.36,11.21,13.33,13.33,0,0,0,3,7.08,7.4,7.4,0,0,0,4.81,2.15C149.51,84.06,149.2,84.28,149.44,83.91Z"/><path class="cls-1" d="M288.72,83.74A28.23,28.23,0,1,1,317,55.51,28.29,28.29,0,0,1,288.72,83.74Zm0-54.28c-11.7,0-21.22,11.68-21.22,26.05S277,81.56,288.72,81.56,310,69.88,310,55.51,300.43,29.46,288.72,29.46Z"/><polygon class="cls-1" points="184.66 82.3 161.6 28.25 169.78 28.25 189.89 75.4 211.53 28.25 214.51 28.25 189.7 82.3 184.66 82.3"/><polygon class="cls-1" points="351.41 82.3 328.36 28.25 336.53 28.25 356.64 75.4 378.29 28.25 381.26 28.25 356.45 82.3 351.41 82.3"/><rect class="cls-1" x="233.33" width="7.05" height="82.26"/><path class="cls-1" d="M452.05,83.91c.24-.38-.84-1.3-1.35-3.41-1-4.33-1.14-4.12-1.08-12.77,0-3.92,1-6.83,1-12.25a28.34,28.34,0,0,0-1.4-8.79,29.11,29.11,0,1,0-12.14,33.49v-5.4c-4.13,5-9.71,7.9-15.6,7.9-12.17,0-22.08-12.15-22.08-27.08s9.91-27.08,22.08-27.08,22,12.09,22.09,27v.76h0l0,1-.24,6.41a96.28,96.28,0,0,0,.36,11.21,13.33,13.33,0,0,0,3,7.08,7.4,7.4,0,0,0,4.81,2.15C452.12,84.06,451.81,84.28,452.05,83.91Z"/><path class="cls-1" d="M499.8,35.9h9.83l15.46,37h.27l15.36-37h9.83l0,48.88h-6.61l0-40.18h-.13L527.35,84.79H523L506.53,44.6h-.14V84.78h-6.6Z"/><path class="cls-1" d="M602,46.5a13.73,13.73,0,0,0-5.22-4.15,15.63,15.63,0,0,0-6.54-1.44,17.63,17.63,0,0,0-7.45,1.54,17.26,17.26,0,0,0-5.72,4.24A19.58,19.58,0,0,0,573.38,53a22.48,22.48,0,0,0-1.31,7.77,21.14,21.14,0,0,0,1.23,7.31,18.27,18.27,0,0,0,3.58,6.08,16.73,16.73,0,0,0,5.71,4.14,18.24,18.24,0,0,0,7.63,1.53,15.13,15.13,0,0,0,7.36-1.73,15.72,15.72,0,0,0,5.36-4.83l5.57,4.22a21.37,21.37,0,0,1-1.92,2.17,18.9,18.9,0,0,1-3.65,2.83A26.06,26.06,0,0,1,597.47,85a23.13,23.13,0,0,1-7.4,1.07,24,24,0,0,1-10.42-2.22,25.6,25.6,0,0,1-14.59-23.05,29,29,0,0,1,1.85-10.47,24.73,24.73,0,0,1,5.2-8.28,23.24,23.24,0,0,1,8-5.43,26.85,26.85,0,0,1,10.31-1.92,25.23,25.23,0,0,1,9.46,1.87,17.57,17.57,0,0,1,7.59,5.73Z"/><path class="cls-1" d="M632.18,42.17H616.5V36h38v6.21H638.78l0,42.66h-6.6Z"/><path class="cls-1" d="M665.25,61.24h15.69V45.5h5.36V61.24H702v5.39H686.29V82.37h-5.36V66.63H665.25Z"/><line class="cls-2" y1="128.71" x2="715.15" y2="128.71"/></g></g></svg>