<svg xmlns="http://www.w3.org/2000/svg" viewBox="0 0 578.32 84.02"><defs><style>.cls-1{fill:#fff;}</style></defs><g id="レイヤー_2" data-name="レイヤー 2"><g id="レイヤー_1-2" data-name="レイヤー 1"><path class="cls-1" d="M0,83.83c-.2-.32.7-1.09,1.13-2.86.87-3.63.83-3.46.91-10.73.1-9.08-.87-13.67-.87-23.66A23.91,23.91,0,0,1,2.37,39.2a24.44,24.44,0,1,1,10.2,28.12V62.79a17,17,0,0,0,13.09,6.63c10.23,0,18.55-10.2,18.55-22.74S35.89,24,25.66,24,7.17,34.1,7.12,46.57v.64h0c0,.3,0,.59,0,.87l.2,18.77a83.6,83.6,0,0,1-.3,9.41A11.28,11.28,0,0,1,4.5,82.21a6.21,6.21,0,0,1-4,1.8C0,84,.23,84.14,0,83.83Z"/><path class="cls-1" d="M114.41,70.45c.2-.32-.7-1.09-1.13-2.86-.87-3.64-1-3.46-.9-10.73,0-3.29.87-5.73.86-10.28a23.91,23.91,0,0,0-1.17-7.38,24.44,24.44,0,1,0-10.2,28.12V62.79a17,17,0,0,1-13.09,6.63c-10.23,0-18.55-10.2-18.55-22.74S78.55,24,88.78,24s18.49,10.15,18.54,22.62v.64h0c0,.3,0,.59,0,.87l-.2,5.39a83.6,83.6,0,0,0,.3,9.41,11.22,11.22,0,0,0,2.56,5.94,6.21,6.21,0,0,0,4,1.8C114.47,70.58,114.21,70.76,114.41,70.45Z"/><path class="cls-1" d="M231.35,70.31A23.71,23.71,0,1,1,255.09,46.6,23.75,23.75,0,0,1,231.35,70.31Zm0-45.58c-9.82,0-17.82,9.81-17.82,21.87s8,21.88,17.82,21.88,17.83-9.81,17.83-21.88S241.18,24.73,231.35,24.73Z"/><polygon class="cls-1" points="143.98 69.1 124.63 23.72 131.49 23.72 148.38 63.3 166.55 23.72 169.05 23.72 148.22 69.1 143.98 69.1"/><polygon class="cls-1" points="283.98 69.1 264.63 23.72 271.49 23.72 288.38 63.3 306.55 23.72 309.05 23.72 288.22 69.1 283.98 69.1"/><rect class="cls-1" x="184.85" width="5.92" height="69.06"/><path class="cls-1" d="M368.48,70.45c.2-.32-.71-1.09-1.13-2.86-.87-3.64-1-3.46-.91-10.73,0-3.29.87-5.73.87-10.28a23.91,23.91,0,0,0-1.18-7.38,24.44,24.44,0,1,0-10.2,28.12V62.79a17,17,0,0,1-13.09,6.63c-10.22,0-18.54-10.2-18.54-22.74S332.62,24,342.84,24s18.5,10.15,18.55,22.62v.64h0l0,.87-.2,5.39a83.6,83.6,0,0,0,.3,9.41A11.21,11.21,0,0,0,364,68.82a6.21,6.21,0,0,0,4.05,1.8C368.54,70.58,368.28,70.76,368.48,70.45Z"/><path class="cls-1" d="M408.57,30.14h8.26l13,31.07H430l12.89-31.07h8.26l0,41h-5.54V37.45h-.11L431.7,71.19H428L414.22,37.44h-.11l0,33.74h-5.54Z"/><path class="cls-1" d="M494.37,39A11.45,11.45,0,0,0,490,35.56a13,13,0,0,0-5.48-1.21,14.75,14.75,0,0,0-6.26,1.29,14.44,14.44,0,0,0-4.8,3.56,16.37,16.37,0,0,0-3.09,5.31,18.89,18.89,0,0,0-1.1,6.53,17.91,17.91,0,0,0,1,6.14,15.52,15.52,0,0,0,3,5.1,14.06,14.06,0,0,0,4.8,3.48,15.4,15.4,0,0,0,6.4,1.28,12.66,12.66,0,0,0,6.18-1.45,13.32,13.32,0,0,0,4.51-4.06l4.67,3.54a16.68,16.68,0,0,1-1.61,1.83,15.87,15.87,0,0,1-3.06,2.37,22.16,22.16,0,0,1-4.6,2.09,19.54,19.54,0,0,1-6.21.9,20.12,20.12,0,0,1-8.75-1.87A21,21,0,0,1,464.8,58.71,21,21,0,0,1,463.36,51a24.17,24.17,0,0,1,1.56-8.79,20.51,20.51,0,0,1,4.36-7A19.47,19.47,0,0,1,476,30.74a22.52,22.52,0,0,1,8.66-1.61,21.15,21.15,0,0,1,7.94,1.56A14.89,14.89,0,0,1,499,35.51Z"/><path class="cls-1" d="M519.72,35.4H506.55V30.18h31.87v5.22H525.26l0,35.83H519.7Z"/><path class="cls-1" d="M547.48,51.41h13.17V38.2h4.5V51.42h13.17V56H565.15V69.16h-4.51V55.94H547.48Z"/></g></g></svg>