<svg xmlns="http://www.w3.org/2000/svg" viewBox="0 0 142.45 20.74"><defs><style>.cls-1{fill:#333;}</style></defs><g id="レイヤー_2" data-name="レイヤー 2"><g id="レイヤー_1-2" data-name="レイヤー 1"><path d="M0,20.69c0-.08.17-.27.28-.71a8.36,8.36,0,0,0,.22-2.64C.53,15.09.3,14,.3,11.5A5.74,5.74,0,0,1,.59,9.68,6,6,0,1,1,3.1,16.61V15.5a4.2,4.2,0,0,0,3.23,1.63c2.53,0,4.58-2.51,4.58-5.61S8.86,5.91,6.33,5.91,1.77,8.42,1.76,11.5v.15h0a1.55,1.55,0,0,0,0,.22l.05,4.63a21.65,21.65,0,0,1-.08,2.32,2.71,2.71,0,0,1-.63,1.47,1.5,1.5,0,0,1-1,.44C0,20.72.06,20.77,0,20.69Z"/><path d="M28.24,17.39c.05-.08-.17-.27-.28-.71A7.59,7.59,0,0,1,27.74,14c0-.81.21-1.41.21-2.53a5.74,5.74,0,0,0-.29-1.82,6,6,0,1,0-2.51,6.93V15.5a4.22,4.22,0,0,1-3.24,1.63c-2.52,0-4.57-2.51-4.57-5.61s2.05-5.61,4.57-5.61,4.57,2.51,4.58,5.59v.15h0a1.55,1.55,0,0,1,0,.22l-.05,1.33a19.08,19.08,0,0,0,.08,2.32A2.74,2.74,0,0,0,27.14,17a1.55,1.55,0,0,0,1,.44C28.26,17.42,28.19,17.46,28.24,17.39Z"/><path d="M57.11,17.35A5.85,5.85,0,1,1,63,11.5,5.86,5.86,0,0,1,57.11,17.35Zm0-11.25c-2.43,0-4.4,2.43-4.4,5.4s2,5.4,4.4,5.4,4.4-2.42,4.4-5.4S59.53,6.1,57.11,6.1Z"/><polygon points="35.54 17.05 30.76 5.85 32.46 5.85 36.63 15.62 41.11 5.85 41.73 5.85 36.59 17.05 35.54 17.05"/><polygon points="70.1 17.05 65.32 5.85 67.02 5.85 71.18 15.62 75.67 5.85 76.29 5.85 71.14 17.05 70.1 17.05"/><rect x="45.63" width="1.46" height="17.05"/><path d="M91,17.39c.05-.08-.18-.27-.28-.71A7.28,7.28,0,0,1,90.45,14c0-.81.22-1.41.22-2.53a6,6,0,1,0-6,6.05,6,6,0,0,0,3.23-.94V15.5a4.2,4.2,0,0,1-3.23,1.63c-2.53,0-4.58-2.51-4.58-5.61s2-5.61,4.58-5.61,4.56,2.51,4.58,5.59v.15h0v.22l0,1.33a20.38,20.38,0,0,0,.07,2.32A2.9,2.9,0,0,0,89.85,17a1.57,1.57,0,0,0,1,.44C91,17.42,90.91,17.46,91,17.39Z"/><path class="cls-1" d="M101.52,8.24h2l3.13,7.49h.06l3.1-7.49h2v9.89h-1.34V10h0l-3.33,8.13h-.89L102.88,10h0v8.13h-1.33Z"/><path class="cls-1" d="M122.21,10.38a2.83,2.83,0,0,0-1.06-.84,3.24,3.24,0,0,0-1.32-.29,3.46,3.46,0,0,0-2.67,1.17,4.08,4.08,0,0,0-.75,1.28,4.74,4.74,0,0,0-.26,1.57,4.26,4.26,0,0,0,.25,1.48,3.76,3.76,0,0,0,.72,1.23,3.27,3.27,0,0,0,1.16.84,3.62,3.62,0,0,0,1.54.31,3,3,0,0,0,1.49-.35,3.18,3.18,0,0,0,1.09-1l1.13.86c-.08.1-.21.25-.39.44a4,4,0,0,1-.74.57,5.21,5.21,0,0,1-1.11.5,4.56,4.56,0,0,1-1.5.22,4.76,4.76,0,0,1-2.1-.45,5.13,5.13,0,0,1-1.6-1.17,5.21,5.21,0,0,1-1-1.65,5.15,5.15,0,0,1-.35-1.85,5.87,5.87,0,0,1,.38-2.12,5,5,0,0,1,1-1.67,4.7,4.7,0,0,1,1.62-1.1A5.44,5.44,0,0,1,119.87,8a5.08,5.08,0,0,1,1.91.38,3.57,3.57,0,0,1,1.54,1.16Z"/><path class="cls-1" d="M128.32,9.5h-3.18V8.25h7.69V9.51h-3.18v8.64h-1.34Z"/><path class="cls-1" d="M135,13.36h3.18V10.18h1.08v3.19h3.18v1.09h-3.18v3.18h-1.08V14.46H135Z"/></g></g></svg>