<svg xmlns="http://www.w3.org/2000/svg" viewBox="0 0 56.11 68.65"><defs><style>.cls-1,.cls-2{fill:#fff;}.cls-1{fill-rule:evenodd;}</style></defs><g id="レイヤー_2" data-name="レイヤー 2"><g id="レイヤー_1-2" data-name="レイヤー 1"><path class="cls-1" d="M56.11,63.52c0,2.25-1.78,5.13-4.42,5.13a4.77,4.77,0,0,1-4.77-4.78c0-2.63,2.87-4.42,5.12-4.42A4.07,4.07,0,0,1,56.11,63.52Z"/><path class="cls-2" d="M0,66.22S2.88,63,3,51.62c.1-9.78-.93-14.72-.93-25.46a25.57,25.57,0,0,1,1.26-7.93,26.29,26.29,0,1,1,11,30.24V43.59a18.21,18.21,0,0,0,14.08,7.13c11,0,19.94-11,19.94-24.45S39.38,1.82,28.39,1.82s-19.9,10.92-20,24.34v.68h0l0,.94L8.7,48a90.81,90.81,0,0,1-.32,10.13c-.25,2.32-.13,4.75-2,6.84C4.11,67.43,0,66.22,0,66.22Z"/></g></g></svg>