<?xml version="1.0" encoding="utf-8"?>
<!-- Generator: Adobe Illustrator 24.3.0, SVG Export Plug-In . SVG Version: 6.00 Build 0)  -->
<svg version="1.1" id="レイヤー_1" xmlns="http://www.w3.org/2000/svg" xmlns:xlink="http://www.w3.org/1999/xlink" x="0px"
	 y="0px" viewBox="0 0 764.8 145.9" style="enable-background:new 0 0 764.8 145.9;" xml:space="preserve">
<style type="text/css">
	.st0{fill:#FFFFFF;}
</style>
<path class="st0" d="M82.8,40.3c-1.1,1.1-2.7,1.7-4.3,1.7c-1.6,0-3.1-0.6-4.3-1.7c-1.1-1.1-1.8-2.7-1.7-4.3c0-1.6,0.6-3.1,1.7-4.3
	c1.1-1.1,2.7-1.8,4.3-1.7c1.6-0.1,3.1,0.6,4.3,1.7c1.1,1.2,1.7,2.7,1.7,4.3C84.5,37.6,83.9,39.2,82.8,40.3z"/>
<path class="st0" d="M144.9,8c-1.5-1.4-3.4-2.2-5.5-2.2c-1.8-0.1-3.6,0.7-4.8,2c-1.3,1.3-2,3-2,4.9c0,2.1,0.8,4.1,2.3,5.5
	c1.4,1.5,3.3,2.4,5.4,2.3c1.9,0,3.7-0.8,4.9-2.1c1.3-1.3,2-3.1,1.9-4.9C147.2,11.4,146.4,9.4,144.9,8z M143,16.3
	c-0.7,0.8-1.8,1.3-2.9,1.2c-1.2,0-2.3-0.5-3.1-1.4c-0.9-0.8-1.3-2-1.3-3.2c-0.1-1.1,0.3-2.1,1.1-2.9c0.8-0.8,1.8-1.2,2.9-1.2
	c1.2,0,2.3,0.5,3.1,1.3c0.9,0.8,1.3,2,1.3,3.2C144.1,14.5,143.7,15.5,143,16.3z"/>
<path class="st0" d="M290.7,25.4L290.7,25.4c-0.1,0-0.3,0-0.4,0.1c-0.3,0.3-0.2,0.5-0.1,1c0.2,0.8,0.2,1.7-0.1,2.5
	c-0.6,2-1.5,4-2.7,5.7l-2.1,2.8c-1.6,2.2-3.4,4.3-5.3,6.2c-2.8,2.9-5.9,5.6-9.2,8h-0.1c-1.2,0.9-1.6,1.4-1.3,1.7
	c0.1,0.1,0.2,0.2,0.5,0.2l0,0c0.3,0,0.7,0,1-0.1c1.3-0.3,2.6-0.8,3.9-1.3c2.4-1.2,4.7-2.6,6.9-4.3c3.4-2.5,6.5-5.3,9.3-8.5l0.3-0.3
	c1.2-1.4,2.3-2.7,3.2-4c1.5-2.1,1.9-3.2,1.9-3.7c0-1.2-1-2.9-2.5-4.3C292.1,25.5,291.1,25.4,290.7,25.4z"/>
<path class="st0" d="M329.3,47.5c-0.5-1.8-1.3-3.6-2.2-5.2c-1.2-2-2.5-3.8-3.9-5.6c-1.7-1.9-3.4-3.7-5.3-5.4
	c-3.3-2.9-6.9-5.4-10.7-7.4c-2.4-1.3-3.6-1.6-4.1-1.1c-0.1,0.1-0.2,0.3-0.2,0.4c0,0.4,0.4,0.8,1,1.2l0.2,0.2c0,0,2.5,1.8,3.4,2.6
	c2.8,2.6,5.4,5.5,7.6,8.6c1.5,2.2,2.9,4.6,4.2,7c0.6,1.3,1.2,2.5,1.7,3.6l0.4,0.9c0.5,1,1,2.1,1.5,3.1c1,1.8,1.9,2.7,3.1,2.9
	c0.2,0,0.5,0.1,0.7,0.1c1.3,0,2.4-0.8,2.8-2C329.7,50.1,329.7,48.8,329.3,47.5z"/>
<path class="st0" d="M111.9,25.4L111.9,25.4c-0.1,0-0.3,0-0.4,0.1c-0.2,0.3-0.2,0.5-0.1,1c0.2,0.8,0.2,1.7,0,2.5
	c-0.6,2-1.5,4-2.7,5.7l-2.1,2.8c-1.7,2.2-3.4,4.3-5.3,6.3c-2.8,2.9-5.9,5.6-9.2,8l0,0c-1.2,0.9-1.6,1.4-1.3,1.7
	c0.1,0.1,0.3,0.2,0.5,0.2l0,0c0.3,0,0.7,0,1-0.1c1.3-0.3,2.6-0.8,3.9-1.3c2.4-1.2,4.7-2.6,6.9-4.3c3.3-2.5,6.4-5.3,9.1-8.4l0.3-0.3
	c1.2-1.4,2.3-2.7,3.2-4c1.6-2.1,1.9-3.2,1.9-3.7c0-1.2-1-2.9-2.5-4.3C113.3,25.5,112.2,25.4,111.9,25.4z"/>
<path class="st0" d="M150.5,47.5c-0.5-1.8-1.2-3.6-2.2-5.2c-1.2-2-2.5-3.9-3.9-5.6c-4.5-5.2-10-9.6-16.1-12.9
	c-2.3-1.3-3.6-1.6-4.1-1.1c-0.1,0.1-0.2,0.3-0.2,0.4c0,0.4,0.4,0.8,1,1.2l0.3,0.2c0,0,2.4,1.8,3.4,2.6c2.8,2.6,5.4,5.5,7.6,8.6
	c1.5,2.2,2.9,4.6,4.2,7c0.6,1.3,1.1,2.5,1.7,3.6l0.4,0.9l1.5,3.1c1,1.8,1.9,2.7,3.1,2.9c0.2,0,0.5,0.1,0.7,0.1c1.3,0,2.4-0.8,2.8-2
	C150.9,50.1,150.8,48.8,150.5,47.5z"/>
<path class="st0" d="M59.7,14.9c-0.2,0.4-0.5,0.6-0.9,0.7c-0.7,0.2-1.4,0.1-2-0.3c-0.8-1.1-2-2.7-3.5-4.7c-0.5-0.6-1.1-1.2-1.7-1.7
	c-1.2-1-1.7-1.7-1.5-1.9s1-0.1,2.4,0.3c1.4,0.4,2.8,1,4.2,1.7c2.3,1.1,3.5,2.6,3.5,4.4C60.1,13.9,59.9,14.4,59.7,14.9z M66.5,10.1
	c-0.2,0.3-0.5,0.6-0.9,0.7c-0.7,0.2-1.4,0.1-2-0.2c-0.8-1-2-2.6-3.7-4.6c-0.5-0.6-1.1-1.2-1.7-1.7c-1.2-1-1.7-1.6-1.6-1.8
	s1-0.1,2.3,0.3c1.5,0.4,2.9,0.8,4.4,1.4c2.3,1,3.5,2.5,3.5,4.4C66.9,9.1,66.7,9.6,66.5,10.1z"/>
<path class="st0" d="M40.5,7.8c1.8,0.8,2.9,1.6,3.2,2.3c0.1,0.5,0.1,0.9-0.1,1.4c-0.2,0.7-0.4,1.5-0.5,2.3c-0.2,2.5-0.3,4.1-0.3,4.8
	v5.8c1.4-0.1,3.3-0.2,5.8-0.3c1.8-0.3,3.6-0.6,5.4-1.1c0.9-0.3,1.9-0.5,2.9-0.5c1.1,0.2,2.1,0.8,2.8,1.7c0.8,0.7,1.4,1.7,1.6,2.8
	c0.1,0.9-0.1,1.4-0.6,1.6c-1.2,0.4-2.4,0.5-3.6,0.2c-1.2-0.1-2.9-0.2-5.2-0.3c-1.6-0.1-3.1-0.1-4.7,0l-4.3,0.1c0,1.7,0,4.3-0.1,7.3
	c-0.1,3.1-0.6,6.1-1.5,9c-1.3,4.3-3.7,8.2-7,11.3c-1.9,1.8-4,3.5-6.3,4.9c-1.9,1.2-3.9,2.3-6,3.1c-1.2,0.4-1.9,0.4-2,0.1
	s0.2-0.9,1.1-1.5s2.3-1.5,4.1-3c5.8-4.8,8.2-8.1,10.2-13.2c1.5-4.2,2.2-8.7,2.2-13.2c0-1.7,0-3.2-0.1-4.6C32,29,27.2,29.4,24.1,29.5
	c0.1,0.8,0.1,2.5,0.2,5l0.1,4.7c0.1,1.2,0,2.4-0.3,3.6c-0.4,1.2-1,1.8-1.9,1.9c-1.2,0.1-2.2-0.8-3-2.6c-0.6-1.3-0.9-2.8-0.7-4.3
	c0.4-2.6,0.5-5.2,0.4-7.9c-1.5,0.2-3.7,0.4-7.2,0.7c-1.1,0.2-2.8,0.5-5.2,0.9c-0.7,0-1.4-0.2-2-0.5c-0.8-0.4-1.5-0.9-2.1-1.6
	c-0.7-0.8-1.1-1.7-1.3-2.7c0-0.1,0-0.3,0.1-0.4c1.1-0.1,2.2-0.1,3.3,0.1c1.7,0,3.5,0,5.2-0.1c3.3-0.2,6.1-0.4,9.2-0.5
	c-0.1-1.6-0.2-4.2-0.4-7.8c-0.1-1.4-0.4-2.7-0.7-4.1c-0.1-0.7-0.3-1.5-0.7-2.1c-0.4-0.7-0.5-1.1-0.4-1.2c0.4-0.5,1.1-0.4,2.8,0.2
	c1.2,0.5,2.3,1.2,3.3,2.1c0.5,0.7,0.7,2,0.8,4.2c0,0.1,0.1,2.8,0.2,8.3c3.2-0.1,8.1-0.3,13.8-0.6c0.1-2.2-0.1-7-0.2-8.2
	c-0.1-2-0.4-3.9-0.8-5.8C36.3,9.9,36,9,35.5,8.1c-0.4-0.6-0.5-1-0.4-1.2c0.4-0.6,1.4-0.6,3-0.1C39,7.1,40.5,7.8,40.5,7.8z"/>
<path class="st0" d="M169.7,38.7c-0.7,0-2.3,0.1-4.8,0.2c-0.8,0.1-1.5,0.2-2.2,0.5c-0.4,0.1-0.9,0.2-1.4,0.1
	c-0.7-0.2-1.6-1.5-2.4-3.4c0,0-0.7-1.5-0.9-2.3c-0.5-1.7-0.5-2.6,0.1-3.1c0.2-0.1,0.6,0,1.1,0.5c0.9,0.4,1.7,0.8,2.7,1
	c1.9,0.5,3.9,0.8,5.8,0.9h22.4c2.1-0.1,7.1-0.2,15.7-0.2l6.9-0.1c3.5,0.1,5.3,0.9,5.4,2.5s-1.1,2.4-4.1,3c-1.8,0.4-5.3,0.4-10.3,0.4
	c-1.6-0.1-6.3,0-14.2-0.1c-4.9,0-9.2,0-12.2,0.1L169.7,38.7z"/>
<path class="st0" d="M441.7,60c-1.4-0.3-2.6-1-3.5-2.1c-2.3-2.3-4.6-4.3-6.6-6.2c-2.2-2-4.5-3.8-6.9-5.5c-1.7-1.2-3.7-2.5-5.9-3.8
	c-3.1,3.3-6.5,6.3-10.2,9c-5.6,4.2-12,7.3-18.8,9c-1.8,0.4-2.7,0.4-2.9,0s0.6-1,2.1-1.7c4.6-2.2,9-4.8,13.2-7.7
	c3.1-2.2,6-4.6,8.7-7.2c3-3.1,5.9-6.5,8.5-10c2.6-3.5,5-7.3,7.1-11.2c-0.2,0-4.3,0.6-12.2,1.9c-1.2,0.1-3.1,0.5-5.6,0.8
	c-0.8,0.1-1.5,0.3-2.2,0.6c-0.6,0.2-1.3,0.3-1.9,0.4c-1.7-0.1-3.4-1.3-5.2-3.6c-0.6-0.9-0.8-1.4-0.6-1.7c0.1-0.2,0.7-0.3,1.9-0.2h3
	c1.4,0,2.7,0,3.8-0.1c1.9-0.2,5.1-0.5,9.5-0.9c2.3-0.2,4.6-0.5,8.4-1c0.6-0.1,1.1-0.4,1.6-0.7c0.5-0.3,1-0.6,1.5-0.8
	c0.9-0.1,2.3,0.3,4.3,2.2c1.6,1.6,2.2,2.4,2.1,3.2c0,0.8-0.5,1.5-1.2,1.8c-0.7,0.4-1.4,0.9-2,1.5c-0.5,0.4-2,2.5-5.8,7.6
	c-1,1.3-2.7,3.5-5.2,6.6c1.7,0.6,4.7,1.9,8.8,3.7c3.8,1.8,6.5,3.1,7.9,4c1.7,1.1,3.3,2.4,4.9,3.7c1.5,1.5,2.3,3.5,2.2,5.6
	C444.3,59.1,443.4,60.1,441.7,60z"/>
<path class="st0" d="M386,23.1c-2.2-2.1-4.4-3.6-5.4-3.6c-1.3,0-2.4,1.8-3.1,1.8c-2.2,0.2-4.3,0.3-5.9,0.3c-3.1,0.2-5.3,0.4-6.5,0.5
	v-2.6c0-0.7,0.1-2.5,0.3-5.2c0.1-0.8,0.3-1.6,0.5-2.4c0.1-0.5,0.2-1,0.1-1.5c-0.3-0.8-1.4-1.6-3.4-2.5c0,0-1.8-0.7-2.6-1
	c-1.8-0.6-2.9-0.5-3.3,0.1c-0.1,0.2,0,0.6,0.4,1.3c0.5,0.9,0.9,1.9,1.2,2.9c0.5,2.1,0.8,4.2,0.9,6.3c0,0.7,0.1,3.1,0.1,5.2
	c-8.3,0.7-13,1-14.4,1.1c-1.5-1.1-2.6-2.1-3.3-2.6c-0.8-0.7-1.8-1.2-2.9-1.5c-0.4-0.1-0.7,0.2-0.8,0.9c0,0.8,0.2,1.5,0.5,2.2
	c0.4,1.2,0.7,2.2,1,3.3c0.6,2.1,1,4.3,1.4,6.5c0.8,3.5,1.2,6.3,1.5,8.4c0.1,1.2,0.5,2.3,1,3.4c0.9,1.8,2,2.7,3.3,2.7
	c1.9,0,2.7-1.4,2.3-4.4c-0.7-3.6-1.3-6.5-1.9-8.4c-0.6-3.1-1.1-5.3-1.5-6.6c7.2-0.5,12.5-0.9,16-1.2c8-0.5,13.4-0.7,16.2-0.7
	c-1.3,4.9-3.1,9.6-5.4,14.1c-2.2,4.2-5,8.2-8.1,11.8c-2,2.1-4.1,4.1-6.4,5.9c-1.9,1.5-3.8,3-5.9,4.3c-1.9,1.2-2.7,2.1-2.6,2.5
	c0.1,0.2,0.3,0.3,0.6,0.3c1.1-0.2,2.2-0.5,3.2-1.1c2.2-0.8,4.3-1.9,6.3-3.1c2.8-1.8,5.5-3.8,8-6c3.5-3.2,6.5-6.9,8.9-11
	c2.9-4.7,5.4-9.5,7.5-14.6c0.7-1.6,2.6-2.1,2.9-3.4C387.2,24.6,387.1,24.2,386,23.1z"/>
<path class="st0" d="M273.4,23.5c-1.1,0.8-2,1.7-2.7,2.9c-0.7,1.1-1.8,2.9-3.4,5.4c-1.4,2.2-3,4.7-5,7.5c-2.9,4.1-6.1,7.8-9.8,11.2
	c-5.4,5-11.5,9-18.3,11.9c-1.8,0.8-3.7,1.4-5.6,2c-1.4,0.3-2.1,0.2-2.3-0.2s0.4-0.8,1.6-1.4c6.1-3.3,11.9-7.3,17.1-11.8
	c2.9-2.6,5.6-5.5,8.1-8.6c2.8-3.5,5.3-7.1,7.6-10.9c0.5-0.9,2-3.6,4.6-8.5c-2.3,0.2-8,0.6-10.9,1.1c-1.1,0.1-2.3,0.3-3.4,0.6
	c-0.5-0.1-1-0.4-1.4-0.9c-0.5-0.4-1.1-0.8-1.6-1.2c-2.3,2.7-4.7,5.3-7.3,7.7c-1.1,1-2.7,2.3-4.8,4c-1.9,1.4-3.9,2.6-6.1,3.5
	c-1.8,0.9-2.9,1.1-3.2,0.6s0.2-1.1,1.4-2.1c4.5-3.6,8.6-7.8,12.1-12.4c1.8-2.3,3.3-4.8,4.7-7.4c1-1.7,1.7-3.6,2.1-5.5
	c0.2-0.8,0.2-1.6,0.2-2.5c0-0.4-0.1-1.1,0.1-1.4c0.4-0.4,1.1,0,1.9,0.6c0.8,0.6,1.6,1.2,2.4,1.9c1.5,1.5,2.3,2.5,2.4,2.9
	c-0.1,0.7-0.5,1.4-1,1.9c-0.2,0.3-0.6,0.9-1,1.5c-0.8,1.2-1.6,2-2.9,4.2l7.1-0.7c2.9-0.3,8.5-0.6,10.2-1.1c0.5-0.2,0.9-0.4,1.3-0.7
	c0.3-0.2,0.6-0.4,0.9-0.6c0.4-0.2,1-0.1,1.9,0.4c1,0.6,2,1.4,2.9,2.2c1.3,1.4,1.3,1.8,1.1,2.7C274.3,22.9,273.9,23.3,273.4,23.5z"/>
<path class="st0" d="M47.5,94c0.8,0.1,1.7,0.2,2.5,0.4c1.4,0.6,2.1,1.1,2.1,1.6c0.1,0.9-0.6,1.6-1.5,1.7c0,0,0,0,0,0
	c-3.3,0.6-6.8,1.1-10.3,1.5c-0.1,2.5-0.3,5.2-0.4,8.3c8.2-1.1,14.7-2.1,19.7-3c0.5-0.1,1-0.1,1.5-0.2c1.9,0.1,3.8,0.5,5.5,1.3
	c1.8,1.2,2.8,2.4,2.8,3.6c0,0.7-0.7,1.1-2,1.1c-1.5,0-4.1-0.1-7.7-0.4c-1.9-0.2-3.9-0.3-5.8-0.4c-3.7,0-7.1,0-10.2,0.1
	c0.3,0.1,0.5,0.3,0.7,0.4c1.4,0.9,2.1,1.8,2.1,2.8c0,0.3-0.1,0.5-0.3,0.7c-0.5,1.5-0.7,3.2-0.6,4.8c0,6,0.3,12.2,0.9,18.7
	c-0.1,2-0.8,3.9-2.1,5.5c-1.3,1.7-2.3,2.5-3.1,2.5s-1.6-0.6-2-1.7c-0.7-1.4-2.6-3.5-5.4-6.3c0-0.3,0.2-0.5,0.4-0.6
	c0.1,0,0.1,0,0.2,0c1.7,0.7,3.6,1.2,5.4,1.4c0.8,0,1.3-0.9,1.5-2.6c0.3-2.7,0.4-7,0.4-12.8c0-2.3-0.1-5-0.4-8
	c-0.1-1.3-0.3-2.6-0.7-3.9c-0.1-0.3-0.2-0.5-0.2-0.7c-3.2,0.2-6.1,0.4-8.7,0.7c0.6,0.1,1.2,0.2,1.8,0.4c1.1,0.3,1.7,0.9,1.7,1.7
	c-0.4,0.6-0.6,1.2-0.6,1.9c-0.3,6.1-1,10.7-2.1,13.7c-0.9,3.2-2.4,6.2-4.4,8.9c-2.1,2.1-4.6,3.8-7.3,5.1c-1.1,0.5-2.2,0.9-3.4,1.1
	c-0.1,0-0.3-0.1-0.3-0.2c0,0,0-0.1,0-0.1c3-2.5,5.8-5.4,8.1-8.5c1.8-2.7,3-5.7,3.5-8.8c0.7-3.2,1-6.5,1-9.8
	c-0.1-1.6-0.6-3.2-1.3-4.6c0-0.1-0.1-0.2-0.1-0.3c-3.8,0.5-7.5,1.3-11.1,2.2c-0.9,0.4-1.9,0.6-2.9,0.6c-1.5,0-3-0.4-4.3-1.1
	c-1.3-0.7-2-1.2-2-1.5c0-0.3,0.2-0.5,0.5-0.6c0,0,0.1,0,0.1,0c3.7,0,11.6-0.7,23.8-2.2l3.5-0.4c0-3.1,0.1-5.8,0.2-8.3
	c-1.6,0.2-3.2,0.3-4.8,0.4c-3.1,0-5.2-0.4-6.2-1.2c-0.7-0.5-1-0.8-1-1.1s0.2-0.3,0.6-0.3c4.5-0.2,8.3-0.5,11.4-0.9
	c0.1-3.3,0-6.6-0.2-9.9c-0.3-0.9-0.8-1.7-1.4-2.5c-0.3-0.5-0.5-1-0.6-1.6c0-0.7,0.5-1.1,1.4-1.1c1.4,0,2.8,0.4,4,1.2
	c1.9,0.8,2.9,1.6,2.9,2.3c0,0.4-0.1,0.9-0.2,1.4c-0.5,1.3-0.9,4.4-1.3,9.5c2-0.4,3.8-0.9,5.5-1.4C46.6,94.1,47.1,94,47.5,94z
	 M19.7,119.2c0.2,0,0.4,0.3,0.6,0.8c0.5,1,0.8,2.1,0.9,3.2c-0.1,2.2-0.6,4.3-1.7,6.2c-0.5,1.4-1.3,2.6-2.4,3.6c-0.5,0.6-1.2,1-2,1.1
	c-0.7,0-1.4-0.5-1.7-1.1c-0.2-0.6-0.3-1.3-0.3-2c0-0.8,0.2-1.7,0.4-2.5c3.1-4.2,4.7-6.9,5-8.1C18.8,119.6,19.1,119.2,19.7,119.2z
	 M50.5,119.2c0.7,0,1.4,0.2,2.1,0.4c1.8,0.8,3.6,1.8,5.5,2.9c1.8,1.1,3.4,2.6,4.6,4.3c0.7,1.2,1,2.6,1,4c0,0.8-0.2,1.5-0.5,2.2
	c-0.3,0.6-0.8,1-1.5,1c-0.4,0-0.8-0.1-1.2-0.3c-1.4-1.4-2.7-3-3.8-4.6c-1.5-2.5-3.1-4.9-4.9-7.1c-1-1.1-1.5-1.9-1.5-2.3
	c-0.1-0.1,0-0.3,0.1-0.3C50.4,119.2,50.4,119.2,50.5,119.2z"/>
<path class="st0" d="M102.1,110.3c0.3,0,0.5,0.2,0.5,0.6c-0.1,0.4-0.3,0.7-0.6,1c-1.5,1.8-3.9,4.2-7.1,7.4c-1.7,1.8-3.8,4-6.2,6.8
	c-0.3,0.5-0.5,0.8-0.7,0.8c-0.7,0-2-0.6-3.7-1.9c-1.4-1.3-2-2.2-2-2.7s0.3-0.8,0.9-0.8c0.9-0.2,1.7-0.5,2.4-1
	c4.8-2.7,9.4-5.6,13.9-8.8C100.3,111.1,101.1,110.6,102.1,110.3z M88.9,101.1c0.8,0,1.6,0.1,2.3,0.3c1.8,0.3,3.5,0.9,5.1,1.7
	c0.9,0.5,1.5,1.6,1.5,2.7c0,0.8-0.3,1.5-0.8,2.1c-0.4,0.6-1.1,0.9-1.8,1c-0.7,0-1.3-0.3-1.7-0.8c-1.8-1.7-3.4-3.6-4.8-5.7
	c-0.3-0.3-0.4-0.6-0.4-0.7C88.4,101.3,88.6,101.1,88.9,101.1z M103.8,88.5c1.1,0.2,2.2,0.5,3.2,1c1.9,1,2.8,1.8,2.8,2.5
	c0,0.3-0.1,0.5-0.2,0.7c-0.8,2.3-1.2,6.8-1.2,13.5v25.9c-0.2,1.7-0.8,3.4-1.7,4.9c-1.3,1.9-2.4,2.9-3.2,2.9
	c-5.1-5.9-7.7-8.9-7.7-9.2v-0.3c3.1,1.3,5.1,2,6,2s1.7-1.1,2-3.2c0.5-3,0.8-9.4,0.9-19.1c0-4-0.2-9.6-0.6-16.7
	c0-0.6-0.6-0.9-1.8-0.9c-1.1,0-2.2,0.1-3.2,0.3c-2.5,0.4-4.9,0.9-7.3,1.7c-0.6-0.1-1.1-0.3-1.6-0.7c-0.5-0.3-0.7-0.6-0.7-1
	s0.2-0.6,0.5-0.6c0.9,0,1.8-0.1,2.7-0.4c2.6-0.5,5.2-1.2,7.7-1.8c1-0.3,1.9-0.7,2.8-1.2C103.3,88.6,103.5,88.5,103.8,88.5z
	 M128.8,108.6c0.2,0,0.3,0.2,0.3,0.6c0,0.2-0.2,0.5-0.6,1c-1.4,1.8-3.6,4.3-6.5,7.5c-1.6,1.8-3.5,4-5.7,6.8
	c-0.3,0.5-0.5,0.8-0.7,0.8c-0.7,0-1.8-0.6-3.3-1.8c-1.2-1.2-1.8-2-1.8-2.5c-0.1-0.4,0.2-0.8,0.7-0.9c0.1,0,0.1,0,0.2,0
	c0.8-0.2,1.5-0.5,2.2-1c4.5-2.7,8.8-5.7,12.8-9C127,109.4,127.8,108.9,128.8,108.6L128.8,108.6z M130.8,86.2
	c1.2,0.2,2.4,0.5,3.5,1.1c2.1,1.1,3.1,2.1,3.1,2.9c0,0.3-0.1,0.5-0.2,0.7c-0.8,2.4-1.2,7.2-1.2,14.4v27.3c0,1.2-0.7,3-2,5.4
	c-1.5,2.1-2.8,3.2-3.8,3.2c-6.1-6.6-9.2-10-9.2-10.3v-0.3c3.7,1.3,6.1,2,7.2,2c1.3,0,2.1-1.1,2.4-3.4c0.7-3.1,1-9.7,1-19.7
	c0-4.3-0.3-10.3-0.9-17.9c0-0.5-0.6-0.8-1.7-0.8c-0.9,0-2.3,0.1-4,0.2c-3,0.4-6,1-8.9,1.8c-0.7-0.1-1.4-0.5-1.9-1
	c-0.6-0.4-1-0.9-1-1.3c0-0.3,0.2-0.5,0.5-0.6c0,0,0.1,0,0.1,0c1.1,0,2.2-0.1,3.2-0.4c3.2-0.5,6.3-1.2,9.5-1.9
	c1.2-0.2,2.3-0.6,3.4-1.2C130.1,86.3,130.4,86.2,130.8,86.2L130.8,86.2z M113.8,99.4c0.8,0,1.7,0.1,2.5,0.2c1.9,0.3,3.7,0.8,5.4,1.6
	c1,0.4,1.6,1.4,1.5,2.4c0,0.8-0.3,1.6-0.8,2.2c-0.4,0.6-1.1,0.9-1.8,1c-0.7,0-1.4-0.3-1.9-0.7c-1.9-1.6-3.7-3.5-5.1-5.5
	c-0.3-0.3-0.4-0.5-0.4-0.6C113.3,99.6,113.5,99.4,113.8,99.4z"/>
<path class="st0" d="M201.2,93.8c0.7,0,2.1,0.8,4,2.3c1.8,1.7,2.7,3,2.9,3.8c0,0.7-0.5,1.4-1.6,2.1c-1.9,2-3.4,4.3-4.5,6.8
	c-2.1,4.5-4.5,8.9-7.3,13c-2.5,3.5-5.6,6.5-9.2,9c-3.6,2.4-7.4,4.6-11.4,6.4c5.3-4.3,10-9.2,14.2-14.5c2.9-3.8,5.4-7.9,7.5-12.3
	c2.7-5.6,4.1-9.1,4.3-10.6c-0.1-1-0.8-1.5-2.1-1.5c-2.8,0-7.7,0.9-14.7,2.7c-7.7,1.9-12.7,2.9-15.2,2.9c-1.3-0.1-2.6-0.4-3.8-1.1
	c-1.7-0.7-2.5-1.6-2.5-2.7c0-0.6,0.3-1,0.9-1c0.6,0,1.3,0.2,1.9,0.4c0.8,0.1,1.6,0.2,2.4,0.2c6.3-0.2,12.6-1,18.8-2.1
	c6.5-1.1,10.8-2.1,13-3.1C199.5,94.2,200.4,93.9,201.2,93.8z"/>
<path class="st0" d="M236.7,100.7c0.9,0.1,1.7,0.3,2.6,0.6c0.9,0.3,1.9,0.5,2.9,0.6c2.8-0.3,5.5-0.7,8.2-1.3
	c2.2-0.3,5.3-0.9,9.2-1.8c6.3-1.9,9.7-2.9,10.3-2.9c1.3,0,3.2,0.8,5.5,2.3c2.1,1.5,3.4,2.8,3.7,3.9c-0.1,0.6-0.4,1.2-1,1.5
	c-0.9,0.9-1.7,2-2.3,3.2c-1.3,2.4-2.4,4.9-3.1,7.5c-0.6,1.8-1,3.7-1.2,5.7c0,0.7,0.2,1.3,0.5,1.9c0.6,0.4,0.9,1,1.1,1.7
	c0,0.8-1.5,1.3-4.6,1.5c-13.7,1-20.9,2.1-21.5,3.4c-0.6,1.3-1.1,2-1.7,2.1c-1.3,0-2.7-1.6-4.2-4.7c-0.7-1.6-1-4.5-1-8.8
	c0-3.7-0.6-7.4-1.7-11c-0.5-1.5-1-2.4-1.5-2.6c-0.7-0.4-1.2-1.1-1.2-1.8C235.6,101,236,100.7,236.7,100.7z M246.7,123.4
	c3.8-0.7,9.6-1.6,17.2-2.6c1.4-0.2,2.4-1.3,2.6-2.7l3.1-15.3c0-0.7-0.6-1.1-1.8-1.1s-4.5,0.4-10.1,1.2c-2.7,0.3-5.4,0.9-8,1.6
	c-1,0.4-2.1,0.6-3.2,0.7c-1.3,0.1-2.5-0.2-3.7-0.7L246.7,123.4z"/>
<path class="st0" d="M313.4,90.4c5.2,1.7,10,4.2,14.3,7.5c3,2.4,4.4,4.3,4.3,5.7c-0.1,2.2-1.1,3.3-3.1,3.2c-1.4,0-3.2-1.6-5.4-4.8
	C320.6,97.9,317.2,94,313.4,90.4z M355.5,95c-2.5,5.9-5.5,11.5-9.1,16.8c-3.7,5.2-7.8,10.1-12.5,14.5c-6.9,6.6-10.6,9.9-11.3,9.9
	c-1.1,0-2.5-0.7-4.2-2.1s-2.7-2.6-2.7-3.7s1-1.4,2.9-1.5c2.1-0.1,5-1.4,8.6-4c4.1-3,7.9-6.4,11.5-10C344.6,108.6,350.3,102,355.5,95
	z"/>
<path class="st0" d="M396.8,85.6c1.7,0.1,3.3,0.7,4.6,1.7c1.7,1.1,2.6,2.2,2.8,3.2c0,0.6-0.3,1.1-0.7,1.5c-0.5,0.7-0.8,2.5-0.8,5.7
	v6.1c6.7,1.3,11.7,3.3,15.2,6c2.8,2.2,4.2,4.2,4.3,6.1c0.1,1.5-0.7,2.3-2.3,2.3c-1.5,0-4.4-2-8.7-6c-2.6-2.5-5.4-4.6-8.6-6.3v18.8
	c-0.1,2,0,4,0.3,6c0.2,1.3,0.3,2.7,0.3,4c-0.1,1.5-0.5,3-1.2,4.4c-0.6,1.2-1.2,1.9-1.8,2.1c-1.1-0.2-2-1.4-2.9-3.6
	c-0.5-1.5-0.8-3.1-0.8-4.7c0.1-1.5,0.2-3,0.5-4.5c0.3-2.2,0.5-3.7,0.6-4.6c0.4-5.9,0.7-10,0.7-12.2c0-5.1-0.2-10.9-0.7-17.3
	c-0.1-1.6-0.4-3.2-1.1-4.6c-0.4-0.9-0.7-1.9-0.9-2.9C395.8,86,396.1,85.6,396.8,85.6z"/>
</svg>
