<svg xmlns="http://www.w3.org/2000/svg" viewBox="0 0 57.054 20.904">
  <defs>
    <style>
      .cls-1 {
        opacity: 0.25;
      }
    </style>
  </defs>
  <g id="グループ化_381" data-name="グループ化 381" transform="translate(-888.271 -47.676)">
    <path id="パス_224" data-name="パス 224" class="cls-1" d="M19.206,13.5,21,4.71,3.928,2.43,2.563,1.514a1.583,1.583,0,0,0,.067-.3A1.315,1.315,0,1,0,1.315,2.546a1.838,1.838,0,0,0,.266-.05L3.2,3.561,5.858,14.08l.816-.033-.732,2.28c-.033,0-.05-.017-.083-.017a2.247,2.247,0,1,0,2.064,3.146h7.09a2.187,2.187,0,1,0-.117-1.365H8.039a2.194,2.194,0,0,0-.849-1.331l.882-2.813Z" transform="translate(888.271 47.776)"/>
    <path id="パス_330" data-name="パス 330" class="cls-1" d="M5.943-5.782a.757.757,0,0,1-.122.122.278.278,0,0,1-.172.045A.407.407,0,0,1,5.415-5.7a3.087,3.087,0,0,0-.308-.189,2.753,2.753,0,0,0-.448-.189,2.069,2.069,0,0,0-.648-.088,2.058,2.058,0,0,0-.889.182,1.712,1.712,0,0,0-.64.518,2.383,2.383,0,0,0-.388.819A4.088,4.088,0,0,0,1.96-3.563,4.017,4.017,0,0,0,2.1-2.454a2.4,2.4,0,0,0,.4.819,1.688,1.688,0,0,0,.63.5,1.945,1.945,0,0,0,.826.172,2.082,2.082,0,0,0,.728-.108A2.38,2.38,0,0,0,5.159-1.3a3.253,3.253,0,0,0,.315-.234.4.4,0,0,1,.259-.109.3.3,0,0,1,.259.126l.392.5A2.64,2.64,0,0,1,5.835-.5a3.13,3.13,0,0,1-.648.343,3.657,3.657,0,0,1-.718.2A4.57,4.57,0,0,1,3.71.1,3.148,3.148,0,0,1,2.468-.147a2.815,2.815,0,0,1-1-.714A3.417,3.417,0,0,1,.8-2.013a4.571,4.571,0,0,1-.245-1.55A4.668,4.668,0,0,1,.774-5.026a3.256,3.256,0,0,1,.651-1.158,3.009,3.009,0,0,1,1.061-.763,3.556,3.556,0,0,1,1.442-.277,3.436,3.436,0,0,1,1.344.245,3.283,3.283,0,0,1,1.036.693ZM14-3.157a10.416,10.416,0,0,0-1.414.13,3.89,3.89,0,0,0-.945.27,1.283,1.283,0,0,0-.525.4.858.858,0,0,0-.161.507,1.1,1.1,0,0,0,.087.459.854.854,0,0,0,.238.315.954.954,0,0,0,.353.178,1.654,1.654,0,0,0,.441.056,2.475,2.475,0,0,0,.578-.063,2.3,2.3,0,0,0,.493-.178,2.482,2.482,0,0,0,.441-.284A3.927,3.927,0,0,0,14-1.757ZM10-6.118a4.069,4.069,0,0,1,1.292-.847,4.064,4.064,0,0,1,1.529-.28,2.733,2.733,0,0,1,1.078.2,2.218,2.218,0,0,1,.791.556,2.368,2.368,0,0,1,.487.854,3.482,3.482,0,0,1,.164,1.1V0h-.609a.581.581,0,0,1-.308-.067.458.458,0,0,1-.168-.248L14.1-.938a5.887,5.887,0,0,1-.539.445,3.452,3.452,0,0,1-.556.329,2.842,2.842,0,0,1-.62.207,3.5,3.5,0,0,1-.728.07A2.612,2.612,0,0,1,10.875,0a1.769,1.769,0,0,1-.641-.354A1.671,1.671,0,0,1,9.8-.952a2.049,2.049,0,0,1-.158-.833,1.578,1.578,0,0,1,.227-.808,2.05,2.05,0,0,1,.742-.7,4.77,4.77,0,0,1,1.344-.5A10.047,10.047,0,0,1,14-4.018v-.518a1.808,1.808,0,0,0-.343-1.2,1.256,1.256,0,0,0-1.008-.4,2.2,2.2,0,0,0-.753.112,2.9,2.9,0,0,0-.525.249q-.221.137-.385.248a.6.6,0,0,1-.339.112.388.388,0,0,1-.241-.077.642.642,0,0,1-.165-.182Zm10.983.371a3.254,3.254,0,0,1,.826-1.1,1.766,1.766,0,0,1,1.162-.4,1.77,1.77,0,0,1,.438.053,1.127,1.127,0,0,1,.361.158l-.091,1.029a.222.222,0,0,1-.231.189,1.679,1.679,0,0,1-.294-.038,2.178,2.178,0,0,0-.42-.039,1.649,1.649,0,0,0-.581.095,1.357,1.357,0,0,0-.451.28,1.907,1.907,0,0,0-.354.455,4.555,4.555,0,0,0-.287.612V0H19.691V-7.112h.784a.433.433,0,0,1,.3.081.529.529,0,0,1,.115.284ZM29.568.112a1.757,1.757,0,0,1-1.326-.483,1.908,1.908,0,0,1-.465-1.379V-6.006H26.95a.285.285,0,0,1-.2-.073.284.284,0,0,1-.08-.22v-.553l1.155-.161.308-2.121a.33.33,0,0,1,.108-.186.313.313,0,0,1,.207-.067h.693V-7h2.016v.994H29.141v4.165a.852.852,0,0,0,.207.627.716.716,0,0,0,.528.206.965.965,0,0,0,.326-.049,1.3,1.3,0,0,0,.235-.109q.1-.06.168-.109a.227.227,0,0,1,.126-.049.167.167,0,0,1,.108.031.393.393,0,0,1,.08.1l.406.658a2.358,2.358,0,0,1-.8.476A2.785,2.785,0,0,1,29.568.112Z" transform="translate(914 67)"/>
  </g>
</svg>
