<svg xmlns="http://www.w3.org/2000/svg" viewBox="0 0 164.11 70">
  <g id="グループ化_110" data-name="グループ化 110" transform="translate(0 0)">
    <g id="グループ化_91" data-name="グループ化 91">
      <g id="グループ化_90" data-name="グループ化 90">
        <path id="パス_94" data-name="パス 94" d="M109.138,14.675a7.338,7.338,0,1,1,7.338-7.338A7.346,7.346,0,0,1,109.138,14.675Zm0-13.94a6.6,6.6,0,1,0,6.6,6.6A6.609,6.609,0,0,0,109.138.736Z" transform="translate(-82.598)"/>
        <g id="グループ化_88" data-name="グループ化 88" transform="translate(16.448 22.239)">
          <path id="パス_95" data-name="パス 95" d="M109.138,171.175a7.338,7.338,0,1,1,7.338-7.338A7.334,7.334,0,0,1,109.138,171.175Zm0-13.94a6.6,6.6,0,1,0,6.6,6.6A6.609,6.609,0,0,0,109.138,157.236Z" transform="translate(-99.046 -149.219)"/>
          <path id="パス_96" data-name="パス 96" d="M90.69,138.762h-.736V118.636H87.2V117.9h3.49Z" transform="translate(-87.2 -117.9)"/>
        </g>
        <g id="グループ化_89" data-name="グループ化 89" transform="translate(39.065 29.52)">
          <path id="パス_97" data-name="パス 97" d="M214.438,171.175a7.338,7.338,0,1,1,7.338-7.338A7.346,7.346,0,0,1,214.438,171.175Zm0-13.94a6.6,6.6,0,1,0,6.6,6.6A6.609,6.609,0,0,0,214.438,157.236Z" transform="translate(-207.1 -156.5)"/>
          <rect id="長方形_434" data-name="長方形 434" width="0.736" height="12.487" transform="translate(13.959 1.094)"/>
        </g>
        <path id="パス_98" data-name="パス 98" d="M109.138,14.675a7.338,7.338,0,1,1,7.338-7.338A7.346,7.346,0,0,1,109.138,14.675Zm0-13.94a6.6,6.6,0,1,0,6.6,6.6A6.609,6.609,0,0,0,109.138.736Z" transform="translate(-82.598)"/>
        <path id="パス_99" data-name="パス 99" d="M12.9,10.865a6.6,6.6,0,1,1,0-7.092h.849a7.347,7.347,0,1,0,0,7.111H12.9Z"/>
        <path id="パス_100" data-name="パス 100" d="M109.138,307.975a7.338,7.338,0,1,1,7.338-7.338A7.346,7.346,0,0,1,109.138,307.975Zm0-13.94a6.6,6.6,0,1,0,6.6,6.6A6.609,6.609,0,0,0,109.138,294.036Z" transform="translate(-82.598 -237.975)"/>
        <path id="パス_101" data-name="パス 101" d="M109.138,307.975a7.338,7.338,0,1,1,7.338-7.338A7.346,7.346,0,0,1,109.138,307.975Zm0-13.94a6.6,6.6,0,1,0,6.6,6.6A6.609,6.609,0,0,0,109.138,294.036Z" transform="translate(-82.598 -237.975)"/>
        <path id="パス_102" data-name="パス 102" d="M12.9,304.084a6.6,6.6,0,1,1,0-7.092h.849a7.357,7.357,0,1,0,0,7.092Z" transform="translate(0 -237.894)"/>
      </g>
    </g>
    <g id="グループ化_93" data-name="グループ化 93" transform="translate(64.12 33.085)">
      <g id="グループ化_92" data-name="グループ化 92">
        <path id="パス_103" data-name="パス 103" d="M342.131,180.531c-.245,0-.245.038-.245.415v3c0,1.019.038,1.188.547,1.226l.509.038a.262.262,0,0,1-.019.358c-.641-.019-1.056-.038-1.547-.038-.509,0-.943.019-1.358.038a.244.244,0,0,1-.019-.358l.321-.038c.528-.075.547-.208.547-1.226v-3c0-.377,0-.415-.283-.415h-.49a.2.2,0,0,1-.038-.264l.6-.3a.327.327,0,0,0,.207-.283,6.308,6.308,0,0,1,.434-2.49,2.783,2.783,0,0,1,2.546-1.792c.755,0,1.4.34,1.4.849a.541.541,0,0,1-.547.509.4.4,0,0,1-.34-.17,1.594,1.594,0,0,0-1.132-.622,1.08,1.08,0,0,0-1,.773,7.808,7.808,0,0,0-.3,2.4v.415c0,.377,0,.4.245.4h1.622a.456.456,0,0,1-.094.6h-1.566Z" transform="translate(-339.93 -175.4)"/>
        <path id="パス_104" data-name="パス 104" d="M379.2,201.324a2.907,2.907,0,0,1-3,3.056,2.808,2.808,0,0,1-2.9-2.924,2.966,2.966,0,0,1,3.018-3.056A2.826,2.826,0,0,1,379.2,201.324Zm-3.037-2.509c-.943,0-1.622.887-1.622,2.452,0,1.283.585,2.679,1.83,2.679s1.622-1.3,1.622-2.4C378,200.343,377.506,198.815,376.167,198.815Z" transform="translate(-367.005 -194.062)"/>
        <path id="パス_105" data-name="パス 105" d="M418.838,199.224c0-.547,0-.622-.377-.887l-.132-.075a.2.2,0,0,1,.019-.264,12.406,12.406,0,0,0,1.434-.7c.075.019.113.038.113.094v.83a.18.18,0,0,0,.038.132,2.821,2.821,0,0,1,1.566-.849.588.588,0,0,1,.641.566.63.63,0,0,1-.6.66.48.48,0,0,1-.3-.094,1.1,1.1,0,0,0-.622-.226.64.64,0,0,0-.509.283,2.066,2.066,0,0,0-.189,1.094v1.924c0,1.019.038,1.188.566,1.226l.509.038a.262.262,0,0,1-.019.358c-.66-.019-1.075-.038-1.566-.038-.509,0-.943.019-1.3.038a.262.262,0,0,1-.038-.358l.264-.038c.528-.075.547-.207.547-1.226v-2.49Z" transform="translate(-403.282 -193.169)"/>
      </g>
    </g>
    <path id="パス_106" data-name="パス 106" d="M552.076,129.116a.289.289,0,0,0-.189-.132.864.864,0,0,0-.321-.019,1.854,1.854,0,0,0-.415.094,2.412,2.412,0,0,0-.453.207,4.622,4.622,0,0,0-.547.34c-.151.094-.339.226-.528.358s-.415.283-.66.453-.566.4-.943.66c-.377.283-.811.6-1.32,1s-1.132.905-1.83,1.509c-.7.622-1.509,1.358-2.4,2.226a37.853,37.853,0,0,0-2.886,3.226c-.321.4-.622.792-.887,1.151s-.528.736-.773,1.075l-.736,1.075c-.245.358-.472.736-.736,1.151-.264.4-.509.83-.773,1.3s-.547.981-.83,1.528c-.226.453-.471.924-.717,1.434s-.509,1.075-.754,1.679c.075-.264.151-.528.226-.811.075-.264.151-.547.226-.811v.019c.132-.434.264-.887.415-1.377s.321-1.019.509-1.6.4-1.226.641-1.924.509-1.471.811-2.339.641-1.83,1.037-2.867c.4-1.056.83-2.207,1.32-3.49.208-.528.4-1.019.566-1.509.189-.49.377-.962.547-1.415l.17-.453c.057-.151.226-.585.245-.66.019-.057.264-.679.3-.736-.038-.019-.321-.245-.453-.34,0,0-.3.264-.321.264a2.578,2.578,0,0,1-.264.189c-.075.057-.339.245-.339.245-.7.49-1.358.962-2,1.4s-1.207.811-1.735,1.132c-.528.34-1.037.622-1.528.887s-.717.358-.717.358a4.861,4.861,0,0,1-.905.34h0a1.479,1.479,0,0,1-.264.038c-.132,0-.189-.094-.208-.245v-.113a1.829,1.829,0,0,1,.057-.434,5.478,5.478,0,0,1,.207-.717c.094-.226.17-.415.245-.585a3.717,3.717,0,0,1,.226-.472,2.729,2.729,0,0,1,.189-.34c.094-.17.189-.3.245-.415a4.806,4.806,0,0,0,.509-1.151.5.5,0,0,0-.132-.509.633.633,0,0,0-.622,0,4.267,4.267,0,0,0-.868.453l-.057.019c-.094.057-.226.151-.4.264s-.415.264-.7.434c-.34.207-.754.434-1.245.7s-1.094.566-1.811.868c-.717.321-1.547.66-2.509,1.019a33.69,33.69,0,0,1-3.32,1.019c-.49.151-1.019.264-1.566.4a7.762,7.762,0,0,0,.773-.6,8.575,8.575,0,0,0,.717-.717,6.456,6.456,0,0,0,.453-.622,3.99,3.99,0,0,0,.34-.7v.019a1.955,1.955,0,0,0,.132-.736,1.829,1.829,0,0,0-.057-.434,2.672,2.672,0,0,0-.132-.415,2.642,2.642,0,0,0-.189-.3c-.075-.094-.3-.358-.339-.415a.872.872,0,0,0-.132-.132.783.783,0,0,0-.245-.132,1.407,1.407,0,0,0-.66,0c-.113.038-.208.075-.3.113a1.727,1.727,0,0,0-.264.132c-.094.057-.189.094-.264.151a8.091,8.091,0,0,0-.887.6c-.264.208-.509.4-.755.6v-.038l-.679.566c-.226.189-.434.377-.622.547-.208.189-.415.358-.6.528l-.566.509a4.258,4.258,0,0,1-.453.4c-.151.132-.283.245-.415.377-.189.17-.358.321-.528.453-.038.038-.321.264-.358.3l.17-.528c.094-.283.189-.566.3-.849s.226-.585.34-.905.226-.641.358-.981.264-.717.434-1.113c.094-.057,1.188-1.245,1.339-1.415.151-.189.339-.415.547-.66.207-.264.453-.585.736-.981.283-.377.622-.868,1.019-1.452s.849-1.3,1.358-2.169c.245-.434.528-.905.811-1.415.283-.528.566-1.075.83-1.641.132-.3.283-.622.434-.962s.3-.679.434-1.037.264-.736.4-1.132a11.96,11.96,0,0,0,.339-1.245c.038-.189.075-.377.113-.585.019-.075.019-.17.038-.3h0v-.321a1.28,1.28,0,0,0-.038-.377,1.5,1.5,0,0,0-.113-.415h0a.47.47,0,0,0-.075-.132.99.99,0,0,0-.189-.207.7.7,0,0,0-.264-.132.775.775,0,0,0-.641.094,3,3,0,0,0-.906.962h0c-.094.132-.189.283-.283.434-.113.189-.226.358-.34.547s-.226.377-.34.585a.143.143,0,0,0-.038.075c-.019.019-.019.057-.038.075v-.019c-.453.83-.981,1.849-1.547,3.056-.585,1.207-1.245,2.66-1.981,4.338-.283.641-.547,1.226-.773,1.792-.226.547-.453,1.075-.641,1.547-.208.49-.377.924-.547,1.339-.132.321-.245.641-.358.943,0,0-1.7,2.132-2.32,2.754l-.3.3a8.991,8.991,0,0,1-4.093,2.49,4.408,4.408,0,0,1-1.566.132,9.873,9.873,0,0,1-4.716-1.811v.019c-.321-.189-.792-.509-.792-.509l-.585.019c-.245.189-.7.528-.7.528-.283.189-.547.358-.792.528-.264.17-.509.34-.755.49l-.736.453a7.369,7.369,0,0,1-.66.34c-.038.019-.189.075-.226.094-.094.038-.132.019-.132,0,.019-.019.34-.887.528-1.188s.358-.585.509-.811a5.49,5.49,0,0,1,.49-.622c.17-.189.321-.377.453-.528l.057-.057c.3-.3.566-.566.773-.755.226-.208.415-.358.566-.49.17-.132.3-.226.377-.3a3.467,3.467,0,0,1,.34-.226.868.868,0,0,0,.245-.415.513.513,0,0,0-.094-.415.487.487,0,0,0-.4-.17.655.655,0,0,0-.472.189l-.151.151a2.674,2.674,0,0,0-.434.264l-.057.019c-.094.057-.226.151-.4.264s-.415.264-.7.434c-.34.207-.755.434-1.245.7s-1.094.566-1.811.868c-.717.321-1.547.66-2.509,1.019a33.68,33.68,0,0,1-3.32,1.019c-.49.151-1.019.264-1.566.4a7.772,7.772,0,0,0,.773-.6,8.573,8.573,0,0,0,.717-.717,6.476,6.476,0,0,0,.453-.622,3.988,3.988,0,0,0,.34-.7v.019a1.954,1.954,0,0,0,.132-.736,1.829,1.829,0,0,0-.057-.434,2.675,2.675,0,0,0-.132-.415,2.642,2.642,0,0,0-.189-.3c-.075-.094-.3-.358-.34-.415a.869.869,0,0,0-.132-.132.783.783,0,0,0-.245-.132,1.407,1.407,0,0,0-.66,0c-.113.038-.207.075-.3.113a1.725,1.725,0,0,0-.264.132c-.094.057-.189.094-.264.151a8.086,8.086,0,0,0-.887.6c-.264.207-.509.4-.773.6v-.075l-.679.566c-.226.189-.434.377-.622.547-.207.189-.415.358-.6.528l-.566.509a4.255,4.255,0,0,1-.453.4c-.151.132-.283.245-.415.377-.189.17-.358.321-.528.453-.038.038-.321.264-.358.3l.17-.528c.094-.283.189-.566.3-.849s.226-.585.34-.905.226-.641.358-.981c.113-.321.245-.679.4-1.037a.4.4,0,0,0,.075-.113c.075-.057,1.151-1.207,1.3-1.377.151-.189.34-.415.547-.66.207-.264.453-.585.736-.981.283-.377.622-.868,1.019-1.452s.849-1.3,1.358-2.169c.245-.434.528-.905.811-1.415.283-.528.566-1.075.83-1.641.132-.3.283-.622.434-.962s.3-.679.434-1.037.264-.736.4-1.132a11.991,11.991,0,0,0,.34-1.245c.038-.189.075-.377.113-.585.019-.075.019-.17.038-.3h0c0-.075.019-.17.019-.264v-.057a1.283,1.283,0,0,0-.038-.377,1.5,1.5,0,0,0-.113-.415h0a.472.472,0,0,0-.075-.132.99.99,0,0,0-.189-.207.7.7,0,0,0-.264-.132.775.775,0,0,0-.641.094,3,3,0,0,0-.905.962h0c-.094.132-.189.283-.283.434-.113.189-.226.358-.34.547s-.226.377-.34.585a.143.143,0,0,0-.038.075c-.019.019-.019.057-.038.075v-.019c-.453.83-.981,1.849-1.547,3.056-.585,1.207-1.245,2.66-1.981,4.338-.283.641-.547,1.226-.773,1.792-.226.547-.453,1.075-.641,1.547-.208.49-.377.924-.547,1.339-.113.3-.283.7-.4.981a36.9,36.9,0,0,1-2.961,2.4l-.717.472a2.383,2.383,0,0,0-.622.6.53.53,0,0,0-.057.566.188.188,0,0,0,.094.075c.547.34,1.773-.566,1.773-.566a15.5,15.5,0,0,0,1.792-1.547c-.019.075-.189.434-.207.509-.189.585-.4,1.188-.585,1.83-.019.057-.038.132-.057.189s-.113.434-.151.566a.5.5,0,0,1-.057.189,1.5,1.5,0,0,0-.075.34c-.057.264-.057.585.132.7h0c.245.132.622-.094.868-.283a.331.331,0,0,0,.094-.075h0a.719.719,0,0,0,.113-.094h0c.207-.17.434-.358.66-.566.264-.245.547-.509.849-.773.113-.094.226-.207.321-.3s.207-.208.339-.321c.038-.019.057-.057.075-.075l.075-.075.019-.019c.189-.17.4-.358.6-.566.207-.189.434-.4.66-.585l.207-.17c.245-.207.49-.415.754-.622a7.565,7.565,0,0,1,.773-.585,4.391,4.391,0,0,1,.49-.321,5.053,5.053,0,0,1,.453-.226c.207-.094.528-.17.679-.057a.72.72,0,0,1,.17.17c.038.038.057.075.094.094a1.413,1.413,0,0,1,.189.377,1.268,1.268,0,0,1,.075.453,1.69,1.69,0,0,1-.038.34,1.96,1.96,0,0,1-.283.641,4.417,4.417,0,0,1-.453.585,9.935,9.935,0,0,1-1.245,1.094,10.5,10.5,0,0,1-1.358.83c-.113.057-.641.3-.736.358l-.132.868c.038-.019,2.66-.547,3.452-.736s1.528-.377,2.207-.585h-.019a34.835,34.835,0,0,0,3.414-1.113c.943-.377,1.735-.7,2.358-1,.3-.132.566-.264.811-.377a1.651,1.651,0,0,0-.151.189,6.664,6.664,0,0,0-.453.66q-.2.311-.4.679h0s-.208.4-.34.717c-.075.189-.132.377-.189.566h0s-.019.094-.038.151h0a.708.708,0,0,0-.019.189.718.718,0,0,0,.075.415c.113.245.453.264.585.245h.038c.057,0,.113-.019.17-.019a.069.069,0,0,0,.057-.019h0a3.891,3.891,0,0,0,.773-.3l.019-.019c.113-.057.245-.113.34-.17.4-.208.811-.434,1.264-.7s.981-.585,1.6-.981c0,0,.811.472.905.528.189.113.868.434,1.037.528a10.836,10.836,0,0,0,3.716.924h.472a9.575,9.575,0,0,0,7.168-4.074v.019l-.113.34c-.189.585-.4,1.188-.585,1.83-.019.057-.038.132-.057.189s-.113.434-.151.566a1.185,1.185,0,0,0-.057.189,1.505,1.505,0,0,0-.075.34c-.057.264-.057.585.132.7h0c.245.132.622-.094.868-.283a.33.33,0,0,0,.094-.075h0a.713.713,0,0,0,.113-.094h0c.226-.17.434-.358.66-.566.264-.245.547-.509.849-.773.113-.094.226-.208.321-.3s.208-.207.339-.321c.038-.019.057-.057.075-.075l.076-.075.019-.019c.189-.17.4-.358.6-.566.208-.189.434-.4.66-.585l.207-.17c.245-.207.49-.415.755-.622a7.573,7.573,0,0,1,.773-.585,4.4,4.4,0,0,1,.49-.321,5.054,5.054,0,0,1,.453-.226c.207-.094.528-.17.679-.057a.721.721,0,0,1,.17.17c.038.038.057.075.094.094a1.414,1.414,0,0,1,.189.377,1.267,1.267,0,0,1,.075.453,1.688,1.688,0,0,1-.038.34,1.959,1.959,0,0,1-.283.641,4.41,4.41,0,0,1-.453.585,9.935,9.935,0,0,1-1.245,1.094,10.5,10.5,0,0,1-1.358.83c-.113.057-.641.3-.736.358l-.132.868c.038-.019,2.66-.547,3.452-.736s1.528-.377,2.207-.585h-.019A34.824,34.824,0,0,0,526.554,133c.943-.377,1.735-.7,2.358-1q.906-.424,1.528-.736c.358-.207.641-.358.868-.472,0,.019-.019.038-.038.057,0,.019-.019.019-.019.038a.058.058,0,0,1-.019.038c-.075.17-.151.358-.245.566a2.2,2.2,0,0,1-.094.208h0s-.057.132-.132.358a3.307,3.307,0,0,0-.075,2.264.893.893,0,0,0,.207.245l.113.094.264.132a2.468,2.468,0,0,0,1.49-.245s.736-.321,1.113-.528c.434-.226.868-.49,1.339-.792s.962-.622,1.49-.981q.509-.34,1.075-.736c.358-.264.736-.528,1.113-.811-.057.132-.226.622-.264.736-.151.4-.3.792-.453,1.207-.151.4-.3.83-.453,1.245-.528,1.415-.981,2.679-1.377,3.791s-.755,2.113-1.075,2.98c-.321.887-.585,1.66-.83,2.32-.245.679-.453,1.283-.641,1.811-.057.189-.113.358-.17.528s-.113.34-.17.49c-.189.566-.377,1.113-.547,1.641s-.339,1.094-.528,1.7-.377,1.3-.585,2.094a15.7,15.7,0,0,0-.4,2.132v.34a.368.368,0,0,0,.019.151c.019.075.057.226.075.226a.5.5,0,0,0,.34.283.522.522,0,0,0,.17.019,1.065,1.065,0,0,1,.132-.019.629.629,0,0,0,.4-.321,3.343,3.343,0,0,0,.226-.585c.132-.453.283-.887.434-1.32.339-1,.7-1.943,1.075-2.848.585-1.377,1.17-2.66,1.792-3.829a36.414,36.414,0,0,1,1.905-3.226c.641-.981,1.3-1.867,1.924-2.66h-.019c.585-.717,1.169-1.377,1.717-1.981s1.094-1.132,1.6-1.622,1-.924,1.453-1.32.886-.755,1.283-1.075c.792-.622,1.471-1.132,2.037-1.509s1.037-.7,1.415-.924h-.019c.245-.151.434-.264.6-.358s.3-.17.434-.245c.113-.057.208-.113.283-.151a1.739,1.739,0,0,1,.189-.094c.057-.038.264-.151.264-.151a2.58,2.58,0,0,0,.679-.566C552.094,129.418,552.132,129.248,552.076,129.116Zm-35.349-2.094c.679-1.679,1.32-3.263,1.943-4.753.622-1.471,1.245-2.867,1.849-4.169v.019c.3-.641.6-1.245.924-1.83a15.994,15.994,0,0,1,.981-1.66l-.019.019c.094-.132.17-.245.264-.358s.189-.207.283-.3a.569.569,0,0,1,.17-.113c.057,0,.075.019.113.075a.486.486,0,0,1,.094.264,2.051,2.051,0,0,1,.019.34,5.9,5.9,0,0,1-.113.773,10.233,10.233,0,0,1-.358,1.358c-.151.434-.321.849-.471,1.264-.17.434-.34.811-.509,1.188-.17.358-.34.7-.49,1.037-.34.641-.66,1.245-1,1.811s-.641,1.075-.943,1.528c-.566.868-1.094,1.584-1.547,2.188-.472.6-.849,1.075-1.132,1.4a1.083,1.083,0,0,1-.132.151C516.651,127.23,516.727,127.06,516.727,127.022Zm-32.35,0c.679-1.679,1.32-3.263,1.943-4.753.622-1.471,1.245-2.867,1.849-4.169v.019c.3-.641.6-1.245.924-1.83a16.01,16.01,0,0,1,.981-1.66l-.019.019c.094-.132.17-.245.264-.358s.189-.207.283-.3a.57.57,0,0,1,.17-.113c.057,0,.075.019.113.075a.485.485,0,0,1,.094.264,2.051,2.051,0,0,1,.019.34,5.9,5.9,0,0,1-.113.773,10.233,10.233,0,0,1-.358,1.358c-.151.434-.321.849-.472,1.264-.17.434-.34.811-.509,1.188-.17.358-.34.7-.49,1.037-.34.641-.66,1.245-1,1.811s-.641,1.075-.943,1.528c-.566.868-1.094,1.584-1.547,2.188-.472.6-.849,1.075-1.132,1.4a1.079,1.079,0,0,1-.132.151A1.581,1.581,0,0,1,484.377,127.022Z" transform="translate(-387.988 -91.862)"/>
  </g>
</svg>
