<svg xmlns="http://www.w3.org/2000/svg" viewBox="0 0 84 158.73">
  <defs>
    <style>
      .cls-1 {
        fill: #1e1c1c;
      }
    </style>
  </defs>
  <g id="グループ化_380" data-name="グループ化 380" transform="translate(-35 -62)">
    <g id="グループ化_349" data-name="グループ化 349" transform="translate(35 62)">
      <g id="グループ化_352" data-name="グループ化 352" transform="translate(0 0)">
        <g id="グループ化_351" data-name="グループ化 351" transform="translate(0 0)">
          <path id="パス_282" data-name="パス 282" class="cls-1" d="M148.613,23.4A11.7,11.7,0,1,1,160.3,11.713,11.729,11.729,0,0,1,148.613,23.4Zm0-22.227a10.535,10.535,0,1,0,10.514,10.535A10.543,10.543,0,0,0,148.613,1.178Z" transform="translate(-107.039 0)"/>
          <g id="グループ化_349-2" data-name="グループ化 349" transform="translate(25.455 34.049)">
            <path id="パス_283" data-name="パス 283" class="cls-1" d="M148.613,232.627A11.713,11.713,0,1,1,160.3,220.913,11.729,11.729,0,0,1,148.613,232.627Zm0-22.227a10.535,10.535,0,1,0,10.514,10.535A10.543,10.543,0,0,0,148.613,210.4Z" transform="translate(-132.494 -197.618)"/>
            <path id="パス_284" data-name="パス 284" class="cls-1" d="M122.284,189.364h-1.178V157.256H116.7V156.1h5.584Z" transform="translate(-116.7 -156.1)"/>
          </g>
          <g id="グループ化_350" data-name="グループ化 350" transform="translate(60.573 45.632)">
            <path id="パス_285" data-name="パス 285" class="cls-1" d="M289.391,232.627A11.713,11.713,0,1,1,301.1,220.913,11.711,11.711,0,0,1,289.391,232.627Zm0-22.227a10.535,10.535,0,1,0,10.535,10.535A10.538,10.538,0,0,0,289.391,210.4Z" transform="translate(-277.7 -209.2)"/>
            <rect id="長方形_730" data-name="長方形 730" class="cls-1" width="1.178" height="19.915" transform="translate(22.249 1.767)"/>
          </g>
          <path id="パス_286" data-name="パス 286" class="cls-1" d="M20.569,17.341a10.525,10.525,0,1,1,0-11.277h1.374a11.713,11.713,0,1,0,0,11.3H20.569Z" transform="translate(0 0)"/>
          <path id="パス_287" data-name="パス 287" class="cls-1" d="M148.613,415.127A11.713,11.713,0,1,1,160.3,403.413,11.729,11.729,0,0,1,148.613,415.127Zm0-22.227a10.535,10.535,0,1,0,10.514,10.535A10.543,10.543,0,0,0,148.613,392.9Z" transform="translate(-107.039 -306.26)"/>
          <path id="パス_288" data-name="パス 288" class="cls-1" d="M148.613,415.127A11.713,11.713,0,1,1,160.3,403.413,11.729,11.729,0,0,1,148.613,415.127Zm0-22.227a10.535,10.535,0,1,0,10.514,10.535A10.543,10.543,0,0,0,148.613,392.9Z" transform="translate(-107.039 -306.26)"/>
          <path id="パス_289" data-name="パス 289" class="cls-1" d="M20.569,409.063a10.535,10.535,0,1,1,0-11.3h1.374a11.724,11.724,0,1,0,0,11.321H20.569Z" transform="translate(0 -306.26)"/>
        </g>
      </g>
      <g id="グループ化_353" data-name="グループ化 353" transform="translate(31.042 121.997)">
        <path id="パス_290" data-name="パス 290" class="cls-1" d="M147.325,577.735c-.305,0-.327.044-.327.436v3.4c0,1.047.131,2.007,1.331,2.007a1.568,1.568,0,0,0,.48-.087c.153-.044.393-.262.458-.262.153,0,.218.2.174.305a2.485,2.485,0,0,1-1.919.829c-1.571,0-1.9-.872-1.9-1.963v-4.166c0-.5-.022-.524-.371-.524h-.5a.269.269,0,0,1-.044-.371,3.124,3.124,0,0,0,1.156-.567,4.066,4.066,0,0,0,.763-1.069.347.347,0,0,1,.393.087v.807c0,.327.022.349.327.349h2.029a.594.594,0,0,1,.022.763h-2.072Z" transform="translate(-144.143 -572.107)"/>
        <path id="パス_291" data-name="パス 291" class="cls-1" d="M182.5,566.105c0-.7,0-.807-.5-1.134l-.153-.109a.264.264,0,0,1,.022-.327,12.2,12.2,0,0,0,1.876-.894.173.173,0,0,1,.174.109c-.044.633-.065,1.505-.065,2.247v3.272c0,1.309.044,1.483.7,1.57l.393.044a.318.318,0,0,1-.044.458c-.545-.044-1.069-.044-1.7-.044-.654,0-1.2.022-1.7.044-.131-.044-.153-.371-.044-.458l.371-.044c.676-.087.7-.262.7-1.57v-3.163Zm1.483-5.889a.938.938,0,0,1-1.876.044.945.945,0,0,1,.982-.96A.864.864,0,0,1,183.98,560.216Z" transform="translate(-172.859 -559.3)"/>
        <path id="パス_292" data-name="パス 292" class="cls-1" d="M213.164,581.665c0-.7,0-.807-.5-1.134l-.153-.109a.264.264,0,0,1,.022-.327,9.314,9.314,0,0,0,1.81-.894.233.233,0,0,1,.2.131,7.593,7.593,0,0,0-.044.851.183.183,0,0,0,.2.2,4.922,4.922,0,0,1,2.552-.938,2.03,2.03,0,0,1,2.138,2.247v3.119c0,1.309.044,1.483.7,1.57l.393.044a.318.318,0,0,1-.044.458c-.545-.044-1.069-.044-1.7-.044-.654,0-1.2.022-1.68.044-.131-.044-.153-.371-.044-.458l.349-.044c.676-.109.7-.262.7-1.57v-2.7a1.581,1.581,0,0,0-1.7-1.81,1.977,1.977,0,0,0-1.549.633,1.514,1.514,0,0,0-.262,1.091v2.77c0,1.309.044,1.461.7,1.57l.327.044a.318.318,0,0,1-.044.458c-.5-.044-1.025-.044-1.658-.044-.654,0-1.2.022-1.7.044a.316.316,0,0,1-.044-.458l.371-.044c.676-.087.7-.262.7-1.57v-3.119Z" transform="translate(-196.829 -574.859)"/>
        <path id="パス_293" data-name="パス 293" class="cls-1" d="M262,592.272a.675.675,0,0,1,.72-.72h.349a.7.7,0,0,0,.611-.327,10.632,10.632,0,0,0,1.047-2.029,3.241,3.241,0,0,0,.174-.785,3.382,3.382,0,0,0-.305-1.265l-1.418-3.883c-.305-.851-.436-1.287-1.069-1.418l-.458-.087a.338.338,0,0,1,.044-.458c.589.044,1.134.044,1.723.044.48,0,1-.022,1.57-.044.153.044.153.371.044.458l-.458.087c-.262.044-.393.109-.393.24a13.422,13.422,0,0,0,.523,1.7l.589,1.68a10.856,10.856,0,0,0,.523,1.287,9.546,9.546,0,0,0,.676-1.352l.611-1.44a8.732,8.732,0,0,0,.633-1.81c0-.131-.109-.262-.436-.305l-.567-.087a.3.3,0,0,1,.044-.458c.589.044,1.134.044,1.592.044s.872-.022,1.374-.044c.153.065.153.349.044.458l-.305.044c-.611.109-.938.633-1.549,1.919l-1.025,2.094c-.611,1.221-2.094,4.384-2.988,6.369a1.188,1.188,0,0,1-1.156.851A.7.7,0,0,1,262,592.272Z" transform="translate(-235.565 -576.501)"/>
        <path id="パス_294" data-name="パス 294" class="cls-1" d="M144.4,657.55c0-.72,0-.807-.5-1.134l-.153-.109c-.065-.065-.065-.284.022-.327a12.2,12.2,0,0,0,1.876-.894.173.173,0,0,1,.174.109c-.044.633-.065,1.505-.065,2.247v4.406a7.538,7.538,0,0,1-.393,2.836,6.38,6.38,0,0,1-2.77,2.967.316.316,0,0,1-.262-.414,3.308,3.308,0,0,0,1.069-.829c.654-.763.982-2.072.982-4.3V657.55Zm1.505-5.737a.938.938,0,0,1-1.876.044.933.933,0,0,1,.982-.96A.853.853,0,0,1,145.91,651.813Z" transform="translate(-142.314 -630.917)"/>
        <path id="パス_295" data-name="パス 295" class="cls-1" d="M176.423,674.148c-.48,0-.48.044-.48.5,0,1.832,1.069,3.4,3.01,3.4a1.941,1.941,0,0,0,1.68-.894.244.244,0,0,1,.327.218,3.175,3.175,0,0,1-2.857,1.68,3.244,3.244,0,0,1-2.639-1.2,3.846,3.846,0,0,1-.763-2.356c0-2.247,1.461-4.1,3.665-4.1a2.367,2.367,0,0,1,2.574,2.159,1.62,1.62,0,0,1-.065.48c-.044.109-.305.131-1.069.131h-3.381Zm1.134-.545c1.352,0,1.745-.065,1.9-.174.044-.044.109-.109.109-.349,0-.5-.349-1.156-1.4-1.156a2.152,2.152,0,0,0-2.029,1.592c0,.044,0,.087.131.087h1.287Z" transform="translate(-167.636 -646.948)"/>
        <path id="パス_296" data-name="パス 296" class="cls-1" d="M215.829,674.032c-.414-1.025-.633-1.2-1.091-1.309l-.284-.065c-.087-.087-.109-.371.044-.436.567.044,1.069.044,1.614.044.567,0,1.091-.022,1.592-.044a.293.293,0,0,1,.044.436l-.414.065c-.262.044-.393.153-.393.262a3.594,3.594,0,0,0,.284.938l1.134,2.77c.153.414.327.742.327.785a5.449,5.449,0,0,0,.414-.872l.894-2.2c.24-.589.262-.829.153-1.047a1.006,1.006,0,0,0-.829-.633l-.284-.065a.292.292,0,0,1,.044-.436c.458.044,1.047.044,1.505.044.567,0,1.112-.022,1.723-.044.153.044.153.349.044.436l-.393.065c-.72.153-.7.2-.48.829.2.611,1.178,2.9,1.374,3.4.109.262.174.48.24.5a2.825,2.825,0,0,0,.262-.5c.24-.523.96-2.465,1.243-3.228a2.278,2.278,0,0,0,.174-.785c0-.109-.109-.2-.327-.24l-.458-.065a.277.277,0,0,1,.022-.436c.523.044.982.044,1.44.044.349,0,.785-.022,1.178-.044a.3.3,0,0,1,.065.436l-.371.065c-.436.087-.589.349-.982,1.156-.48,1.025-1.352,3.206-1.7,4.123a16.533,16.533,0,0,0-.611,1.658.44.44,0,0,1-.24.065.3.3,0,0,1-.2-.065c-.109-.327-.436-1.265-.742-2.007l-.872-2.094a10.111,10.111,0,0,0-.414-.938,9.349,9.349,0,0,0-.393.894l-.938,2.268c-.327.785-.589,1.44-.72,1.854a.326.326,0,0,1-.218.065.421.421,0,0,1-.218-.065c-.109-.371-.393-1.134-.545-1.505Z" transform="translate(-198.666 -647.574)"/>
        <path id="パス_297" data-name="パス 297" class="cls-1" d="M281.323,674.148c-.48,0-.48.044-.48.5,0,1.832,1.069,3.4,3.01,3.4a1.941,1.941,0,0,0,1.68-.894.243.243,0,0,1,.327.218,3.175,3.175,0,0,1-2.857,1.68,3.244,3.244,0,0,1-2.639-1.2,3.846,3.846,0,0,1-.763-2.356c0-2.247,1.461-4.1,3.664-4.1a2.367,2.367,0,0,1,2.574,2.159,1.62,1.62,0,0,1-.065.48c-.044.109-.305.131-1.069.131h-3.381Zm1.134-.545c1.352,0,1.745-.065,1.9-.174.044-.044.109-.109.109-.349,0-.5-.349-1.156-1.4-1.156a2.152,2.152,0,0,0-2.029,1.592c0,.044,0,.087.131.087h1.287Z" transform="translate(-249.654 -646.948)"/>
        <path id="パス_298" data-name="パス 298" class="cls-1" d="M324.714,656.672c0,1.309.044,1.483.7,1.592l.436.044a.318.318,0,0,1-.044.458c-.589-.044-1.134-.044-1.767-.044-.654,0-1.2.022-1.745.044-.131-.044-.153-.371-.044-.458l.414-.044c.676-.087.7-.262.7-1.592v-8.223c0-1.069-.022-1.178-.567-1.505l-.174-.109c-.087-.044-.087-.305,0-.371a13.142,13.142,0,0,0,1.963-.763.194.194,0,0,1,.174.109c-.022.545-.044,1.461-.044,2.247Z" transform="translate(-282.946 -626.854)"/>
        <path id="パス_299" data-name="パス 299" class="cls-1" d="M358.493,671.549a4.465,4.465,0,0,1,.284,1.461.293.293,0,0,1-.436.044,1.759,1.759,0,0,0-1.592-1.331,1.065,1.065,0,0,0-1.156,1.112c0,.742.763,1.156,1.4,1.505.96.545,1.854,1.156,1.854,2.465,0,1.374-1.265,2.072-2.618,2.072a2.984,2.984,0,0,1-1.941-.545,5.086,5.086,0,0,1-.218-1.832.3.3,0,0,1,.414-.022c.305,1,.894,1.876,1.919,1.876a1.115,1.115,0,0,0,1.221-1.156c0-.829-.72-1.287-1.4-1.68-1.047-.611-1.789-1.243-1.789-2.247,0-1.331,1.091-2.072,2.465-2.072A3.525,3.525,0,0,1,358.493,671.549Z" transform="translate(-307.869 -646.792)"/>
      </g>
    </g>
  </g>
</svg>
