<svg id="グループ化_109" data-name="グループ化 109" xmlns="http://www.w3.org/2000/svg" viewBox="0 0 138.227 70">
  <g id="グループ化_99" data-name="グループ化 99">
    <g id="グループ化_98" data-name="グループ化 98">
      <g id="グループ化_97" data-name="グループ化 97">
        <path id="パス_107" data-name="パス 107" d="M109.138,14.675a7.338,7.338,0,1,1,7.338-7.338A7.346,7.346,0,0,1,109.138,14.675Zm0-13.94a6.6,6.6,0,1,0,6.6,6.6A6.609,6.609,0,0,0,109.138.736Z" transform="translate(-82.598)"/>
        <g id="グループ化_95" data-name="グループ化 95" transform="translate(16.448 22.239)">
          <path id="パス_108" data-name="パス 108" d="M109.138,171.175a7.338,7.338,0,1,1,7.338-7.338A7.346,7.346,0,0,1,109.138,171.175Zm0-13.94a6.6,6.6,0,1,0,6.6,6.6A6.609,6.609,0,0,0,109.138,157.236Z" transform="translate(-99.046 -149.219)"/>
          <path id="パス_109" data-name="パス 109" d="M90.69,138.762h-.736V118.636H87.2V117.9h3.49Z" transform="translate(-87.2 -117.9)"/>
        </g>
        <g id="グループ化_96" data-name="グループ化 96" transform="translate(39.084 29.52)">
          <path id="パス_110" data-name="パス 110" d="M214.519,171.175a7.338,7.338,0,1,1,7.338-7.338A7.33,7.33,0,0,1,214.519,171.175Zm0-13.94a6.6,6.6,0,1,0,6.6,6.6A6.609,6.609,0,0,0,214.519,157.236Z" transform="translate(-207.2 -156.5)"/>
          <rect id="長方形_435" data-name="長方形 435" width="0.736" height="12.487" transform="translate(13.94 1.094)"/>
        </g>
        <path id="パス_111" data-name="パス 111" d="M109.138,14.675a7.338,7.338,0,1,1,7.338-7.338A7.346,7.346,0,0,1,109.138,14.675Zm0-13.94a6.6,6.6,0,1,0,6.6,6.6A6.609,6.609,0,0,0,109.138.736Z" transform="translate(-82.598)"/>
        <path id="パス_112" data-name="パス 112" d="M12.9,10.884a6.6,6.6,0,1,1,0-7.092h.868A7.343,7.343,0,0,0,0,7.338a7.331,7.331,0,0,0,13.751,3.546H12.9Z"/>
        <path id="パス_113" data-name="パス 113" d="M109.138,307.975a7.338,7.338,0,1,1,7.338-7.338A7.346,7.346,0,0,1,109.138,307.975Zm0-13.94a6.6,6.6,0,1,0,6.6,6.6A6.609,6.609,0,0,0,109.138,294.036Z" transform="translate(-82.598 -237.975)"/>
        <path id="パス_114" data-name="パス 114" d="M109.138,307.975a7.338,7.338,0,1,1,7.338-7.338A7.346,7.346,0,0,1,109.138,307.975Zm0-13.94a6.6,6.6,0,1,0,6.6,6.6A6.609,6.609,0,0,0,109.138,294.036Z" transform="translate(-82.598 -237.975)"/>
        <path id="パス_115" data-name="パス 115" d="M12.9,304.084a6.6,6.6,0,1,1,0-7.092h.868a7.374,7.374,0,1,0-.019,7.092Z" transform="translate(0 -237.894)"/>
      </g>
    </g>
  </g>
  <g id="グループ化_102" data-name="グループ化 102" transform="translate(69.83 32.237)">
    <g id="グループ化_101" data-name="グループ化 101">
      <g id="グループ化_100" data-name="グループ化 100">
        <path id="パス_116" data-name="パス 116" d="M371.367,173.711c0-1.019-.057-1.264-.66-1.32l-.434-.038a.212.212,0,0,1,.019-.34,29.421,29.421,0,0,1,2.943-.113,5.274,5.274,0,0,1,2.282.377,1.785,1.785,0,0,1,1.037,1.7,1.958,1.958,0,0,1-1.4,1.867c0,.132.113.17.264.207a2.251,2.251,0,0,1,1.83,2.282c0,1.584-1.169,2.641-3.622,2.641-.4,0-1.056-.038-1.641-.038-.6,0-1.056.019-1.566.038a.256.256,0,0,1-.019-.34l.245-.038c.717-.132.755-.264.755-1.7v-5.187Zm1.113,1.811c0,.377.019.415.717.377,1.4-.057,2.15-.472,2.15-1.754a1.809,1.809,0,0,0-2.037-1.849,1.6,1.6,0,0,0-.622.075c-.132.038-.189.113-.189.358v2.792Zm0,3.169a2.647,2.647,0,0,0,.283,1.49,1.293,1.293,0,0,0,1.075.377c1.207,0,2.15-.547,2.15-1.905,0-1.075-.547-2.339-2.716-2.339-.736,0-.792.075-.792.358Z" transform="translate(-370.197 -171.711)"/>
        <path id="パス_117" data-name="パス 117" d="M434.393,173.913c0-1.3-.038-1.528-.6-1.6l-.434-.057a.224.224,0,0,1,.019-.34c.754-.075,1.7-.113,3.037-.113a4.847,4.847,0,0,1,2.282.415,2.027,2.027,0,0,1,1.132,1.905,2.533,2.533,0,0,1-1.7,2.282c-.075.075,0,.226.075.321a14.834,14.834,0,0,0,2.735,3.622,1.527,1.527,0,0,0,.943.377c.075.019.075.132.019.189a2.247,2.247,0,0,1-.6.075c-1.169,0-1.849-.34-2.829-1.717-.358-.509-.905-1.452-1.339-2.056a.96.96,0,0,0-.962-.434c-.622,0-.641.019-.641.3V178.8c0,1.434.019,1.6.811,1.7l.283.038c.075.075.057.3-.038.34-.6-.019-1.075-.038-1.622-.038-.566,0-1.075.019-1.7.038a.277.277,0,0,1-.038-.34l.34-.038c.792-.094.811-.264.811-1.7v-4.885Zm1.113,1.962a1.184,1.184,0,0,0,.038.453c.038.038.245.075.943.075a2.308,2.308,0,0,0,1.415-.358,1.97,1.97,0,0,0,.679-1.7,2,2,0,0,0-2.188-2.094c-.849,0-.887.057-.887.434Z" transform="translate(-421.301 -171.63)"/>
        <path id="パス_118" data-name="パス 118" d="M503.829,174.013c0-1.452-.019-1.679-.83-1.754l-.34-.019a.282.282,0,0,1,.019-.34c.679.019,1.151.038,1.717.038.547,0,1.019-.019,1.7-.038.075.038.113.283.038.34l-.34.019c-.811.075-.83.3-.83,1.754v4.867c0,1.452.019,1.641.83,1.735l.34.038c.075.057.057.3-.038.34-.679-.019-1.151-.038-1.7-.038-.566,0-1.037.019-1.717.038a.256.256,0,0,1-.019-.34l.34-.038c.811-.094.83-.283.83-1.735Z" transform="translate(-477.628 -171.711)"/>
        <path id="パス_119" data-name="パス 119" d="M554.072,173.711c0-.962-.076-1.245-.641-1.32l-.3-.038a.2.2,0,0,1,.019-.34c1.169-.075,2.264-.113,3.433-.113a8.25,8.25,0,0,1,3,.415,4.075,4.075,0,0,1,2.773,4.018,4.477,4.477,0,0,1-2.4,4.074,6.649,6.649,0,0,1-3.056.66c-.868,0-1.754-.113-2.226-.113-.566,0-1.056.019-1.7.038a.256.256,0,0,1-.019-.34l.321-.038c.792-.113.811-.264.811-1.7v-5.206Zm1.113,4.867a2.594,2.594,0,0,0,.264,1.49c.3.415.811.566,1.679.566,2.641,0,3.829-1.735,3.829-4.263,0-1.509-.717-4.037-4.3-4.037a3.2,3.2,0,0,0-1.358.189c-.113.075-.132.415-.132,1.037v5.018Z" transform="translate(-518.44 -171.711)"/>
        <path id="パス_120" data-name="パス 120" d="M628.871,176.955c-.094-.3-.151-.34-.566-.34h-2.056c-.34,0-.415.038-.509.321l-.472,1.434a5.192,5.192,0,0,0-.3,1.132c0,.17.075.245.4.264l.453.038a.214.214,0,0,1-.038.34c-.358-.019-.773-.019-1.415-.038-.453,0-.943.019-1.3.038a.284.284,0,0,1-.038-.34l.453-.038a.883.883,0,0,0,.811-.66c.245-.622.622-1.509,1.207-3.037l1.4-3.678a2,2,0,0,0,.226-.962,1.523,1.523,0,0,0,.717-.528.2.2,0,0,1,.207.132c.17.6.4,1.226.6,1.83l1.867,5.489c.4,1.169.566,1.377,1.17,1.452l.377.038a.258.258,0,0,1,0,.34c-.566-.019-1.037-.038-1.66-.038-.66,0-1.169.019-1.566.038a.226.226,0,0,1-.038-.34l.4-.038c.283-.019.472-.113.472-.245a3.322,3.322,0,0,0-.17-.717Zm-2.7-1.207c-.113.321-.094.321.283.321h1.679c.4,0,.415-.057.3-.415l-.736-2.226a8.113,8.113,0,0,0-.321-.868h-.019c-.038.075-.17.4-.321.811Z" transform="translate(-575.299 -170.9)"/>
        <path id="パス_121" data-name="パス 121" d="M696.485,173.975c0-1.434-.019-1.66-.887-1.717l-.34-.019a.282.282,0,0,1,.019-.34c.755.019,1.226.038,1.773.038.528,0,1-.019,1.679-.038.075.038.113.283.038.34l-.321.019c-.811.075-.83.283-.83,1.717v4.753c0,.868.038,1.207.283,1.471.151.151.415.321,1.49.321,1.169,0,1.452-.057,1.66-.17a3.123,3.123,0,0,0,.905-1.358c.075-.075.339-.019.339.075a10.737,10.737,0,0,1-.566,1.905c-.7-.019-2-.038-3.4-.038h-1.283c-.566,0-1.019.019-1.773.038a.256.256,0,0,1-.019-.34l.415-.038c.792-.075.811-.264.811-1.7Z" transform="translate(-633.898 -171.711)"/>
      </g>
    </g>
  </g>
</svg>
